<svg width="13" height="9" viewBox="0 0 13 9" fill="none" xmlns="http://www.w3.org/2000/svg">
<path d="M1.78981 -1.04294e-05L10.2098 -9.69333e-06C10.5422 -0.00049127 10.868 0.0931758 11.1494 0.270149C11.4308 0.447123 11.6563 0.700166 11.7998 0.99999C11.9678 1.35573 12.0326 1.75152 11.9866 2.14226C11.9406 2.53299 11.7858 2.90296 11.5398 3.20999L7.32981 8.30999C7.16459 8.50062 6.96033 8.65351 6.73086 8.75829C6.50139 8.86307 6.25207 8.9173 5.99981 8.9173C5.74755 8.9173 5.49823 8.86307 5.26876 8.75829C5.03929 8.65351 4.83503 8.50062 4.66981 8.30999L0.459808 3.20999C0.213802 2.90296 0.0589939 2.53299 0.0130249 2.14226C-0.0329441 1.75152 0.0317771 1.35573 0.19981 0.999989C0.343351 0.700165 0.568868 0.447122 0.850256 0.270148C1.13164 0.0931749 1.4574 -0.000492064 1.78981 -1.04294e-05Z" fill="#547DF0"/>
</svg>
