<svg width="13" height="9" viewBox="0 0 13 9" fill="none" xmlns="http://www.w3.org/2000/svg">
<path d="M10.2102 9.00001H1.79019C1.45778 9.00049 1.13203 8.90682 0.850638 8.72985C0.56925 8.55288 0.343733 8.29983 0.200191 8.00001C0.0321586 7.64427 -0.0325605 7.24848 0.0134084 6.85774C0.0593773 6.46701 0.214185 6.09704 0.460191 5.79001L4.67019 0.69001C4.83541 0.49938 5.03967 0.346494 5.26914 0.241713C5.49861 0.136931 5.74793 0.0827026 6.00019 0.0827026C6.25245 0.0827026 6.50177 0.136931 6.73124 0.241713C6.96071 0.346494 7.16497 0.49938 7.33019 0.69001L11.5402 5.79001C11.7862 6.09704 11.941 6.46701 11.987 6.85774C12.0329 7.24848 11.9682 7.64427 11.8002 8.00001C11.6566 8.29983 11.4311 8.55288 11.1497 8.72985C10.8684 8.90682 10.5426 9.00049 10.2102 9.00001Z" fill="#547DF0"/>
</svg>
