<svg width="1440" height="600" viewBox="0 0 1440 600" fill="none" xmlns="http://www.w3.org/2000/svg">
<g clip-path="url(#clip0)">
<rect width="1440" height="600" fill="#2C60F0"/>
<g style="mix-blend-mode:luminosity">
<rect width="123.988" height="100.753" rx="4" transform="matrix(0.826875 0.562387 -0.558394 0.829577 1112.13 -79)" fill="#4680FF"/>
<path d="M1163.51 24.9721C1160.9 19.5913 1165.06 13.4037 1171 13.8344L1241.15 18.9228C1247.09 19.3536 1250.35 26.0797 1247.01 31.0297L1207.66 89.5025C1204.32 94.4526 1196.9 93.9141 1194.29 88.5333L1163.51 24.9721Z" fill="white"/>
<ellipse rx="15.4999" ry="15.5019" transform="matrix(0.826874 0.562389 -0.558393 0.829578 1141.66 2.00986)" fill="white"/>
</g>
<g style="mix-blend-mode:luminosity">
<rect width="123.993" height="100.752" rx="4" transform="matrix(0.808059 -0.589102 0.585189 0.810898 1134.48 512.125)" fill="#4680FF"/>
<path d="M1249.26 499.107C1243.34 499.731 1238.98 493.683 1241.41 488.22L1270.1 423.687C1272.53 418.224 1279.94 417.443 1283.43 422.281L1324.67 479.436C1328.16 484.274 1325.13 491.103 1319.21 491.728L1249.26 499.107Z" fill="white"/>
<ellipse rx="15.5003" ry="15.5015" transform="matrix(0.808058 -0.589104 0.585187 0.810899 1220.32 511.891)" fill="white"/>
</g>
<g style="mix-blend-mode:luminosity">
<rect width="124.094" height="100.715" rx="4" transform="matrix(-0.365466 0.930826 -0.929226 -0.369516 276.472 -78.7844)" fill="#4680FF"/>
<path d="M186.53 -5.95288C191.189 -9.66309 198.115 -6.90903 198.996 -0.995588L209.402 68.857C210.283 74.7704 204.459 79.4082 198.919 77.205L133.472 51.1792C127.931 48.9759 126.83 41.5841 131.49 37.8739L186.53 -5.95288Z" fill="white"/>
</g>
<g style="mix-blend-mode:luminosity">
<rect width="123.681" height="100.506" rx="4" transform="matrix(0.80663 -0.59106 0.583232 0.812308 453.812 598.177)" fill="#4680FF"/>
<path d="M568.013 585.115C562.12 585.744 557.78 579.7 560.202 574.235L588.81 509.686C591.232 504.222 598.599 503.436 602.071 508.271L643.083 565.392C646.555 570.227 643.528 577.058 637.634 577.687L568.013 585.115Z" fill="white"/>
<ellipse rx="15.4625" ry="15.4647" transform="matrix(0.806629 -0.591061 0.58323 0.81231 539.231 597.885)" fill="white"/>
</g>
</g>
<defs>
<clipPath id="clip0">
<rect width="1440" height="600" fill="white"/>
</clipPath>
</defs>
</svg>
