<svg width="20" height="20" viewBox="0 0 20 20" fill="none" xmlns="http://www.w3.org/2000/svg">
<path d="M7.7097 9.28999C7.52139 9.10169 7.266 8.9959 6.9997 8.9959C6.7334 8.9959 6.478 9.10169 6.2897 9.28999C6.10139 9.4783 5.99561 9.73369 5.99561 9.99999C5.99561 10.2663 6.10139 10.5217 6.2897 10.71L9.2897 13.71C9.38314 13.8027 9.49395 13.876 9.61579 13.9258C9.73763 13.9755 9.86809 14.0008 9.9997 14C10.1366 13.9957 10.2711 13.9632 10.395 13.9047C10.5188 13.8463 10.6294 13.763 10.7197 13.66L17.7197 5.65999C17.8813 5.45932 17.9593 5.204 17.9372 4.94728C17.9152 4.69055 17.795 4.45223 17.6015 4.282C17.4081 4.11178 17.1564 4.02279 16.899 4.0336C16.6415 4.0444 16.3982 4.15416 16.2197 4.33999L9.9997 11.54L7.7097 9.28999Z" fill="#42AE51"/>
<path d="M18.9998 9C18.7346 9 18.4802 9.10536 18.2927 9.29289C18.1052 9.48043 17.9998 9.73478 17.9998 10C17.9998 12.1217 17.157 14.1566 15.6567 15.6569C14.1564 17.1571 12.1215 18 9.99981 18C8.4199 17.9993 6.87558 17.5308 5.56158 16.6535C4.24757 15.7763 3.22274 14.5297 2.61629 13.0708C2.00985 11.6119 1.84896 10.0061 2.1539 8.45589C2.45885 6.90569 3.21597 5.48048 4.32981 4.36C5.07052 3.60938 5.95349 3.01404 6.92707 2.60881C7.90065 2.20358 8.94527 1.99661 9.99981 2C10.6393 2.004 11.2764 2.07777 11.8998 2.22C12.0303 2.26035 12.1676 2.27356 12.3034 2.2588C12.4392 2.24404 12.5705 2.20163 12.6892 2.13418C12.808 2.06673 12.9116 1.97567 12.9938 1.86662C13.076 1.75757 13.135 1.63284 13.1672 1.50011C13.1994 1.36739 13.204 1.22948 13.1808 1.0949C13.1576 0.960317 13.1071 0.831909 13.0324 0.717592C12.9577 0.603274 12.8604 0.505471 12.7464 0.430211C12.6324 0.354952 12.5043 0.303831 12.3698 0.28C11.593 0.0972427 10.7979 0.00330743 9.99981 0C8.02415 0.0102635 6.0958 0.605521 4.45811 1.71065C2.82042 2.81578 1.54678 4.38126 0.797932 6.20953C0.0490803 8.0378 -0.141428 10.0469 0.250448 11.9834C0.642324 13.9198 1.59902 15.6968 2.99981 17.09C4.8565 18.9475 7.37347 19.9939 9.99981 20C12.652 20 15.1955 18.9464 17.0709 17.0711C18.9462 15.1957 19.9998 12.6522 19.9998 10C19.9998 9.73478 19.8945 9.48043 19.7069 9.29289C19.5194 9.10536 19.265 9 18.9998 9Z" fill="#42AE51"/>
</svg>
