<svg width="44" height="55" viewBox="0 0 44 55" fill="none" xmlns="http://www.w3.org/2000/svg">
<path d="M21.9999 15.6639C17.7319 15.6639 13.7279 17.3359 10.6919 20.3279C10.4719 20.5479 10.4719 20.8999 10.6919 21.1199C10.9119 21.3399 11.2639 21.3399 11.4839 21.1199C14.2999 18.3039 18.0399 16.7639 21.9999 16.7639C25.9599 16.7639 29.6999 18.3039 32.5159 21.1199C32.6039 21.2079 32.7799 21.2959 32.9119 21.2959C33.0439 21.2959 33.1759 21.2519 33.3079 21.1199C33.5279 20.8999 33.5279 20.5479 33.3079 20.3279C30.2719 17.3359 26.2679 15.6639 21.9999 15.6639Z" fill="#4680FF"/>
<path d="M21.9999 8.44803C15.7959 8.44803 9.98785 10.868 5.58785 15.224C5.36785 15.444 5.36785 15.796 5.58785 16.016C5.80785 16.236 6.15985 16.236 6.37985 16.016C10.5599 11.836 16.1039 9.54803 21.9999 9.54803C27.8959 9.54803 33.4399 11.836 37.6199 16.016C37.7079 16.104 37.8839 16.192 38.0159 16.192C38.1479 16.192 38.2799 16.148 38.4119 16.016C38.6319 15.796 38.6319 15.444 38.4119 15.224C34.0119 10.868 28.2039 8.44803 21.9999 8.44803Z" fill="#4680FF"/>
<path d="M43.5158 10.164C37.7518 4.39997 30.1398 1.23197 21.9998 1.23197C13.8598 1.23197 6.24785 4.39997 0.483848 10.164C0.263848 10.384 0.263848 10.736 0.483848 10.956C0.703848 11.176 1.05585 11.176 1.27585 10.956C6.81985 5.36797 14.1678 2.33197 21.9998 2.33197C29.8318 2.33197 37.1798 5.36797 42.7238 10.912C42.8118 11 42.9878 11.088 43.1198 11.088C43.2518 11.088 43.3838 11.044 43.5158 10.912C43.7358 10.692 43.7358 10.34 43.5158 10.164Z" fill="#4680FF"/>
<path d="M21.9999 23.232C16.6319 23.232 12.2319 27.632 12.2319 33C12.2319 38.368 16.6319 42.768 21.9999 42.768C27.3679 42.768 31.7679 38.368 31.7679 33C31.7679 27.632 27.3679 23.232 21.9999 23.232ZM21.9999 41.668C17.2039 41.668 13.3319 37.796 13.3319 33C13.3319 28.204 17.2039 24.332 21.9999 24.332C26.7959 24.332 30.6679 28.204 30.6679 33C30.6679 37.796 26.7959 41.668 21.9999 41.668Z" fill="#4680FF"/>
<path d="M24.0239 33.088C24.6399 32.516 25.0359 31.724 25.0359 30.844C25.0359 29.172 23.6719 27.808 21.9999 27.808C20.3279 27.808 18.9639 29.172 18.9639 30.844C18.9639 31.724 19.3159 32.516 19.9759 33.088L18.6559 37.444C18.6119 37.62 18.6559 37.796 18.7439 37.928C18.8319 38.06 19.0079 38.148 19.1839 38.148H24.7719C24.9479 38.148 25.1239 38.06 25.2119 37.928C25.2999 37.796 25.3439 37.62 25.2999 37.444L24.0239 33.088ZM19.9319 37.048L21.1199 33.044C21.2079 32.824 21.1199 32.56 20.8999 32.428C20.3719 32.076 20.0639 31.46 20.0639 30.844C20.0639 29.788 20.9439 28.908 21.9999 28.908C23.0559 28.908 23.9359 29.788 23.9359 30.844C23.9359 31.46 23.6279 32.076 23.0999 32.428C22.8799 32.56 22.7919 32.824 22.8799 33.044L24.0679 37.048H19.9319Z" fill="#4680FF"/>
</svg>
