<svg width="50" height="62" viewBox="0 0 50 62" fill="none" xmlns="http://www.w3.org/2000/svg">
<path d="M24.9 7.39039C23.7 7.39039 22.7 8.38239 22.7 9.57279C22.7 10.7632 23.7 11.7552 24.9 11.7552C26.1 11.7552 27.1 10.7632 27.1 9.57279C27.05 8.38239 26.1 7.39039 24.9 7.39039ZM24.9 13.6896C22.6 13.6896 20.75 11.8544 20.75 9.57279C20.75 7.29119 22.6 5.45599 24.9 5.45599C27.2 5.45599 29.05 7.29119 29.05 9.57279C29.05 11.8544 27.15 13.6896 24.9 13.6896Z" fill="#4680FF"/>
<path d="M42.2499 21.2289H40.2499V18.3521C40.2499 18.0545 39.9999 17.8065 39.6999 17.8065H35.3999V15.8225H39.6999C41.0999 15.8225 42.2499 16.9633 42.2499 18.3521V21.2289Z" fill="#4680FF"/>
<path d="M9.7998 21.2289H7.7998V18.3521C7.7998 16.9633 8.9498 15.8225 10.3498 15.8225H14.6498V17.8065H10.3498C10.0498 17.8065 9.7998 18.0545 9.7998 18.3521V21.2289Z" fill="#4680FF"/>
<path d="M33.7001 27.8255H31.7501V18.0543C31.7501 17.7071 31.4501 17.4095 31.1001 17.4095H18.7001C18.3501 17.4095 18.0501 17.7071 18.0501 18.0543V27.7759H16.1001V18.0543C16.1001 16.6159 17.3001 15.4255 18.7501 15.4255H31.1001C32.5501 15.4255 33.7501 16.6159 33.7501 18.0543V27.8255H33.7001Z" fill="#4680FF"/>
<path d="M26.1499 43.6976H23.5499C22.1499 43.6976 20.8999 42.5568 20.7999 41.168L19.8999 21.4272H21.8499L22.7499 41.0192C22.7499 41.416 23.0999 41.7136 23.4999 41.7136H26.0999C26.4999 41.7136 26.8499 41.3664 26.8499 41.0192L27.7499 21.4272H29.6999L28.8999 41.168C28.7999 42.5568 27.5999 43.6976 26.1499 43.6976Z" fill="#4680FF"/>
<path d="M14.9 10.0688C13.95 10.0688 13.2 10.8128 13.2 11.7552C13.2 12.6976 13.95 13.4416 14.9 13.4416C15.85 13.4416 16.6 12.6976 16.6 11.7552C16.6 10.8128 15.85 10.0688 14.9 10.0688ZM14.9 15.4256C12.85 15.4256 11.25 13.7888 11.25 11.8048C11.25 9.77121 12.9 8.18401 14.9 8.18401C16.95 8.18401 18.55 9.82081 18.55 11.8048C18.55 13.7888 16.9 15.4256 14.9 15.4256Z" fill="#4680FF"/>
<path d="M35.4 10.0688C34.45 10.0688 33.7 10.8128 33.7 11.7552C33.7 12.6976 34.45 13.4416 35.4 13.4416C36.35 13.4416 37.1 12.6976 37.1 11.7552C37.1 10.8128 36.35 10.0688 35.4 10.0688ZM35.4 15.4256C33.35 15.4256 31.75 13.7888 31.75 11.8048C31.75 9.77121 33.4 8.18401 35.4 8.18401C37.45 8.18401 39.05 9.82081 39.05 11.8048C39.05 13.7888 37.4 15.4256 35.4 15.4256Z" fill="#4680FF"/>
</svg>
