<svg width="18" height="18" viewBox="0 0 18 18" fill="none" xmlns="http://www.w3.org/2000/svg">
<path d="M16.5735 3.24H13.6912V1.44C13.6912 0.64575 13.0449 0 12.25 0H5.04412C4.24922 0 3.60294 0.64575 3.60294 1.44V3.24H0.720588C0.322013 3.24 0 3.56175 0 3.96V4.68C0 4.779 0.0810662 4.86 0.180147 4.86H1.54026L2.09646 16.6275C2.13249 17.3948 2.76751 18 3.53539 18H13.7587C14.5289 18 15.1616 17.397 15.1977 16.6275L15.7539 4.86H17.114C17.2131 4.86 17.2941 4.779 17.2941 4.68V3.96C17.2941 3.56175 16.9721 3.24 16.5735 3.24ZM12.0699 3.24H5.22426V1.62H12.0699V3.24Z" fill="#8083A3"/>
</svg>
