<svg width="174" height="76" viewBox="0 0 174 76" fill="none" xmlns="http://www.w3.org/2000/svg">
<path d="M6.36517 3.39672C6.36517 4.86046 5.12311 6.09344 3.53258 6.09344C1.94206 6.09344 0.7 4.86046 0.7 3.39672C0.7 1.93298 1.94206 0.7 3.53258 0.7C5.12311 0.7 6.36517 1.93298 6.36517 3.39672Z" stroke="#FB8B24" stroke-width="1.4"/>
<path d="M101.745 3.39672C101.745 4.86046 100.503 6.09344 98.9125 6.09344C97.3219 6.09344 96.0799 4.86046 96.0799 3.39672C96.0799 1.93298 97.3219 0.7 98.9125 0.7C100.503 0.7 101.745 1.93298 101.745 3.39672Z" stroke="#FB8B24" stroke-width="1.4"/>
<path d="M6.36517 49.2524C6.36517 50.7161 5.12311 51.9491 3.53258 51.9491C1.94206 51.9491 0.7 50.7161 0.7 49.2524C0.7 47.7887 1.94206 46.5557 3.53258 46.5557C5.12311 46.5557 6.36517 47.7887 6.36517 49.2524Z" stroke="#FB8B24" stroke-width="1.4"/>
<path d="M101.745 49.2524C101.745 50.7161 100.503 51.9491 98.9125 51.9491C97.3219 51.9491 96.0799 50.7161 96.0799 49.2524C96.0799 47.7887 97.3219 46.5557 98.9125 46.5557C100.503 46.5557 101.745 47.7887 101.745 49.2524Z" stroke="#FB8B24" stroke-width="1.4"/>
<path d="M54.0551 3.39672C54.0551 4.86046 52.813 6.09344 51.2225 6.09344C49.632 6.09344 48.3899 4.86046 48.3899 3.39672C48.3899 1.93298 49.632 0.7 51.2225 0.7C52.813 0.7 54.0551 1.93298 54.0551 3.39672Z" stroke="#FB8B24" stroke-width="1.4"/>
<path d="M149.435 3.39672C149.435 4.86046 148.193 6.09344 146.602 6.09344C145.012 6.09344 143.77 4.86046 143.77 3.39672C143.77 1.93298 145.012 0.7 146.602 0.7C148.193 0.7 149.435 1.93298 149.435 3.39672Z" stroke="#FB8B24" stroke-width="1.4"/>
<path d="M54.0551 49.2524C54.0551 50.7161 52.813 51.9491 51.2225 51.9491C49.632 51.9491 48.3899 50.7161 48.3899 49.2524C48.3899 47.7887 49.632 46.5557 51.2225 46.5557C52.813 46.5557 54.0551 47.7887 54.0551 49.2524Z" stroke="#FB8B24" stroke-width="1.4"/>
<path d="M149.435 49.2524C149.435 50.7161 148.193 51.9491 146.602 51.9491C145.012 51.9491 143.77 50.7161 143.77 49.2524C143.77 47.7887 145.012 46.5557 146.602 46.5557C148.193 46.5557 149.435 47.7887 149.435 49.2524Z" stroke="#FB8B24" stroke-width="1.4"/>
<path d="M6.36517 26.3245C6.36517 27.7882 5.12311 29.0212 3.53258 29.0212C1.94206 29.0212 0.7 27.7882 0.7 26.3245C0.7 24.8607 1.94206 23.6277 3.53258 23.6277C5.12311 23.6277 6.36517 24.8607 6.36517 26.3245Z" stroke="#FB8B24" stroke-width="1.4"/>
<path d="M101.745 26.3245C101.745 27.7882 100.503 29.0212 98.9125 29.0212C97.3219 29.0212 96.0799 27.7882 96.0799 26.3245C96.0799 24.8607 97.3219 23.6277 98.9125 23.6277C100.503 23.6277 101.745 24.8607 101.745 26.3245Z" stroke="#FB8B24" stroke-width="1.4"/>
<path d="M6.36517 72.1803C6.36517 73.644 5.12311 74.877 3.53258 74.877C1.94206 74.877 0.7 73.644 0.7 72.1803C0.7 70.7166 1.94206 69.4836 3.53258 69.4836C5.12311 69.4836 6.36517 70.7166 6.36517 72.1803Z" stroke="#FB8B24" stroke-width="1.4"/>
<path d="M101.745 72.1803C101.745 73.644 100.503 74.877 98.9125 74.877C97.3219 74.877 96.0799 73.644 96.0799 72.1803C96.0799 70.7166 97.3219 69.4836 98.9125 69.4836C100.503 69.4836 101.745 70.7166 101.745 72.1803Z" stroke="#FB8B24" stroke-width="1.4"/>
<path d="M54.0551 26.3245C54.0551 27.7882 52.813 29.0212 51.2225 29.0212C49.632 29.0212 48.3899 27.7882 48.3899 26.3245C48.3899 24.8607 49.632 23.6277 51.2225 23.6277C52.813 23.6277 54.0551 24.8607 54.0551 26.3245Z" stroke="#FB8B24" stroke-width="1.4"/>
<path d="M149.435 26.3245C149.435 27.7882 148.193 29.0212 146.602 29.0212C145.012 29.0212 143.77 27.7882 143.77 26.3245C143.77 24.8607 145.012 23.6277 146.602 23.6277C148.193 23.6277 149.435 24.8607 149.435 26.3245Z" stroke="#FB8B24" stroke-width="1.4"/>
<path d="M54.0551 72.1803C54.0551 73.644 52.8131 74.877 51.2225 74.877C49.632 74.877 48.3899 73.644 48.3899 72.1803C48.3899 70.7166 49.632 69.4836 51.2225 69.4836C52.8131 69.4836 54.0551 70.7166 54.0551 72.1803Z" stroke="#FB8B24" stroke-width="1.4"/>
<path d="M149.435 72.1803C149.435 73.644 148.193 74.877 146.602 74.877C145.012 74.877 143.77 73.644 143.77 72.1803C143.77 70.7166 145.012 69.4836 146.602 69.4836C148.193 69.4836 149.435 70.7166 149.435 72.1803Z" stroke="#FB8B24" stroke-width="1.4"/>
<path d="M30.2099 3.39672C30.2099 4.86046 28.9678 6.09344 27.3773 6.09344C25.7868 6.09344 24.5447 4.86046 24.5447 3.39672C24.5447 1.93298 25.7868 0.7 27.3773 0.7C28.9678 0.7 30.2099 1.93298 30.2099 3.39672Z" stroke="#FB8B24" stroke-width="1.4"/>
<path d="M125.59 3.39672C125.59 4.86046 124.348 6.09344 122.757 6.09344C121.167 6.09344 119.925 4.86046 119.925 3.39672C119.925 1.93298 121.167 0.7 122.757 0.7C124.348 0.7 125.59 1.93298 125.59 3.39672Z" stroke="#FB8B24" stroke-width="1.4"/>
<path d="M30.2099 49.2524C30.2099 50.7161 28.9678 51.9491 27.3773 51.9491C25.7868 51.9491 24.5447 50.7161 24.5447 49.2524C24.5447 47.7887 25.7868 46.5557 27.3773 46.5557C28.9678 46.5557 30.2099 47.7887 30.2099 49.2524Z" stroke="#FB8B24" stroke-width="1.4"/>
<path d="M125.59 49.2524C125.59 50.7161 124.348 51.9491 122.757 51.9491C121.167 51.9491 119.925 50.7161 119.925 49.2524C119.925 47.7887 121.167 46.5557 122.757 46.5557C124.348 46.5557 125.59 47.7887 125.59 49.2524Z" stroke="#FB8B24" stroke-width="1.4"/>
<path d="M77.8998 3.39672C77.8998 4.86046 76.6578 6.09344 75.0673 6.09344C73.4767 6.09344 72.2347 4.86046 72.2347 3.39672C72.2347 1.93298 73.4767 0.7 75.0673 0.7C76.6578 0.7 77.8998 1.93298 77.8998 3.39672Z" stroke="#FB8B24" stroke-width="1.4"/>
<path d="M173.28 3.39672C173.28 4.86046 172.038 6.09344 170.447 6.09344C168.857 6.09344 167.615 4.86046 167.615 3.39672C167.615 1.93298 168.857 0.7 170.447 0.7C172.038 0.7 173.28 1.93298 173.28 3.39672Z" stroke="#FB8B24" stroke-width="1.4"/>
<path d="M77.8998 49.2524C77.8998 50.7161 76.6578 51.9491 75.0673 51.9491C73.4767 51.9491 72.2347 50.7161 72.2347 49.2524C72.2347 47.7887 73.4767 46.5557 75.0673 46.5557C76.6578 46.5557 77.8998 47.7887 77.8998 49.2524Z" stroke="#FB8B24" stroke-width="1.4"/>
<path d="M173.28 49.2524C173.28 50.7161 172.038 51.9491 170.447 51.9491C168.857 51.9491 167.615 50.7161 167.615 49.2524C167.615 47.7887 168.857 46.5557 170.447 46.5557C172.038 46.5557 173.28 47.7887 173.28 49.2524Z" stroke="#FB8B24" stroke-width="1.4"/>
<path d="M30.2099 26.3245C30.2099 27.7882 28.9678 29.0212 27.3773 29.0212C25.7868 29.0212 24.5447 27.7882 24.5447 26.3245C24.5447 24.8607 25.7868 23.6277 27.3773 23.6277C28.9678 23.6277 30.2099 24.8607 30.2099 26.3245Z" stroke="#FB8B24" stroke-width="1.4"/>
<path d="M125.59 26.3245C125.59 27.7882 124.348 29.0212 122.757 29.0212C121.167 29.0212 119.925 27.7882 119.925 26.3245C119.925 24.8607 121.167 23.6277 122.757 23.6277C124.348 23.6277 125.59 24.8607 125.59 26.3245Z" stroke="#FB8B24" stroke-width="1.4"/>
<path d="M30.2099 72.1803C30.2099 73.644 28.9678 74.877 27.3773 74.877C25.7868 74.877 24.5447 73.644 24.5447 72.1803C24.5447 70.7166 25.7868 69.4836 27.3773 69.4836C28.9678 69.4836 30.2099 70.7166 30.2099 72.1803Z" stroke="#FB8B24" stroke-width="1.4"/>
<path d="M125.59 72.1803C125.59 73.644 124.348 74.877 122.757 74.877C121.167 74.877 119.925 73.644 119.925 72.1803C119.925 70.7166 121.167 69.4836 122.757 69.4836C124.348 69.4836 125.59 70.7166 125.59 72.1803Z" stroke="#FB8B24" stroke-width="1.4"/>
<path d="M77.8998 26.3245C77.8998 27.7882 76.6578 29.0212 75.0673 29.0212C73.4767 29.0212 72.2347 27.7882 72.2347 26.3245C72.2347 24.8607 73.4767 23.6277 75.0673 23.6277C76.6578 23.6277 77.8998 24.8607 77.8998 26.3245Z" stroke="#FB8B24" stroke-width="1.4"/>
<path d="M173.28 26.3245C173.28 27.7882 172.038 29.0212 170.447 29.0212C168.857 29.0212 167.615 27.7882 167.615 26.3245C167.615 24.8607 168.857 23.6277 170.447 23.6277C172.038 23.6277 173.28 24.8607 173.28 26.3245Z" stroke="#FB8B24" stroke-width="1.4"/>
<path d="M77.8998 72.1803C77.8998 73.644 76.6578 74.877 75.0673 74.877C73.4767 74.877 72.2347 73.644 72.2347 72.1803C72.2347 70.7166 73.4767 69.4836 75.0673 69.4836C76.6578 69.4836 77.8998 70.7166 77.8998 72.1803Z" stroke="#FB8B24" stroke-width="1.4"/>
<path d="M173.28 72.1803C173.28 73.644 172.038 74.877 170.447 74.877C168.857 74.877 167.615 73.644 167.615 72.1803C167.615 70.7166 168.857 69.4836 170.447 69.4836C172.038 69.4836 173.28 70.7166 173.28 72.1803Z" stroke="#FB8B24" stroke-width="1.4"/>
</svg>
