<svg width="14" height="12" viewBox="0 0 14 12" fill="none" xmlns="http://www.w3.org/2000/svg">
<path d="M0.693782 7.21791C0.196147 7.47899 0.216792 7.86135 0.738513 8.0678L2.28432 8.67942C2.80647 8.88673 3.59658 8.77361 4.03916 8.42823L10.7518 3.13447C11.1931 2.78737 11.2404 2.83856 10.8572 3.24888L5.55056 8.92888C5.16604 9.33791 5.27959 9.84028 5.80346 10.0429L5.98453 10.1134C6.50841 10.316 7.36217 10.6562 7.8826 10.8678L9.59701 11.5659C10.1179 11.7775 10.6744 11.528 10.8224 10.9861L13.4353 1.38178C13.5828 0.839847 13.2964 0.609739 12.7987 0.870384L0.693782 7.21791Z" fill="white"/>
</svg>
