<svg width="32" height="32" viewBox="0 0 32 32" fill="none" xmlns="http://www.w3.org/2000/svg">
<circle cx="16" cy="16" r="16" fill="#0081FE"/>
<path d="M9.69378 16.2179C9.19615 16.479 9.21679 16.8614 9.73851 17.0678L11.2843 17.6794C11.8065 17.8867 12.5966 17.7736 13.0392 17.4282L19.7518 12.1345C20.1931 11.7874 20.2404 11.8386 19.8572 12.2489L14.5506 17.9289C14.166 18.3379 14.2796 18.8403 14.8035 19.0429L14.9845 19.1134C15.5084 19.316 16.3622 19.6562 16.8826 19.8678L18.597 20.5659C19.1179 20.7775 19.6744 20.528 19.8224 19.9861L22.4353 10.3818C22.5828 9.83985 22.2964 9.60974 21.7987 9.87038L9.69378 16.2179Z" fill="white"/>
<path d="M13.9361 22.5062C13.9056 22.5979 14.9933 20.9312 14.9933 20.9312C15.3009 20.4615 15.1262 19.9011 14.6067 19.6886L13.4204 19.203C12.9009 18.9905 12.6518 19.24 12.8669 19.7591C12.8669 19.7591 13.9675 22.4121 13.9361 22.5062Z" fill="white"/>
</svg>
