<svg width="20" height="20" viewBox="0 0 20 20" fill="none" xmlns="http://www.w3.org/2000/svg">
<path opacity="0.4" fill-rule="evenodd" clip-rule="evenodd" d="M13.5712 1.66669H16.2933C17.4196 1.66669 18.3332 2.58827 18.3332 3.72517V6.47011C18.3332 7.60615 17.4196 8.52859 16.2933 8.52859H13.5712C12.444 8.52859 11.5304 7.60615 11.5304 6.47011V3.72517C11.5304 2.58827 12.444 1.66669 13.5712 1.66669Z" stroke="white" stroke-width="1.5" stroke-linecap="round" stroke-linejoin="round"/>
<path fill-rule="evenodd" clip-rule="evenodd" d="M3.70739 1.66669H6.4287C7.55582 1.66669 8.46947 2.58827 8.46947 3.72517V6.47011C8.46947 7.60615 7.55582 8.52859 6.4287 8.52859H3.70739C2.58027 8.52859 1.66663 7.60615 1.66663 6.47011V3.72517C1.66663 2.58827 2.58027 1.66669 3.70739 1.66669Z" stroke="white" stroke-width="1.5" stroke-linecap="round" stroke-linejoin="round"/>
<path fill-rule="evenodd" clip-rule="evenodd" d="M3.70739 11.4714H6.4287C7.55582 11.4714 8.46947 12.393 8.46947 13.5308V16.2749C8.46947 17.4118 7.55582 18.3333 6.4287 18.3333H3.70739C2.58027 18.3333 1.66663 17.4118 1.66663 16.2749V13.5308C1.66663 12.393 2.58027 11.4714 3.70739 11.4714Z" stroke="white" stroke-width="1.5" stroke-linecap="round" stroke-linejoin="round"/>
<path fill-rule="evenodd" clip-rule="evenodd" d="M13.5712 11.4714H16.2933C17.4196 11.4714 18.3332 12.393 18.3332 13.5308V16.2749C18.3332 17.4118 17.4196 18.3333 16.2933 18.3333H13.5712C12.444 18.3333 11.5304 17.4118 11.5304 16.2749V13.5308C11.5304 12.393 12.444 11.4714 13.5712 11.4714Z" stroke="white" stroke-width="1.5" stroke-linecap="round" stroke-linejoin="round"/>
</svg>
