<svg width="119" height="43" viewBox="0 0 119 43" fill="none" xmlns="http://www.w3.org/2000/svg">
<rect width="43" height="43" rx="9.2349" fill="#5183F7"/>
<rect x="8.65771" y="13.8523" width="18.4698" height="15.0067" rx="1.15436" fill="#204066"/>
<path d="M23.6646 22.3554C22.895 21.9111 22.895 20.8003 23.6646 20.356L32.7552 15.1075C33.5248 14.6632 34.4867 15.2186 34.4867 16.1073V26.6042C34.4867 27.4928 33.5248 28.0482 32.7552 27.6039L23.6646 22.3554Z" fill="white"/>
<circle cx="19.047" cy="21.3556" r="2.30872" fill="white"/>
<path d="M65.177 16.3H59.945V31H56.717V16.3H51.485V13.648H65.177V16.3ZM69.9344 18.688V31H66.9584V18.688H69.9344ZM70.3424 15.1C70.3424 15.356 70.2904 15.596 70.1864 15.82C70.0824 16.044 69.9424 16.24 69.7664 16.408C69.5984 16.576 69.3984 16.712 69.1664 16.816C68.9344 16.912 68.6864 16.96 68.4224 16.96C68.1664 16.96 67.9224 16.912 67.6904 16.816C67.4664 16.712 67.2704 16.576 67.1024 16.408C66.9344 16.24 66.7984 16.044 66.6944 15.82C66.5984 15.596 66.5504 15.356 66.5504 15.1C66.5504 14.836 66.5984 14.588 66.6944 14.356C66.7984 14.124 66.9344 13.924 67.1024 13.756C67.2704 13.588 67.4664 13.456 67.6904 13.36C67.9224 13.256 68.1664 13.204 68.4224 13.204C68.6864 13.204 68.9344 13.256 69.1664 13.36C69.3984 13.456 69.5984 13.588 69.7664 13.756C69.9424 13.924 70.0824 14.124 70.1864 14.356C70.2904 14.588 70.3424 14.836 70.3424 15.1ZM72.9562 31V18.688H74.7682C75.1522 18.688 75.4042 18.868 75.5242 19.228L75.7162 20.14C75.9322 19.9 76.1562 19.68 76.3882 19.48C76.6282 19.28 76.8802 19.108 77.1442 18.964C77.4162 18.82 77.7042 18.708 78.0082 18.628C78.3202 18.54 78.6602 18.496 79.0282 18.496C79.8042 18.496 80.4402 18.708 80.9362 19.132C81.4402 19.548 81.8162 20.104 82.0642 20.8C82.2562 20.392 82.4962 20.044 82.7842 19.756C83.0722 19.46 83.3882 19.22 83.7322 19.036C84.0762 18.852 84.4402 18.716 84.8242 18.628C85.2162 18.54 85.6082 18.496 86.0002 18.496C86.6802 18.496 87.2842 18.6 87.8122 18.808C88.3402 19.016 88.7842 19.32 89.1442 19.72C89.5042 20.12 89.7762 20.608 89.9602 21.184C90.1522 21.76 90.2482 22.42 90.2482 23.164V31H87.2842V23.164C87.2842 22.38 87.1122 21.792 86.7682 21.4C86.4242 21 85.9202 20.8 85.2562 20.8C84.9522 20.8 84.6682 20.852 84.4042 20.956C84.1482 21.06 83.9202 21.212 83.7202 21.412C83.5282 21.604 83.3762 21.848 83.2642 22.144C83.1522 22.44 83.0962 22.78 83.0962 23.164V31H80.1202V23.164C80.1202 22.34 79.9522 21.74 79.6162 21.364C79.2882 20.988 78.8042 20.8 78.1642 20.8C77.7322 20.8 77.3282 20.908 76.9522 21.124C76.5842 21.332 76.2402 21.62 75.9202 21.988V31H72.9562ZM96.0296 27.808C96.3656 28.216 96.7296 28.504 97.1216 28.672C97.5216 28.84 97.9416 28.924 98.3816 28.924C98.8376 28.924 99.2456 28.844 99.6056 28.684C99.9736 28.516 100.286 28.26 100.542 27.916C100.798 27.564 100.994 27.12 101.13 26.584C101.266 26.04 101.334 25.392 101.334 24.64C101.334 23.288 101.11 22.312 100.662 21.712C100.214 21.104 99.5696 20.8 98.7296 20.8C98.1616 20.8 97.6656 20.932 97.2416 21.196C96.8176 21.452 96.4136 21.816 96.0296 22.288V27.808ZM96.0296 20.2C96.5256 19.68 97.0736 19.268 97.6736 18.964C98.2816 18.652 98.9736 18.496 99.7496 18.496C100.462 18.496 101.102 18.636 101.67 18.916C102.246 19.196 102.734 19.6 103.134 20.128C103.542 20.648 103.854 21.28 104.07 22.024C104.286 22.768 104.394 23.604 104.394 24.532C104.394 25.532 104.27 26.44 104.022 27.256C103.774 28.072 103.418 28.772 102.954 29.356C102.498 29.932 101.946 30.38 101.298 30.7C100.65 31.02 99.9296 31.18 99.1376 31.18C98.7536 31.18 98.4056 31.14 98.0936 31.06C97.7816 30.988 97.4936 30.884 97.2296 30.748C96.9656 30.612 96.7216 30.448 96.4976 30.256C96.2816 30.056 96.0736 29.836 95.8736 29.596L95.7416 30.424C95.6936 30.632 95.6096 30.78 95.4896 30.868C95.3776 30.956 95.2216 31 95.0216 31H93.0656V13.168H96.0296V20.2ZM112.131 18.496C113.043 18.496 113.871 18.644 114.615 18.94C115.367 19.236 116.007 19.656 116.535 20.2C117.071 20.744 117.483 21.408 117.771 22.192C118.059 22.976 118.203 23.852 118.203 24.82C118.203 25.796 118.059 26.676 117.771 27.46C117.483 28.244 117.071 28.912 116.535 29.464C116.007 30.016 115.367 30.44 114.615 30.736C113.871 31.032 113.043 31.18 112.131 31.18C111.211 31.18 110.375 31.032 109.623 30.736C108.871 30.44 108.227 30.016 107.691 29.464C107.163 28.912 106.751 28.244 106.455 27.46C106.167 26.676 106.023 25.796 106.023 24.82C106.023 23.852 106.167 22.976 106.455 22.192C106.751 21.408 107.163 20.744 107.691 20.2C108.227 19.656 108.871 19.236 109.623 18.94C110.375 18.644 111.211 18.496 112.131 18.496ZM112.131 28.9C113.155 28.9 113.911 28.556 114.399 27.868C114.895 27.18 115.143 26.172 115.143 24.844C115.143 23.516 114.895 22.504 114.399 21.808C113.911 21.112 113.155 20.764 112.131 20.764C111.091 20.764 110.319 21.116 109.815 21.82C109.319 22.516 109.071 23.524 109.071 24.844C109.071 26.164 109.319 27.172 109.815 27.868C110.319 28.556 111.091 28.9 112.131 28.9Z" fill="white"/>
</svg>
