<svg width="122" height="21" viewBox="0 0 122 21" fill="none" xmlns="http://www.w3.org/2000/svg">
<path d="M16.1127 0.5H0.943365C0.433948 0.5 0 0.984212 0 1.57369V3.48947C0 4.07895 0.433948 4.56316 0.943365 4.56316H16.1127C16.641 4.56316 17.056 4.07895 17.0749 3.48947V1.59474C17.0749 0.98421 16.641 0.5 16.1127 0.5ZM16.1127 11.1316H0.943365C0.69809 11.1316 0.452815 11.2368 0.28301 11.4474C0.0943365 11.6579 0 11.9105 0 12.2053V14.121C0 14.7105 0.433948 15.1947 0.943365 15.1947H16.1127C16.641 15.1947 17.056 14.7316 17.0749 14.121V12.2053C17.056 11.5947 16.641 11.1316 16.1127 11.1316ZM9.49025 16.4368H0.943365C0.69809 16.4368 0.452815 16.5421 0.28301 16.7526C0.113204 16.9632 0 17.2158 0 17.5105V19.4263C0 20.0158 0.433948 20.5 0.943365 20.5H9.47139C9.99967 20.5 10.4148 20.0158 10.4148 19.4474V17.5316C10.4336 16.9 10.0185 16.4158 9.49025 16.4368ZM17.0749 5.80526H0.943365C0.69809 5.80526 0.452815 5.91052 0.28301 6.12105C0.113204 6.33158 0 6.58421 0 6.87895V8.79474C0 9.38421 0.433948 9.86842 0.943365 9.86842H17.056C17.5843 9.86842 17.9994 9.38421 17.9994 8.79474V6.87895C18.0183 6.28947 17.5843 5.82631 17.0749 5.80526Z" fill="#00C3F7"/>
<path d="M38.4118 6.01123C37.9095 5.50047 37.3268 5.10758 36.6638 4.83256C36.0007 4.55753 35.2975 4.42002 34.5741 4.42002C33.8709 4.40037 33.1877 4.55753 32.5448 4.8522C32.1228 5.04864 31.7411 5.32367 31.4196 5.65762V5.34331C31.4196 5.18616 31.3593 5.029 31.2588 4.91113C31.1584 4.79327 30.9976 4.71469 30.8168 4.71469H28.5865C28.4258 4.71469 28.265 4.77362 28.1645 4.91113C28.044 5.029 27.9837 5.18616 28.0038 5.34331V20.0374C28.0038 20.1946 28.0641 20.3517 28.1645 20.4696C28.2851 20.5875 28.4258 20.6464 28.5865 20.6464H30.8771C31.0378 20.6464 31.1785 20.5875 31.299 20.4696C31.4196 20.3714 31.4999 20.2142 31.4798 20.0374V15.0084C31.8013 15.362 32.2233 15.6174 32.6854 15.7746C33.2882 15.9906 33.9111 16.1085 34.554 16.1085C35.2774 16.1085 36.0007 15.971 36.6638 15.696C37.3268 15.421 37.9296 15.0281 38.4319 14.5173C38.9543 13.9869 39.3562 13.3583 39.6375 12.6707C39.959 11.9046 40.0996 11.0795 40.0795 10.2544C40.0996 9.42938 39.9389 8.6043 39.6375 7.81852C39.3361 7.17025 38.9342 6.54163 38.4118 6.01123ZM36.3624 11.3349C36.2418 11.6492 36.061 11.9242 35.8199 12.1796C35.3577 12.6707 34.6947 12.9457 34.0115 12.9457C33.67 12.9457 33.3284 12.8868 33.0069 12.7297C32.7055 12.5921 32.4242 12.4153 32.1831 12.1796C31.942 11.9439 31.7611 11.6492 31.6406 11.3349C31.3794 10.667 31.3794 9.94013 31.6406 9.27222C31.7611 8.95791 31.9621 8.68288 32.1831 8.44715C32.4242 8.21141 32.7055 8.01497 33.0069 7.87746C33.3284 7.73995 33.67 7.66137 34.0115 7.66137C34.3732 7.66137 34.6947 7.7203 35.0363 7.87746C35.3376 8.01497 35.6189 8.19177 35.84 8.4275C36.0811 8.66324 36.2418 8.93826 36.3825 9.25257C36.6236 9.94013 36.6035 10.667 36.3624 11.3349ZM52.3562 4.73433H50.0857C49.925 4.73433 49.7642 4.79327 49.6637 4.91113C49.5432 5.029 49.4829 5.18616 49.4829 5.36296V5.63798C49.2016 5.30402 48.8399 5.04864 48.4582 4.87184C47.8353 4.57718 47.1522 4.43966 46.469 4.43966C45.0022 4.43966 43.6158 5.00936 42.571 6.01123C42.0285 6.54163 41.6066 7.17025 41.3253 7.85781C41.0038 8.62395 40.843 9.44902 40.8631 10.2937C40.843 11.1188 41.0038 11.9439 41.3253 12.7297C41.6267 13.4172 42.0285 14.0458 42.571 14.5762C43.5957 15.5978 45.0022 16.1674 46.4489 16.1674C47.1321 16.1871 47.8152 16.0299 48.4381 15.7353C48.8199 15.5388 49.2016 15.2834 49.4829 14.9691V15.2638C49.4829 15.421 49.5432 15.5781 49.6637 15.696C49.7843 15.7942 49.925 15.8728 50.0857 15.8728H52.3562C52.5169 15.8728 52.6777 15.8138 52.7781 15.696C52.8987 15.5781 52.9589 15.421 52.9589 15.2638V5.3826C52.9589 5.22544 52.8987 5.06829 52.7982 4.95042C52.6777 4.81291 52.5169 4.73433 52.3562 4.73433ZM49.282 11.3349C49.1614 11.6492 48.9806 11.9242 48.7395 12.1796C48.4984 12.4153 48.2372 12.6118 47.9358 12.7493C47.2928 13.044 46.5494 13.044 45.9064 12.7493C45.605 12.6118 45.3237 12.4153 45.0826 12.1796C44.8415 11.9439 44.6607 11.6492 44.5401 11.3349C44.299 10.667 44.299 9.94013 44.5401 9.27222C44.6607 8.95791 44.8415 8.70253 45.0826 8.44715C45.3237 8.21141 45.5849 8.01497 45.9064 7.87746C46.5494 7.58279 47.2928 7.58279 47.9157 7.87746C48.2171 8.01497 48.4984 8.19177 48.7194 8.4275C48.9404 8.66324 49.1212 8.93826 49.2619 9.25257C49.5432 9.94013 49.5432 10.667 49.282 11.3349ZM74.9806 9.99906C74.6591 9.72404 74.2773 9.48831 73.8755 9.33115C73.4535 9.15435 72.9914 9.03648 72.5493 8.93826L70.8214 8.6043C70.3793 8.52572 70.0578 8.40786 69.8971 8.27035C69.7565 8.17212 69.656 8.01497 69.656 7.83817C69.656 7.66137 69.7565 7.50421 69.9775 7.3667C70.2789 7.20954 70.6003 7.13096 70.9419 7.15061C71.384 7.15061 71.826 7.24883 72.2279 7.40599C72.6297 7.58279 73.0115 7.75959 73.3731 7.99533C73.8755 8.30964 74.3175 8.2507 74.6189 7.8971L75.4427 6.97381C75.6034 6.81665 75.6838 6.62021 75.7039 6.40412C75.6838 6.16838 75.5632 5.97194 75.3824 5.81478C75.0408 5.52011 74.4782 5.2058 73.7348 4.89149C72.9914 4.57717 72.047 4.42002 70.9419 4.42002C70.2588 4.40037 69.5957 4.4986 68.9527 4.69504C68.4102 4.87184 67.8878 5.12722 67.4257 5.46118C67.0037 5.77549 66.6823 6.16838 66.4412 6.63985C66.2201 7.09168 66.0996 7.58279 66.0996 8.0739C66.0996 8.9972 66.3809 9.74368 66.9435 10.2937C67.5061 10.8438 68.2495 11.217 69.1738 11.3938L70.9821 11.7867C71.3639 11.8457 71.7657 11.9635 72.1274 12.1403C72.3283 12.2189 72.4489 12.4153 72.4489 12.6314C72.4489 12.8279 72.3484 13.0047 72.1274 13.1618C71.9064 13.319 71.5447 13.4172 71.0625 13.4172C70.5803 13.4172 70.0779 13.319 69.6359 13.1029C69.2139 12.9065 68.8322 12.6511 68.4705 12.3564C68.3098 12.2385 68.149 12.1403 67.9481 12.0617C67.7472 12.0028 67.486 12.0617 67.2248 12.2778L66.2402 13.0047C65.9589 13.2011 65.8183 13.5351 65.8987 13.8494C65.9589 14.1833 66.2201 14.4977 66.7225 14.8709C67.9682 15.696 69.4551 16.1282 70.962 16.0889C71.6653 16.0889 72.3685 16.0103 73.0316 15.8138C73.6143 15.637 74.1568 15.3817 74.639 15.0281C75.081 14.7138 75.4427 14.3012 75.6838 13.8101C75.9249 13.3386 76.0455 12.8279 76.0455 12.2975C76.0656 11.826 75.9651 11.3545 75.7642 10.9224C75.5632 10.608 75.302 10.2741 74.9806 9.99906ZM84.9064 12.6904C84.8059 12.5136 84.6251 12.3957 84.404 12.3564C84.2031 12.3564 83.9821 12.4153 83.8213 12.5332C83.54 12.71 83.2186 12.8082 82.8971 12.8279C82.7966 12.8279 82.6761 12.8082 82.5756 12.7886C82.455 12.7689 82.3546 12.71 82.2742 12.6314C82.1737 12.5332 82.0934 12.4153 82.0331 12.2975C81.9527 12.101 81.9125 11.9046 81.9326 11.7081V7.68101H84.8662C85.047 7.68101 85.2077 7.60243 85.3283 7.48457C85.4489 7.3667 85.5292 7.22919 85.5292 7.05238V5.34331C85.5292 5.16651 85.4689 5.00936 85.3283 4.91113C85.2077 4.79327 85.047 4.73433 84.8863 4.73433H81.9326V1.9841C81.9326 1.82694 81.8724 1.65014 81.7518 1.55192C81.6312 1.45369 81.4906 1.39476 81.3298 1.37512H79.0393C78.8785 1.37512 78.7178 1.43405 78.5972 1.55192C78.4767 1.66978 78.3963 1.82694 78.3963 1.9841V4.73433H77.0903C76.9296 4.73433 76.7688 4.79327 76.6483 4.93078C76.5478 5.04865 76.4875 5.2058 76.4875 5.36296V7.07203C76.4875 7.22919 76.5478 7.38635 76.6483 7.50421C76.7487 7.64172 76.9095 7.70066 77.0903 7.70066H78.3963V12.4939C78.3762 13.0636 78.4968 13.6333 78.7379 14.1441C78.9589 14.5762 79.2402 14.9495 79.622 15.2638C79.9836 15.5585 80.4056 15.7746 80.8677 15.8924C81.3298 16.0299 81.8121 16.1085 82.2943 16.1085C82.9172 16.1085 83.5601 16.0103 84.1629 15.8138C84.7255 15.637 85.2278 15.3227 85.6297 14.9102C85.8909 14.6548 85.911 14.2423 85.7101 13.9476L84.9064 12.6904ZM97.3236 4.73433H95.0532C94.8924 4.73433 94.7518 4.79327 94.6312 4.91113C94.5107 5.029 94.4504 5.18616 94.4504 5.36296V5.63798C94.1691 5.30402 93.8275 5.04864 93.4257 4.87184C92.8028 4.57718 92.1196 4.43966 91.4365 4.43966C89.9697 4.43966 88.5833 5.00936 87.5385 6.01123C86.996 6.54163 86.5741 7.17025 86.2928 7.85781C85.9713 8.62395 85.8105 9.44902 85.8306 10.2741C85.8105 11.0992 85.9713 11.9242 86.2928 12.71C86.5741 13.3976 87.0161 14.0262 87.5385 14.5566C88.5632 15.5781 89.9496 16.1478 91.4164 16.1478C92.0995 16.1674 92.7827 16.0103 93.4056 15.7353C93.8074 15.5388 94.1691 15.2834 94.4504 14.9691V15.2638C94.4504 15.421 94.5107 15.5781 94.6312 15.6763C94.7518 15.7942 94.8924 15.8531 95.0532 15.8531H97.3236C97.6652 15.8531 97.9264 15.5978 97.9264 15.2638V5.3826C97.9264 5.22544 97.8661 5.06829 97.7657 4.95042C97.6652 4.81291 97.5045 4.73433 97.3236 4.73433ZM94.2696 11.3349C94.149 11.6492 93.9682 11.9242 93.7271 12.1796C93.4859 12.4153 93.2247 12.6118 92.9233 12.7493C92.6019 12.8868 92.2603 12.9654 91.8986 12.9654C91.5369 12.9654 91.2155 12.8868 90.894 12.7493C90.5926 12.6118 90.3113 12.4153 90.0702 12.1796C89.8291 11.9439 89.6482 11.6492 89.5478 11.3349C89.3067 10.667 89.3067 9.94013 89.5478 9.27222C89.6683 8.95791 89.8492 8.68288 90.0702 8.44715C90.3113 8.21141 90.5926 8.01497 90.894 7.87746C91.2155 7.73995 91.557 7.66137 91.8986 7.66137C92.2402 7.66137 92.5818 7.7203 92.9233 7.87746C93.2247 8.01497 93.4859 8.19177 93.7271 8.4275C93.9682 8.66324 94.149 8.93826 94.2696 9.25257C94.5308 9.92049 94.5308 10.667 94.2696 11.3349ZM109.781 12.5332L108.475 11.551C108.234 11.3545 107.993 11.2956 107.792 11.3742C107.611 11.4528 107.45 11.5706 107.31 11.7081C107.028 12.0421 106.687 12.3368 106.325 12.5921C105.923 12.8082 105.501 12.9261 105.059 12.8868C104.537 12.8868 104.055 12.7493 103.633 12.4546C103.211 12.16 102.889 11.7671 102.729 11.276C102.608 10.942 102.548 10.608 102.548 10.2741C102.548 9.92048 102.608 9.58653 102.729 9.23293C102.849 8.91862 103.01 8.64359 103.251 8.40786C103.492 8.17212 103.753 7.97568 104.055 7.85781C104.376 7.7203 104.718 7.64172 105.079 7.64172C105.521 7.62208 105.964 7.73994 106.345 7.95603C106.727 8.19177 107.049 8.48644 107.33 8.84004C107.45 8.97755 107.611 9.09542 107.792 9.174C107.993 9.25257 108.234 9.19364 108.475 8.99719L109.781 8.03461C109.942 7.93639 110.062 7.77924 110.123 7.60244C110.203 7.40599 110.183 7.1899 110.062 7.0131C109.56 6.24696 108.877 5.61834 108.053 5.16651C107.189 4.69504 106.164 4.43966 105.019 4.43966C104.215 4.43966 103.412 4.59682 102.648 4.89149C101.925 5.18615 101.282 5.59869 100.739 6.12909C100.197 6.65949 99.7549 7.28812 99.4535 7.99533C98.8306 9.46867 98.8306 11.1188 99.4535 12.5921C99.7549 13.2797 100.177 13.928 100.739 14.4387C101.885 15.5388 103.412 16.1282 105.019 16.1282C106.164 16.1282 107.189 15.8728 108.053 15.4013C108.877 14.9495 109.58 14.3209 110.083 13.5351C110.183 13.3583 110.203 13.1422 110.143 12.9654C110.062 12.8082 109.942 12.6511 109.781 12.5332ZM121.877 14.8316L118.28 9.68475L121.355 5.71656C121.495 5.53976 121.555 5.28438 121.475 5.06829C121.415 4.91113 121.274 4.75398 120.892 4.75398H118.461C118.321 4.75398 118.18 4.79326 118.059 4.8522C117.899 4.93078 117.778 5.04864 117.698 5.18615L115.246 8.54537H114.664V0.608982C114.664 0.451825 114.603 0.294667 114.483 0.1768C114.362 0.0589324 114.222 0 114.061 0H111.79C111.63 0 111.469 0.0589324 111.348 0.1768C111.228 0.294667 111.168 0.432181 111.168 0.608982V15.2442C111.168 15.421 111.228 15.5585 111.348 15.6763C111.469 15.7942 111.63 15.8531 111.79 15.8531H114.061C114.222 15.8531 114.382 15.7942 114.483 15.6763C114.603 15.5585 114.664 15.4013 114.664 15.2442V11.3742H115.307L117.979 15.3817C118.14 15.6763 118.441 15.8531 118.763 15.8531H121.314C121.696 15.8531 121.857 15.6763 121.937 15.5192C122.038 15.2834 122.018 15.0281 121.877 14.8316ZM65.2557 4.73433H62.7039C62.503 4.73433 62.3222 4.79327 62.1815 4.93078C62.0609 5.04865 61.9806 5.18616 61.9404 5.34331L60.0517 12.1796H59.5895L57.5803 5.34331C57.5401 5.2058 57.4798 5.06829 57.3793 4.93078C57.2588 4.79327 57.098 4.71469 56.9172 4.71469H54.3253C53.9837 4.71469 53.7828 4.81291 53.6823 5.04864C53.622 5.24509 53.622 5.46118 53.6823 5.65762L56.8971 15.2834C56.9574 15.421 57.0177 15.5781 57.1382 15.6763C57.2588 15.7942 57.4396 15.8531 57.6205 15.8531H58.9868L58.8662 16.1674L58.5648 17.0514C58.4644 17.3265 58.3036 17.5622 58.0625 17.739C57.8415 17.8962 57.5803 17.9944 57.299 17.9747C57.0579 17.9747 56.8368 17.9158 56.6158 17.8372C56.3948 17.739 56.1939 17.6211 56.013 17.4836C55.8523 17.3658 55.6514 17.3068 55.4304 17.3068H55.4103C55.1691 17.3265 54.9481 17.4443 54.8276 17.6604L54.0239 18.8195C53.7024 19.3302 53.8832 19.6445 54.0841 19.8213C54.5262 20.2142 55.0285 20.5089 55.5911 20.6857C56.214 20.9018 56.8569 21 57.4999 21C58.6653 21 59.6297 20.6857 60.3732 20.0767C61.1367 19.4088 61.7194 18.5444 62.0007 17.5622L65.7379 5.65762C65.8183 5.44153 65.8384 5.22545 65.758 5.029C65.7379 4.89149 65.5973 4.73433 65.2557 4.73433Z" fill="white"/>
</svg>
