<svg width="34" height="42" viewBox="0 0 34 42" fill="none" xmlns="http://www.w3.org/2000/svg">
<path d="M4.8959 11.3031C4.67046 11.3031 4.45426 11.3916 4.29486 11.5491C4.13545 11.7067 4.0459 11.9203 4.0459 12.1431C4.0459 12.3659 4.13545 12.5795 4.29486 12.7371C4.45426 12.8946 4.67046 12.9831 4.8959 12.9831H24.3745C24.5999 12.9831 24.8161 12.8946 24.9755 12.7371C25.1349 12.5795 25.2245 12.3659 25.2245 12.1431C25.2245 11.9203 25.1349 11.7067 24.9755 11.5491C24.8161 11.3916 24.5999 11.3031 24.3745 11.3031H4.8959Z" fill="#4680FF"/>
<path d="M15.6195 26.9102H8.85695V22.7908C8.85695 22.1492 8.59903 21.5339 8.13994 21.0802C7.68086 20.6265 7.0582 20.3716 6.40895 20.3716H2.24395V6.09164C2.24395 5.89559 2.32275 5.70757 2.46303 5.56895C2.60331 5.43032 2.79356 5.35244 2.99195 5.35244H5.91595V6.62252C5.91685 7.08385 6.10269 7.52603 6.43278 7.85224C6.76288 8.17846 7.21032 8.36211 7.67715 8.363H9.97895C10.4458 8.36211 10.8932 8.17846 11.2233 7.85224C11.5534 7.52603 11.7392 7.08385 11.7401 6.62252V5.35244H17.5201V6.62252C17.521 7.08385 17.7069 7.52603 18.037 7.85224C18.3671 8.17846 18.8145 8.36211 19.2813 8.363H21.5831C22.05 8.36211 22.4974 8.17846 22.8275 7.85224C23.1576 7.52603 23.3434 7.08385 23.3443 6.62252V5.35244H26.2683C26.4667 5.35244 26.657 5.43032 26.7973 5.56895C26.9375 5.70757 27.0163 5.89559 27.0163 6.09164V15.2376C27.0163 15.4603 27.1059 15.674 27.2653 15.8315C27.4247 15.9891 27.6409 16.0776 27.8663 16.0776C28.0918 16.0776 28.308 15.9891 28.4674 15.8315C28.6268 15.674 28.7163 15.4603 28.7163 15.2376V6.09164C28.7163 5.45003 28.4584 4.83469 27.9993 4.38101C27.5403 3.92732 26.9176 3.67244 26.2683 3.67244H23.3443V2.07644C23.3435 1.61685 23.159 1.17618 22.8311 0.850253C22.5032 0.524329 22.0584 0.339501 21.5933 0.33596H19.2915C18.8247 0.336848 18.3773 0.520505 18.0472 0.846716C17.7171 1.17293 17.5312 1.61511 17.5303 2.07644V3.67244H11.7503V2.07644C11.7499 1.84715 11.7037 1.6202 11.6144 1.40858C11.5251 1.19695 11.3944 1.00481 11.2299 0.843151C11.0654 0.681488 10.8702 0.553478 10.6555 0.466448C10.4409 0.379418 10.211 0.335076 9.97895 0.33596H7.67715C7.21032 0.336848 6.76288 0.520505 6.43278 0.846716C6.10269 1.17293 5.91685 1.61511 5.91595 2.07644V3.67244H2.99195C2.3427 3.67244 1.72004 3.92732 1.26095 4.38101C0.80186 4.83469 0.543947 5.45003 0.543947 6.09164V21.598C0.543747 21.7084 0.565565 21.8178 0.608153 21.9198C0.650741 22.0219 0.713264 22.1146 0.792147 22.1928L7.01415 28.3416C7.09323 28.4195 7.18708 28.4813 7.29034 28.5234C7.39361 28.5655 7.50425 28.587 7.61595 28.5868H15.6195C15.845 28.5868 16.0612 28.4983 16.2206 28.3408C16.38 28.1833 16.4695 27.9696 16.4695 27.7468C16.4695 27.5241 16.38 27.3104 16.2206 27.1529C16.0612 26.9953 15.845 26.9068 15.6195 26.9068V26.9102ZM19.2269 2.07644C19.2269 2.06821 19.2286 2.06006 19.2319 2.05249C19.2352 2.04493 19.24 2.0381 19.2461 2.03244C19.2521 2.02678 19.2593 2.0224 19.2671 2.01956C19.2749 2.01673 19.2832 2.0155 19.2915 2.01596H21.5933C21.6096 2.01596 21.6251 2.02233 21.6366 2.03367C21.6481 2.04502 21.6545 2.0604 21.6545 2.07644V6.62252C21.6545 6.63856 21.6481 6.65394 21.6366 6.66529C21.6251 6.67663 21.6096 6.683 21.5933 6.683H19.2915C19.2753 6.683 19.2598 6.67663 19.2483 6.66529C19.2368 6.65394 19.2303 6.63856 19.2303 6.62252L19.2269 2.07644ZM7.61255 2.07644C7.61253 2.06821 7.61422 2.06006 7.61751 2.05249C7.62079 2.04493 7.62561 2.0381 7.63166 2.03244C7.6377 2.02678 7.64486 2.0224 7.65268 2.01956C7.6605 2.01673 7.66883 2.0155 7.67715 2.01596H9.97895C9.99518 2.01596 10.0107 2.02233 10.0222 2.03367C10.0337 2.04502 10.0401 2.0604 10.0401 2.07644V6.62252C10.0401 6.63856 10.0337 6.65394 10.0222 6.66529C10.0107 6.67663 9.99518 6.683 9.97895 6.683H7.67715C7.66092 6.683 7.64535 6.67663 7.63387 6.66529C7.62239 6.65394 7.61595 6.63856 7.61595 6.62252L7.61255 2.07644ZM3.05995 22.055H6.41575C6.61413 22.055 6.80439 22.1329 6.94466 22.2715C7.08494 22.4101 7.16375 22.5982 7.16375 22.7942V26.1072L3.05995 22.055Z" fill="#4680FF"/>
<path d="M25.6291 17.808C24.0824 17.808 22.5705 18.2612 21.2845 19.1104C19.9985 19.9596 18.9962 21.1665 18.4043 22.5786C17.8125 23.9907 17.6576 25.5446 17.9593 27.0437C18.2611 28.5428 19.0059 29.9198 20.0995 31.0005C21.1932 32.0813 22.5865 32.8173 24.1035 33.1155C25.6204 33.4137 27.1928 33.2607 28.6217 32.6758C30.0506 32.0908 31.2719 31.1003 32.1312 29.8295C32.9905 28.5586 33.4491 27.0645 33.4491 25.536C33.4446 23.4878 32.6193 21.5247 31.1537 20.0764C29.6881 18.6281 27.7017 17.8124 25.6291 17.808ZM25.6291 31.584C24.4187 31.584 23.2354 31.2293 22.229 30.5647C21.2226 29.9002 20.4382 28.9556 19.9749 27.8505C19.5117 26.7453 19.3905 25.5293 19.6267 24.3561C19.8628 23.1829 20.4457 22.1053 21.3016 21.2594C22.1575 20.4136 23.248 19.8376 24.4351 19.6042C25.6223 19.3709 26.8528 19.4906 27.9711 19.9484C29.0894 20.4061 30.0452 21.1813 30.7177 22.1759C31.3902 23.1705 31.7491 24.3398 31.7491 25.536C31.7491 27.14 31.1043 28.6784 29.9566 29.8126C28.8089 30.9468 27.2522 31.584 25.6291 31.584Z" fill="#4680FF"/>
<path d="M28.9 24.6926L26.469 24.7094V22.0752C26.469 21.8524 26.3795 21.6388 26.2201 21.4812C26.0607 21.3237 25.8445 21.2352 25.619 21.2352C25.3936 21.2352 25.1774 21.3237 25.018 21.4812C24.8586 21.6388 24.769 21.8524 24.769 22.0752V25.5561C24.769 25.7789 24.8586 25.9926 25.018 26.1501C25.1774 26.3076 25.3936 26.3961 25.619 26.3961L28.9068 26.3726C29.1323 26.3726 29.3485 26.2841 29.5079 26.1266C29.6673 25.9691 29.7568 25.7554 29.7568 25.5326C29.7568 25.3098 29.6673 25.0962 29.5079 24.9387C29.3485 24.7811 29.1323 24.6926 28.9068 24.6926H28.9Z" fill="#4680FF"/>
</svg>
