<svg style="position: absolute; width: 0; height: 0; overflow: hidden;" version="1.1" xmlns="http://www.w3.org/2000/svg" xmlns:xlink="http://www.w3.org/1999/xlink">
<defs>

<!-- Icons -->
<symbol id='icon-message' width="16" height="14" viewBox="0 0 16 14" fill="none" xmlns="http://www.w3.org/2000/svg">
<path d="M14.0117 4.01172V2.5L8 6.26172L1.98828 2.5V4.01172L8 7.73828L14.0117 4.01172ZM14.0117 0.988281C14.4102 0.988281 14.75 1.14062 15.0312 1.44531C15.3359 1.75 15.4883 2.10156 15.4883 2.5V11.5C15.4883 11.8984 15.3359 12.25 15.0312 12.5547C14.75 12.8594 14.4102 13.0117 14.0117 13.0117H1.98828C1.58984 13.0117 1.23828 12.8594 0.933594 12.5547C0.652344 12.25 0.511719 11.8984 0.511719 11.5V2.5C0.511719 2.10156 0.652344 1.75 0.933594 1.44531C1.23828 1.14062 1.58984 0.988281 1.98828 0.988281H14.0117Z" fill="#8083A3"/>
</symbol>

<symbol id="icon-lock" width="14" height="17" viewBox="0 0 14 17" fill="none" xmlns="http://www.w3.org/2000/svg">
<path d="M9.32031 6.01172V4.5C9.32031 3.86719 9.08594 3.32813 8.61719 2.88281C8.17188 2.41406 7.63281 2.17969 7 2.17969C6.36719 2.17969 5.81641 2.41406 5.34766 2.88281C4.90234 3.32813 4.67969 3.86719 4.67969 4.5V6.01172H9.32031ZM5.94531 12.3047C6.25 12.6094 6.60156 12.7617 7 12.7617C7.39844 12.7617 7.75 12.6094 8.05469 12.3047C8.35938 12 8.51172 11.6484 8.51172 11.25C8.51172 10.8516 8.35938 10.5 8.05469 10.1953C7.75 9.89062 7.39844 9.73828 7 9.73828C6.60156 9.73828 6.25 9.89062 5.94531 10.1953C5.64062 10.5 5.48828 10.8516 5.48828 11.25C5.48828 11.6484 5.64062 12 5.94531 12.3047ZM11.5 6.01172C11.8984 6.01172 12.25 6.16406 12.5547 6.46875C12.8594 6.75 13.0117 7.08984 13.0117 7.48828V15.0117C13.0117 15.4102 12.8594 15.7617 12.5547 16.0664C12.25 16.3477 11.8984 16.4883 11.5 16.4883H2.5C2.10156 16.4883 1.75 16.3477 1.44531 16.0664C1.14062 15.7617 0.988281 15.4102 0.988281 15.0117V7.48828C0.988281 7.08984 1.14062 6.75 1.44531 6.46875C1.75 6.16406 2.10156 6.01172 2.5 6.01172H3.23828V4.5C3.23828 3.46875 3.60156 2.58984 4.32812 1.86328C5.07812 1.11328 5.96875 0.738281 7 0.738281C8.03125 0.738281 8.91016 1.11328 9.63672 1.86328C10.3867 2.58984 10.7617 3.46875 10.7617 4.5V6.01172H11.5Z" fill="#8083A3"/>
</symbol>

<symbol id='icon-call' width="18" height="18" viewBox="0 0 18 18" fill="none" xmlns="http://www.w3.org/2000/svg">
<path d="M16.3477 12.0938C16.6055 12.0938 16.8203 12.1797 16.9922 12.3516C17.1641 12.5234 17.25 12.7383 17.25 12.9961V16.1758C17.25 16.8919 16.9492 17.25 16.3477 17.25C12.0794 17.25 8.41276 15.7174 5.34766 12.6523C2.28255 9.58724 0.75 5.92057 0.75 1.65234C0.75 1.05078 1.10807 0.75 1.82422 0.75H5.00391C5.26172 0.75 5.47656 0.835938 5.64844 1.00781C5.82031 1.17969 5.90625 1.39453 5.90625 1.65234C5.90625 2.76953 6.07812 3.84375 6.42188 4.875C6.53646 5.2474 6.46484 5.5625 6.20703 5.82031L4.44531 7.36719C5.76302 10.1172 7.86849 12.194 10.7617 13.5977L12.1797 11.793C12.3516 11.6211 12.5664 11.5352 12.8242 11.5352C12.9674 11.5352 13.0677 11.5495 13.125 11.5781C14.1562 11.9219 15.2305 12.0938 16.3477 12.0938Z" fill="white"/>
</symbol>

<symbol id='icon-conference' width="22" height="16" viewBox="0 0 22 16" fill="none" xmlns="http://www.w3.org/2000/svg">
<path d="M20.1523 12.5977V6.15234H16.5V12.5977H20.1523ZM21.0977 4.34766C21.3555 4.34766 21.5703 4.43359 21.7422 4.60547C21.9141 4.77734 22 4.99219 22 5.25V14.4023C22 14.6602 21.9141 14.8893 21.7422 15.0898C21.5703 15.2617 21.3555 15.3477 21.0977 15.3477H15.5977C15.3398 15.3477 15.1107 15.2617 14.9102 15.0898C14.7383 14.8893 14.6523 14.6602 14.6523 14.4023V5.25C14.6523 4.99219 14.7383 4.77734 14.9102 4.60547C15.1107 4.43359 15.3398 4.34766 15.5977 4.34766H21.0977ZM3.65234 2.5V12.5977H12.8477V15.3477H0V12.5977H1.84766V2.5C1.84766 2.01302 2.01953 1.58333 2.36328 1.21094C2.73568 0.838542 3.16536 0.652344 3.65234 0.652344H20.1523V2.5H3.65234Z" fill="white"/>
</symbol>

<symbol id='icon-contacts' width="20" height="14" viewBox="0 0 20 14" fill="none" xmlns="http://www.w3.org/2000/svg">
<path d="M7.25 7.90234C7.88021 7.90234 8.61068 7.98828 9.44141 8.16016C7.98047 8.96224 7.25 10.0221 7.25 11.3398V13.4023H0.847656V11.125C0.847656 10.4661 1.23438 9.87891 2.00781 9.36328C2.8099 8.84766 3.68359 8.47526 4.62891 8.24609C5.57422 8.01693 6.44792 7.90234 7.25 7.90234ZM10.8164 9.53516C11.9622 9.07682 13.0651 8.84766 14.125 8.84766C15.1849 8.84766 16.2878 9.07682 17.4336 9.53516C18.5794 9.99349 19.1523 10.5951 19.1523 11.3398V13.4023H9.09766V11.3398C9.09766 10.5951 9.67057 9.99349 10.8164 9.53516ZM9.18359 5.28125C8.63932 5.82552 7.99479 6.09766 7.25 6.09766C6.50521 6.09766 5.86068 5.82552 5.31641 5.28125C4.77214 4.73698 4.5 4.09245 4.5 3.34766C4.5 2.60286 4.77214 1.95833 5.31641 1.41406C5.86068 0.869792 6.50521 0.597656 7.25 0.597656C7.99479 0.597656 8.63932 0.869792 9.18359 1.41406C9.72786 1.95833 10 2.60286 10 3.34766C10 4.09245 9.72786 4.73698 9.18359 5.28125ZM15.7148 6.35547C15.2852 6.78516 14.7552 7 14.125 7C13.4948 7 12.9505 6.78516 12.4922 6.35547C12.0625 5.89714 11.8477 5.35286 11.8477 4.72266C11.8477 4.09245 12.0625 3.54818 12.4922 3.08984C12.9505 2.63151 13.4948 2.40234 14.125 2.40234C14.7552 2.40234 15.2852 2.63151 15.7148 3.08984C16.1732 3.54818 16.4023 4.09245 16.4023 4.72266C16.4023 5.35286 16.1732 5.89714 15.7148 6.35547Z" fill="white"/>
</symbol>

<symbol id='icon-home' width="20" height="17" viewBox="0 0 20 17" fill="none" xmlns="http://www.w3.org/2000/svg">
<path d="M8.15234 16.3477H3.59766V9H0.847656L10 0.75L19.1523 9H16.4023V16.3477H11.8477V10.8477H8.15234V16.3477Z" fill="white" />
</symbol>

<symbol id='icon-messages' width="20" height="20" viewBox="0 0 20 20" fill="none" xmlns="http://www.w3.org/2000/svg">
<path d="M14.5977 10C14.5977 10.2578 14.4974 10.4727 14.2969 10.6445C14.125 10.8164 13.9102 10.9023 13.6523 10.9023H4.5L0.847656 14.5977V1.75C0.847656 1.49219 0.933594 1.27734 1.10547 1.10547C1.27734 0.933594 1.49219 0.847656 1.75 0.847656H13.6523C13.9102 0.847656 14.125 0.933594 14.2969 1.10547C14.4974 1.27734 14.5977 1.49219 14.5977 1.75V10ZM18.25 4.5C18.5078 4.5 18.7227 4.58594 18.8945 4.75781C19.0664 4.92969 19.1523 5.14453 19.1523 5.40234V19.1523L15.5 15.5H5.40234C5.14453 15.5 4.92969 15.4141 4.75781 15.2422C4.58594 15.0703 4.5 14.8555 4.5 14.5977V12.75H16.4023V4.5H18.25Z" fill="white"/>
</symbol>

<symbol id="icon-recordings" style='white-space: normal' width="18" height="12" viewBox="0 0 18 12" fill="none" xmlns="http://www.w3.org/2000/svg">
<path d="M13.5977 4.625L17.25 0.972656V11.0273L13.5977 7.375V10.5977C13.5977 10.8555 13.4974 11.0703 13.2969 11.2422C13.125 11.4141 12.9102 11.5 12.6523 11.5H1.65234C1.39453 11.5 1.17969 11.4141 1.00781 11.2422C0.835938 11.0703 0.75 10.8555 0.75 10.5977V1.40234C0.75 1.14453 0.835938 0.929688 1.00781 0.757812C1.17969 0.585938 1.39453 0.5 1.65234 0.5H12.6523C12.9102 0.5 13.125 0.585938 13.2969 0.757812C13.4974 0.929688 13.5977 1.14453 13.5977 1.40234V4.625Z" fill="white"/>
</symbol>

<symbol id='icon-schedule' width="18" height="20" viewBox="0 0 18 20" fill="none" xmlns="http://www.w3.org/2000/svg">
<path d="M10.8477 12.8477V14.6523H4.40234V12.8477H10.8477ZM15.4023 17.4023V7.34766H2.59766V17.4023H15.4023ZM15.4023 2.75C15.8893 2.75 16.319 2.9362 16.6914 3.30859C17.0638 3.68099 17.25 4.11068 17.25 4.59766V17.4023C17.25 17.8893 17.0638 18.319 16.6914 18.6914C16.319 19.0638 15.8893 19.25 15.4023 19.25H2.59766C2.08203 19.25 1.63802 19.0781 1.26562 18.7344C0.921875 18.362 0.75 17.918 0.75 17.4023V4.59766C0.75 4.11068 0.921875 3.68099 1.26562 3.30859C1.63802 2.9362 2.08203 2.75 2.59766 2.75H3.5V0.902344H5.34766V2.75H12.6523V0.902344H14.5V2.75H15.4023ZM13.5977 9.15234V11H4.40234V9.15234H13.5977Z" fill="white"/>
</symbol>

<symbol id="icon-arrow-back" width="24" height="25" viewBox="0 0 24 25" fill="none" xmlns="http://www.w3.org/2000/svg">
<path opacity="0.4" d="M4.25 12.9385L19.25 12.9385" stroke="#200E32" stroke-width="1.5" stroke-linecap="round" stroke-linejoin="round"/>
<path d="M10.2998 18.9628L4.2498 12.9388L10.2998 6.91382" stroke="#200E32" stroke-width="1.5" stroke-linecap="round" stroke-linejoin="round"/>
</symbol>

<symbol id="icon-settings-adjust" width="16" height="16" viewBox="0 0 16 16" fill="none" xmlns="http://www.w3.org/2000/svg">
<g clip-path="url(#clip0_445:38181)">
<path d="M12.6831 0.685597V2.34998C11.7825 2.6206 11.1206 3.44812 11.1206 4.4356C11.1206 5.42308 11.7825 6.24998 12.6831 6.52121V14.4356C12.6831 14.7806 12.9631 15.0606 13.3081 15.0606C13.6531 15.0606 13.9331 14.7806 13.9331 14.4356V6.52124C14.8337 6.25063 15.4956 5.42311 15.4956 4.43563C15.4956 3.44815 14.8337 2.62124 13.9331 2.35001V0.685627C13.9331 0.340012 13.6531 0.0606365 13.3081 0.0606365C12.9631 0.0606365 12.6831 0.339982 12.6831 0.685597ZM14.2456 4.4356C14.2456 4.95248 13.825 5.3731 13.3081 5.3731C12.7912 5.3731 12.3706 4.95248 12.3706 4.4356C12.3706 3.91871 12.7912 3.4981 13.3081 3.4981C13.825 3.4981 14.2456 3.91874 14.2456 4.4356Z" fill="#4C6FFF"/>
<path d="M2.6831 0.685598V2.34998C1.78248 2.62124 1.12061 3.44812 1.12061 4.4356C1.12061 5.42308 1.78248 6.24998 2.6831 6.52124L2.6831 14.4356C2.6831 14.7806 2.96309 15.0606 3.30809 15.0606C3.65309 15.0606 3.93308 14.7806 3.93308 14.4356L3.93308 6.52124C4.83372 6.24998 5.4956 5.42311 5.4956 4.4356C5.4956 3.44809 4.83372 2.62121 3.93311 2.34998V0.685598C3.93311 0.339983 3.65312 0.0606079 3.30812 0.0606079C2.96312 0.0606079 2.6831 0.339983 2.6831 0.685598ZM4.24559 4.4356C4.24559 4.95248 3.82497 5.3731 3.30809 5.3731C2.7912 5.3731 2.37059 4.95248 2.37059 4.4356C2.37059 3.91871 2.7912 3.4981 3.30809 3.4981C3.82497 3.4981 4.24559 3.91874 4.24559 4.4356Z" fill="#4C6FFF"/>
<path d="M7.6831 0.685597L7.6831 8.59997C6.78248 8.87123 6.12061 9.69811 6.12061 10.6856C6.12061 11.6731 6.78248 12.5 7.6831 12.7712V14.4356C7.6831 14.7806 7.96309 15.0606 8.30809 15.0606C8.65309 15.0606 8.93308 14.7806 8.93308 14.4356V12.7712C9.83369 12.5 10.4956 11.6731 10.4956 10.6856C10.4956 9.69814 9.83369 8.87123 8.93308 8.6V0.685627C8.93308 0.340012 8.65309 0.0606365 8.30809 0.0606365C7.96309 0.060607 7.6831 0.339982 7.6831 0.685597ZM9.24559 10.6856C9.24559 11.2025 8.82497 11.6231 8.30809 11.6231C7.7912 11.6231 7.37059 11.2025 7.37059 10.6856C7.37059 10.1687 7.7912 9.74812 8.30809 9.74812C8.82497 9.74812 9.24559 10.1687 9.24559 10.6856Z" fill="#4C6FFF"/>
</g>
</symbol>



<symbol id='icon-settings' width="18" height="20" viewBox="0 0 18 20" fill="none" xmlns="http://www.w3.org/2000/svg">
<path d="M6.72266 12.2773C7.35286 12.9076 8.11198 13.2227 9 13.2227C9.88802 13.2227 10.6471 12.9076 11.2773 12.2773C11.9076 11.6471 12.2227 10.888 12.2227 10C12.2227 9.11198 11.9076 8.35286 11.2773 7.72266C10.6471 7.09245 9.88802 6.77734 9 6.77734C8.11198 6.77734 7.35286 7.09245 6.72266 7.72266C6.09245 8.35286 5.77734 9.11198 5.77734 10C5.77734 10.888 6.09245 11.6471 6.72266 12.2773ZM15.832 10.9023L17.7656 12.4062C17.9661 12.5495 17.9948 12.75 17.8516 13.0078L16.0039 16.1875C15.8893 16.388 15.7031 16.4453 15.4453 16.3594L13.168 15.457C12.5664 15.8867 12.0508 16.1875 11.6211 16.3594L11.2773 18.7656C11.2201 19.0234 11.0768 19.1523 10.8477 19.1523H7.15234C6.92318 19.1523 6.77995 19.0234 6.72266 18.7656L6.37891 16.3594C5.83464 16.1302 5.31901 15.8294 4.83203 15.457L2.55469 16.3594C2.29688 16.4453 2.11068 16.388 1.99609 16.1875L0.148438 13.0078C0.00520833 12.75 0.0338542 12.5495 0.234375 12.4062L2.16797 10.9023C2.13932 10.7018 2.125 10.401 2.125 10C2.125 9.59896 2.13932 9.29818 2.16797 9.09766L0.234375 7.59375C0.0338542 7.45052 0.00520833 7.25 0.148438 6.99219L1.99609 3.8125C2.11068 3.61198 2.29688 3.55469 2.55469 3.64062L4.83203 4.54297C5.43359 4.11328 5.94922 3.8125 6.37891 3.64062L6.72266 1.23438C6.77995 0.976562 6.92318 0.847656 7.15234 0.847656H10.8477C11.0768 0.847656 11.2201 0.976562 11.2773 1.23438L11.6211 3.64062C12.1654 3.86979 12.681 4.17057 13.168 4.54297L15.4453 3.64062C15.7031 3.55469 15.8893 3.61198 16.0039 3.8125L17.8516 6.99219C17.9948 7.25 17.9661 7.45052 17.7656 7.59375L15.832 9.09766C15.8607 9.29818 15.875 9.59896 15.875 10C15.875 10.401 15.8607 10.7018 15.832 10.9023Z" fill="white"/>
</symbol>

<symbol id='icon-home-active' width="20" height="17" viewBox="0 0 20 17" fill="none" xmlns="http://www.w3.org/2000/svg">
<path d="M8.15234 16.3477H3.59766V9H0.847656L10 0.75L19.1523 9H16.4023V16.3477H11.8477V10.8477H8.15234V16.3477Z" fill="#4680FF" />
</symbol>

<symbol id='icon-call-active' width="18" height="18" viewBox="0 0 18 18" fill="none" xmlns="http://www.w3.org/2000/svg">
<path d="M16.3477 12.0938C16.6055 12.0938 16.8203 12.1797 16.9922 12.3516C17.1641 12.5234 17.25 12.7383 17.25 12.9961V16.1758C17.25 16.8919 16.9492 17.25 16.3477 17.25C12.0794 17.25 8.41276 15.7174 5.34766 12.6523C2.28255 9.58724 0.75 5.92057 0.75 1.65234C0.75 1.05078 1.10807 0.75 1.82422 0.75H5.00391C5.26172 0.75 5.47656 0.835938 5.64844 1.00781C5.82031 1.17969 5.90625 1.39453 5.90625 1.65234C5.90625 2.76953 6.07812 3.84375 6.42188 4.875C6.53646 5.2474 6.46484 5.5625 6.20703 5.82031L4.44531 7.36719C5.76302 10.1172 7.86849 12.194 10.7617 13.5977L12.1797 11.793C12.3516 11.6211 12.5664 11.5352 12.8242 11.5352C12.9674 11.5352 13.0677 11.5495 13.125 11.5781C14.1562 11.9219 15.2305 12.0938 16.3477 12.0938Z" fill="#4680FF"/>
</symbol>

<symbol id='icon-conference-active' width="22" height="16" viewBox="0 0 22 16" fill="none" xmlns="http://www.w3.org/2000/svg">
<path d="M20.1523 12.5977V6.15234H16.5V12.5977H20.1523ZM21.0977 4.34766C21.3555 4.34766 21.5703 4.43359 21.7422 4.60547C21.9141 4.77734 22 4.99219 22 5.25V14.4023C22 14.6602 21.9141 14.8893 21.7422 15.0898C21.5703 15.2617 21.3555 15.3477 21.0977 15.3477H15.5977C15.3398 15.3477 15.1107 15.2617 14.9102 15.0898C14.7383 14.8893 14.6523 14.6602 14.6523 14.4023V5.25C14.6523 4.99219 14.7383 4.77734 14.9102 4.60547C15.1107 4.43359 15.3398 4.34766 15.5977 4.34766H21.0977ZM3.65234 2.5V12.5977H12.8477V15.3477H0V12.5977H1.84766V2.5C1.84766 2.01302 2.01953 1.58333 2.36328 1.21094C2.73568 0.838542 3.16536 0.652344 3.65234 0.652344H20.1523V2.5H3.65234Z" fill="#4680FF"/>
</symbol>

<symbol id='icon-contacts-active' width="20" height="14" viewBox="0 0 20 14" fill="none" xmlns="http://www.w3.org/2000/svg">
<path d="M7.25 7.90234C7.88021 7.90234 8.61068 7.98828 9.44141 8.16016C7.98047 8.96224 7.25 10.0221 7.25 11.3398V13.4023H0.847656V11.125C0.847656 10.4661 1.23438 9.87891 2.00781 9.36328C2.8099 8.84766 3.68359 8.47526 4.62891 8.24609C5.57422 8.01693 6.44792 7.90234 7.25 7.90234ZM10.8164 9.53516C11.9622 9.07682 13.0651 8.84766 14.125 8.84766C15.1849 8.84766 16.2878 9.07682 17.4336 9.53516C18.5794 9.99349 19.1523 10.5951 19.1523 11.3398V13.4023H9.09766V11.3398C9.09766 10.5951 9.67057 9.99349 10.8164 9.53516ZM9.18359 5.28125C8.63932 5.82552 7.99479 6.09766 7.25 6.09766C6.50521 6.09766 5.86068 5.82552 5.31641 5.28125C4.77214 4.73698 4.5 4.09245 4.5 3.34766C4.5 2.60286 4.77214 1.95833 5.31641 1.41406C5.86068 0.869792 6.50521 0.597656 7.25 0.597656C7.99479 0.597656 8.63932 0.869792 9.18359 1.41406C9.72786 1.95833 10 2.60286 10 3.34766C10 4.09245 9.72786 4.73698 9.18359 5.28125ZM15.7148 6.35547C15.2852 6.78516 14.7552 7 14.125 7C13.4948 7 12.9505 6.78516 12.4922 6.35547C12.0625 5.89714 11.8477 5.35286 11.8477 4.72266C11.8477 4.09245 12.0625 3.54818 12.4922 3.08984C12.9505 2.63151 13.4948 2.40234 14.125 2.40234C14.7552 2.40234 15.2852 2.63151 15.7148 3.08984C16.1732 3.54818 16.4023 4.09245 16.4023 4.72266C16.4023 5.35286 16.1732 5.89714 15.7148 6.35547Z" fill="#4680FF"/>
</symbol>

<symbol id='icon-messages-active' width="20" height="20" viewBox="0 0 20 20" fill="none" xmlns="http://www.w3.org/2000/svg">
<path d="M14.5977 10C14.5977 10.2578 14.4974 10.4727 14.2969 10.6445C14.125 10.8164 13.9102 10.9023 13.6523 10.9023H4.5L0.847656 14.5977V1.75C0.847656 1.49219 0.933594 1.27734 1.10547 1.10547C1.27734 0.933594 1.49219 0.847656 1.75 0.847656H13.6523C13.9102 0.847656 14.125 0.933594 14.2969 1.10547C14.4974 1.27734 14.5977 1.49219 14.5977 1.75V10ZM18.25 4.5C18.5078 4.5 18.7227 4.58594 18.8945 4.75781C19.0664 4.92969 19.1523 5.14453 19.1523 5.40234V19.1523L15.5 15.5H5.40234C5.14453 15.5 4.92969 15.4141 4.75781 15.2422C4.58594 15.0703 4.5 14.8555 4.5 14.5977V12.75H16.4023V4.5H18.25Z" fill="#4680FF"/>
</symbol>

<symbol id="icon-recordings-active" style='white-space: normal' width="18" height="12" viewBox="0 0 18 12" fill="none" xmlns="http://www.w3.org/2000/svg">
<path d="M13.5977 4.625L17.25 0.972656V11.0273L13.5977 7.375V10.5977C13.5977 10.8555 13.4974 11.0703 13.2969 11.2422C13.125 11.4141 12.9102 11.5 12.6523 11.5H1.65234C1.39453 11.5 1.17969 11.4141 1.00781 11.2422C0.835938 11.0703 0.75 10.8555 0.75 10.5977V1.40234C0.75 1.14453 0.835938 0.929688 1.00781 0.757812C1.17969 0.585938 1.39453 0.5 1.65234 0.5H12.6523C12.9102 0.5 13.125 0.585938 13.2969 0.757812C13.4974 0.929688 13.5977 1.14453 13.5977 1.40234V4.625Z" fill="#4680FF"/>
</symbol>

<symbol id='icon-schedule-active' width="18" height="20" viewBox="0 0 18 20" fill="none" xmlns="http://www.w3.org/2000/svg">
<path d="M10.8477 12.8477V14.6523H4.40234V12.8477H10.8477ZM15.4023 17.4023V7.34766H2.59766V17.4023H15.4023ZM15.4023 2.75C15.8893 2.75 16.319 2.9362 16.6914 3.30859C17.0638 3.68099 17.25 4.11068 17.25 4.59766V17.4023C17.25 17.8893 17.0638 18.319 16.6914 18.6914C16.319 19.0638 15.8893 19.25 15.4023 19.25H2.59766C2.08203 19.25 1.63802 19.0781 1.26562 18.7344C0.921875 18.362 0.75 17.918 0.75 17.4023V4.59766C0.75 4.11068 0.921875 3.68099 1.26562 3.30859C1.63802 2.9362 2.08203 2.75 2.59766 2.75H3.5V0.902344H5.34766V2.75H12.6523V0.902344H14.5V2.75H15.4023ZM13.5977 9.15234V11H4.40234V9.15234H13.5977Z" fill="#4680FF"/>
</symbol>

<symbol id='icon-settings-active' width="18" height="20" viewBox="0 0 18 20" fill="none" xmlns="http://www.w3.org/2000/svg">
<path d="M6.72266 12.2773C7.35286 12.9076 8.11198 13.2227 9 13.2227C9.88802 13.2227 10.6471 12.9076 11.2773 12.2773C11.9076 11.6471 12.2227 10.888 12.2227 10C12.2227 9.11198 11.9076 8.35286 11.2773 7.72266C10.6471 7.09245 9.88802 6.77734 9 6.77734C8.11198 6.77734 7.35286 7.09245 6.72266 7.72266C6.09245 8.35286 5.77734 9.11198 5.77734 10C5.77734 10.888 6.09245 11.6471 6.72266 12.2773ZM15.832 10.9023L17.7656 12.4062C17.9661 12.5495 17.9948 12.75 17.8516 13.0078L16.0039 16.1875C15.8893 16.388 15.7031 16.4453 15.4453 16.3594L13.168 15.457C12.5664 15.8867 12.0508 16.1875 11.6211 16.3594L11.2773 18.7656C11.2201 19.0234 11.0768 19.1523 10.8477 19.1523H7.15234C6.92318 19.1523 6.77995 19.0234 6.72266 18.7656L6.37891 16.3594C5.83464 16.1302 5.31901 15.8294 4.83203 15.457L2.55469 16.3594C2.29688 16.4453 2.11068 16.388 1.99609 16.1875L0.148438 13.0078C0.00520833 12.75 0.0338542 12.5495 0.234375 12.4062L2.16797 10.9023C2.13932 10.7018 2.125 10.401 2.125 10C2.125 9.59896 2.13932 9.29818 2.16797 9.09766L0.234375 7.59375C0.0338542 7.45052 0.00520833 7.25 0.148438 6.99219L1.99609 3.8125C2.11068 3.61198 2.29688 3.55469 2.55469 3.64062L4.83203 4.54297C5.43359 4.11328 5.94922 3.8125 6.37891 3.64062L6.72266 1.23438C6.77995 0.976562 6.92318 0.847656 7.15234 0.847656H10.8477C11.0768 0.847656 11.2201 0.976562 11.2773 1.23438L11.6211 3.64062C12.1654 3.86979 12.681 4.17057 13.168 4.54297L15.4453 3.64062C15.7031 3.55469 15.8893 3.61198 16.0039 3.8125L17.8516 6.99219C17.9948 7.25 17.9661 7.45052 17.7656 7.59375L15.832 9.09766C15.8607 9.29818 15.875 9.59896 15.875 10C15.875 10.401 15.8607 10.7018 15.832 10.9023Z" fill="#4680FF"/>
</symbol>

<symbol id='icon-search' width="14" height="14" viewBox="0 0 14 14" fill="none" xmlns="http://www.w3.org/2000/svg">
<path d="M2.74609 7.52734C3.40234 8.18359 4.19922 8.51172 5.13672 8.51172C6.07422 8.51172 6.87109 8.18359 7.52734 7.52734C8.18359 6.87109 8.51172 6.07422 8.51172 5.13672C8.51172 4.19922 8.18359 3.40234 7.52734 2.74609C6.87109 2.08984 6.07422 1.76172 5.13672 1.76172C4.19922 1.76172 3.40234 2.08984 2.74609 2.74609C2.08984 3.40234 1.76172 4.19922 1.76172 5.13672C1.76172 6.07422 2.08984 6.87109 2.74609 7.52734ZM9.63672 8.51172L13.3633 12.2383L12.2383 13.3633L8.51172 9.63672V9.03906L8.30078 8.82812C7.41016 9.60156 6.35547 9.98828 5.13672 9.98828C3.77734 9.98828 2.61719 9.51953 1.65625 8.58203C0.71875 7.64453 0.25 6.49609 0.25 5.13672C0.25 3.77734 0.71875 2.62891 1.65625 1.69141C2.61719 0.730469 3.77734 0.25 5.13672 0.25C6.49609 0.25 7.64453 0.730469 8.58203 1.69141C9.51953 2.62891 9.98828 3.77734 9.98828 5.13672C9.98828 5.62891 9.87109 6.19141 9.63672 6.82422C9.40234 7.43359 9.13281 7.92578 8.82812 8.30078L9.03906 8.51172H9.63672Z" fill="#8083A3"/>
</symbol>

<symbol id='icon-join-meeting' width="65" height="56" viewBox="0 0 65 56" fill="none" xmlns="http://www.w3.org/2000/svg">
<rect x="0.00927734" width="64.0367" height="56" rx="8" fill="white" fill-opacity="0.1"/>
<path opacity="0.4" fill-rule="evenodd" clip-rule="evenodd" d="M24.2608 16.9963C24.2608 16.4458 23.8062 16 23.2462 16H23.2448L21.0728 16.0013C18.1515 16.0039 15.7742 18.3378 15.7742 21.2037V23.6827C15.7742 24.2318 16.2288 24.679 16.7888 24.679C17.3488 24.679 17.8048 24.2318 17.8048 23.6827V21.2037C17.8048 19.4347 19.2715 17.9952 21.0742 17.9926L23.2462 17.9913C23.8075 17.9913 24.2608 17.5454 24.2608 16.9963ZM34.934 16.0004H32.81C32.25 16.0004 31.7954 16.4462 31.7954 16.9967C31.7954 17.5458 32.25 17.9904 32.81 17.9904H34.934C36.7434 17.9904 38.2154 19.4338 38.2154 21.208V23.6831C38.2154 24.2322 38.67 24.6794 39.23 24.6794C39.7914 24.6794 40.2447 24.2322 40.2447 23.6831V21.208C40.2447 18.3355 37.8634 16.0004 34.934 16.0004ZM24.3272 20.9902H31.6926C32.4992 20.9902 33.2739 21.3079 33.8379 21.8741C34.4059 22.4454 34.7206 23.2129 34.7192 24.0118V25.6723C34.7126 25.8671 34.5539 26.0253 34.3552 26.0305H21.6619C21.4646 26.024 21.3059 25.8658 21.3019 25.6723V24.0118C21.2872 22.3578 22.6419 21.0072 24.3272 20.9902Z" fill="white"/>
<path d="M41.6612 28.0549H14.3585C13.7985 28.0549 13.3425 28.5008 13.3425 29.0512C13.3425 29.6004 13.7985 30.0449 14.3585 30.0449H15.7732V34.7962C15.7732 37.6622 18.1519 39.996 21.0732 39.9986L23.2452 40C23.8065 40 24.2599 39.5541 24.2612 39.0037C24.2612 38.4545 23.8065 38.0087 23.2465 38.0087L21.0759 38.0074C19.2719 38.0048 17.8039 36.5652 17.8039 34.7962V30.0449H21.3012V31.3667C21.2879 33.0207 22.6412 34.3726 24.3265 34.3883H31.6919C33.3785 34.3726 34.7319 33.0207 34.7185 31.3667V30.0449H38.2159V34.791C38.2159 36.5665 36.7439 38.0087 34.9345 38.0087H32.8105C32.2492 38.0087 31.7945 38.4545 31.7945 39.0037C31.7945 39.5541 32.2492 40 32.8105 40H34.9345C37.8625 40 40.2452 37.6648 40.2452 34.791V30.0449H41.6612C42.2212 30.0449 42.6759 29.6004 42.6759 29.0512C42.6759 28.5008 42.2212 28.0549 41.6612 28.0549Z" fill="white"/>
</symbol>

<symbol id='icon-new-meeting' width="65" height="56" viewBox="0 0 65 56" fill="none" xmlns="http://www.w3.org/2000/svg">
<rect x="0.305176" width="64.0367" height="56" rx="8" fill="white" fill-opacity="0.1"/>
<path opacity="0.4" d="M40.7466 21.9234C40.1879 21.5714 39.5012 21.5403 38.9159 21.8381L36.9399 22.8357C36.2092 23.2039 35.7559 23.9484 35.7559 24.7768V32.5549C35.7559 33.3833 36.2092 34.1264 36.9399 34.4973L38.9146 35.4936C39.1826 35.6317 39.4692 35.698 39.7559 35.698C40.0999 35.698 40.4412 35.6005 40.7466 35.4097C41.3052 35.0591 41.6386 34.4513 41.6386 33.7853V23.5491C41.6386 22.8831 41.3052 22.2753 40.7466 21.9234Z" fill="white"/>
<path d="M28.1787 38.6666H20.456C17.2266 38.6666 14.9719 36.4399 14.9719 33.2521V24.0812C14.9719 20.892 17.2266 18.6666 20.456 18.6666H28.1787C31.4081 18.6666 33.6628 20.892 33.6628 24.0812V33.2521C33.6628 36.4399 31.4081 38.6666 28.1787 38.6666Z" fill="white"/>
</symbol>

<symbol id='icon-schedule-meeting' width="68" height="58" viewBox="0 0 68 58" fill="none" xmlns="http://www.w3.org/2000/svg">
<rect x="0.713623" width="66.3237" height="58" rx="8" fill="white" fill-opacity="0.1"/>
<path fill-rule="evenodd" clip-rule="evenodd" d="M16.9636 35.8992V25.1141H42.4636V35.9856C42.4636 40.4326 39.6645 43.1667 35.1859 43.1667H24.2273C19.7907 43.1667 16.9636 40.3759 16.9636 35.8992ZM23.9894 32.4142C23.3456 32.444 22.8138 31.9326 22.7858 31.2823C22.7858 30.6306 23.2896 30.0923 23.9334 30.0626C24.5632 30.0626 25.0811 30.5598 25.0951 31.1959C25.1231 31.849 24.6192 32.3873 23.9894 32.4142ZM29.7416 32.4142C29.0978 32.444 28.566 31.9326 28.538 31.2823C28.538 30.6306 29.0418 30.0923 29.6856 30.0626C30.3154 30.0626 30.8333 30.5598 30.8473 31.1959C30.8753 31.849 30.3714 32.3873 29.7416 32.4142ZM35.4518 37.6276C34.808 37.6134 34.2902 37.0751 34.2902 36.4234C34.2762 35.7717 34.794 35.2348 35.4378 35.2206H35.4518C36.1096 35.2206 36.6414 35.759 36.6414 36.4234C36.6414 37.0892 36.1096 37.6276 35.4518 37.6276ZM28.538 36.4234C28.566 37.0751 29.0978 37.5865 29.7416 37.5567C30.3714 37.5298 30.8753 36.9915 30.8473 36.3398C30.8333 35.7023 30.3154 35.2051 29.6856 35.2051C29.0418 35.2348 28.538 35.7717 28.538 36.4234ZM22.7718 36.4234C22.7998 37.0751 23.3316 37.5865 23.9754 37.5567C24.6052 37.5298 25.1091 36.9915 25.0811 36.3398C25.0671 35.7023 24.5492 35.2051 23.9194 35.2051C23.2756 35.2348 22.7718 35.7717 22.7718 36.4234ZM34.3042 31.2681C34.3042 30.6165 34.808 30.0923 35.4518 30.0781C36.0816 30.0781 36.5855 30.5867 36.6135 31.2115C36.6275 31.8631 36.1236 32.4015 35.4938 32.4142C34.85 32.4284 34.3182 31.9326 34.3042 31.2823V31.2681Z" fill="white"/>
<path opacity="0.4" d="M16.9683 25.114C16.9865 24.2824 17.0564 22.632 17.188 22.1008C17.8598 19.113 20.1411 17.2147 23.402 16.9441H36.0261C39.2591 17.2288 41.5683 19.1399 42.2401 22.1008C42.3703 22.6178 42.4403 24.281 42.4585 25.114H16.9683Z" fill="white"/>
<path d="M24.4788 21.3359C25.0946 21.3359 25.5564 20.8698 25.5564 20.245V15.9256C25.5564 15.3009 25.0946 14.8334 24.4788 14.8334C23.863 14.8334 23.4011 15.3009 23.4011 15.9256V20.245C23.4011 20.8698 23.863 21.3359 24.4788 21.3359Z" fill="white"/>
<path d="M34.948 21.3359C35.5498 21.3359 36.0257 20.8698 36.0257 20.245V15.9256C36.0257 15.3009 35.5498 14.8334 34.948 14.8334C34.3322 14.8334 33.8704 15.3009 33.8704 15.9256V20.245C33.8704 20.8698 34.3322 21.3359 34.948 21.3359Z" fill="white"/>
</symbol>

<symbol id='icon-calender-small' width="14" height="16" viewBox="0 0 14 16" fill="none" xmlns="http://www.w3.org/2000/svg">
<path opacity="0.5" d="M12.2383 13.7383V5.51172H1.76172V13.7383H12.2383ZM9.98828 0.238281H11.5V1.75H12.2383C12.6367 1.75 12.9883 1.90234 13.293 2.20703C13.5977 2.51172 13.75 2.86328 13.75 3.26172V13.7383C13.75 14.1367 13.5977 14.4883 13.293 14.793C12.9883 15.0977 12.6367 15.25 12.2383 15.25H1.76172C1.33984 15.25 0.976562 15.0977 0.671875 14.793C0.390625 14.4883 0.25 14.1367 0.25 13.7383V3.26172C0.25 2.86328 0.390625 2.51172 0.671875 2.20703C0.976562 1.90234 1.33984 1.75 1.76172 1.75H2.5V0.238281H4.01172V1.75H9.98828V0.238281ZM10.7617 8.5V12.2617H7V8.5H10.7617Z" fill="#42424D"/>
</symbol >

<symbol id='icon-meeting-time' width="16" height="16" viewBox="0 0 16 16" fill="none" xmlns="http://www.w3.org/2000/svg">
<path d="M8.38672 4.23828V8.17578L11.7617 10.1797L11.1992 11.1289L7.26172 8.73828V4.23828H8.38672ZM3.74609 12.2539C4.94141 13.4258 6.35938 14.0117 8 14.0117C9.64062 14.0117 11.0469 13.4258 12.2188 12.2539C13.4141 11.0586 14.0117 9.64062 14.0117 8C14.0117 6.35937 13.4141 4.95312 12.2188 3.78125C11.0469 2.58594 9.64062 1.98828 8 1.98828C6.35938 1.98828 4.94141 2.58594 3.74609 3.78125C2.57422 4.95312 1.98828 6.35937 1.98828 8C1.98828 9.64062 2.57422 11.0586 3.74609 12.2539ZM2.69141 2.72656C4.16797 1.25 5.9375 0.511719 8 0.511719C10.0625 0.511719 11.8203 1.25 13.2734 2.72656C14.75 4.17969 15.4883 5.9375 15.4883 8C15.4883 10.0625 14.75 11.832 13.2734 13.3086C11.8203 14.7617 10.0625 15.4883 8 15.4883C5.9375 15.4883 4.16797 14.7617 2.69141 13.3086C1.23828 11.832 0.511719 10.0625 0.511719 8C0.511719 5.9375 1.23828 4.17969 2.69141 2.72656Z" fill="#6B59CC"/>
</symbol>

<symbol id='icon-times' width="12" height="12" viewBox="0 0 12 12" fill="none" xmlns="http://www.w3.org/2000/svg">
<path d="M11.2383 1.81641L7.05469 6L11.2383 10.1836L10.1836 11.2383L6 7.05469L1.81641 11.2383L0.761719 10.1836L4.94531 6L0.761719 1.81641L1.81641 0.761719L6 4.94531L10.1836 0.761719L11.2383 1.81641Z" fill="#8083A3"/>
</symbol>

<symbol id='icon-link' width="16" height="8" viewBox="0 0 16 8" fill="none" xmlns="http://www.w3.org/2000/svg">
<path d="M11.7617 0.238281C12.793 0.238281 13.6719 0.613281 14.3984 1.36328C15.125 2.08984 15.4883 2.96875 15.4883 4C15.4883 5.03125 15.125 5.92188 14.3984 6.67188C13.6719 7.39844 12.793 7.76172 11.7617 7.76172H8.73828V6.32031H11.7617C12.3945 6.32031 12.9336 6.09766 13.3789 5.65234C13.8477 5.18359 14.082 4.63281 14.082 4C14.082 3.36719 13.8477 2.82813 13.3789 2.38281C12.9336 1.91406 12.3945 1.67969 11.7617 1.67969H8.73828V0.238281H11.7617ZM5.01172 4.73828V3.26172H10.9883V4.73828H5.01172ZM2.58594 2.38281C2.14062 2.82813 1.91797 3.36719 1.91797 4C1.91797 4.63281 2.14062 5.18359 2.58594 5.65234C3.05469 6.09766 3.60547 6.32031 4.23828 6.32031H7.26172V7.76172H4.23828C3.20703 7.76172 2.32812 7.39844 1.60156 6.67188C0.875 5.92188 0.511719 5.03125 0.511719 4C0.511719 2.96875 0.875 2.08984 1.60156 1.36328C2.32812 0.613281 3.20703 0.238281 4.23828 0.238281H7.26172V1.67969H4.23828C3.60547 1.67969 3.05469 1.91406 2.58594 2.38281Z" fill="#1D1D24"/>
</symbol>

<symbol id='icon-check' width="16" height="16" viewBox="0 0 16 16" fill="none" xmlns="http://www.w3.org/2000/svg">
<path d="M6.48828 11.7617L13.2383 5.01172L12.1836 3.92188L6.48828 9.61719L3.81641 6.94531L2.76172 8L6.48828 11.7617ZM2.69141 2.72656C4.16797 1.25 5.9375 0.511719 8 0.511719C10.0625 0.511719 11.8203 1.25 13.2734 2.72656C14.75 4.17969 15.4883 5.9375 15.4883 8C15.4883 10.0625 14.75 11.832 13.2734 13.3086C11.8203 14.7617 10.0625 15.4883 8 15.4883C5.9375 15.4883 4.16797 14.7617 2.69141 13.3086C1.23828 11.832 0.511719 10.0625 0.511719 8C0.511719 5.9375 1.23828 4.17969 2.69141 2.72656Z" fill="#8083A3"/>
</symbol>

<symbol id='icon-user' width="14" height="14" viewBox="0 0 14 14" fill="none" xmlns="http://www.w3.org/2000/svg">
<path d="M3.02734 9.35547C4.41016 8.79297 5.73438 8.51172 7 8.51172C8.26562 8.51172 9.57812 8.79297 10.9375 9.35547C12.3203 9.89453 13.0117 10.6094 13.0117 11.5V13.0117H0.988281V11.5C0.988281 10.6094 1.66797 9.89453 3.02734 9.35547ZM9.10938 6.12109C8.52344 6.70703 7.82031 7 7 7C6.17969 7 5.47656 6.70703 4.89062 6.12109C4.30469 5.53516 4.01172 4.83203 4.01172 4.01172C4.01172 3.19141 4.30469 2.48828 4.89062 1.90234C5.47656 1.29297 6.17969 0.988281 7 0.988281C7.82031 0.988281 8.52344 1.29297 9.10938 1.90234C9.69531 2.48828 9.98828 3.19141 9.98828 4.01172C9.98828 4.83203 9.69531 5.53516 9.10938 6.12109Z" fill="#8083A3"/>
</symbol>

<symbol id='password-eye' width="24" height="24" viewBox="0 0 24 24" fill="none" xmlns="http://www.w3.org/2000/svg">
<path d="M12.0002 3C17.3922 3 21.8782 6.88 22.8192 12C21.8792 17.12 17.3922 21 12.0002 21C6.60815 21 2.12215 17.12 1.18115 12C2.12115 6.88 6.60815 3 12.0002 3ZM12.0002 19C14.0396 18.9996 16.0185 18.3068 17.613 17.0352C19.2075 15.7635 20.3231 13.9883 20.7772 12C20.3214 10.0133 19.2051 8.24 17.6108 6.97003C16.0165 5.70005 14.0385 5.00853 12.0002 5.00853C9.96185 5.00853 7.98384 5.70005 6.38953 6.97003C4.79521 8.24 3.67892 10.0133 3.22315 12C3.67725 13.9883 4.79283 15.7635 6.3873 17.0352C7.98177 18.3068 9.96068 18.9996 12.0002 19ZM12.0002 16.5C10.8067 16.5 9.66209 16.0259 8.81817 15.182C7.97426 14.3381 7.50015 13.1935 7.50015 12C7.50015 10.8065 7.97426 9.66193 8.81817 8.81802C9.66209 7.97411 10.8067 7.5 12.0002 7.5C13.1936 7.5 14.3382 7.97411 15.1821 8.81802C16.026 9.66193 16.5002 10.8065 16.5002 12C16.5002 13.1935 16.026 14.3381 15.1821 15.182C14.3382 16.0259 13.1936 16.5 12.0002 16.5ZM12.0002 14.5C12.6632 14.5 13.2991 14.2366 13.7679 13.7678C14.2368 13.2989 14.5002 12.663 14.5002 12C14.5002 11.337 14.2368 10.7011 13.7679 10.2322C13.2991 9.76339 12.6632 9.5 12.0002 9.5C11.3371 9.5 10.7012 9.76339 10.2324 10.2322C9.76355 10.7011 9.50015 11.337 9.50015 12C9.50015 12.663 9.76355 13.2989 10.2324 13.7678C10.7012 14.2366 11.3371 14.5 12.0002 14.5Z" fill="#8083A3"/>
</symbol>

<symbol id='password-eye-hide' width="24" height="24" viewBox="0 0 24 24" fill="none" xmlns="http://www.w3.org/2000/svg">
<path d="M17.8822 19.297C16.1234 20.4126 14.0829 21.0033 12.0002 21C6.60815 21 2.12215 17.12 1.18115 12C1.61118 9.67072 2.78278 7.5429 4.52115 5.93401L1.39215 2.80801L2.80715 1.39301L22.6062 21.193L21.1912 22.607L17.8812 19.297H17.8822ZM5.93515 7.35001C4.57616 8.5856 3.62947 10.2088 3.22315 12C3.53545 13.3665 4.16242 14.6411 5.05416 15.7226C5.94589 16.804 7.07778 17.6624 8.3597 18.2293C9.64163 18.7962 11.0382 19.0561 12.4382 18.9881C13.8383 18.9202 15.2031 18.5264 16.4242 17.838L14.3962 15.81C13.5328 16.3538 12.5104 16.5881 11.4964 16.4744C10.4824 16.3608 9.53719 15.9059 8.81572 15.1844C8.09425 14.463 7.63938 13.5177 7.52571 12.5038C7.41205 11.4898 7.64634 10.4673 8.19015 9.60401L5.93515 7.35001ZM12.9142 14.328L9.67215 11.086C9.49422 11.5389 9.45234 12.034 9.55166 12.5104C9.65098 12.9867 9.88717 13.4238 10.2313 13.7679C10.5754 14.112 11.0124 14.3482 11.4888 14.4475C11.9652 14.5468 12.4602 14.5049 12.9132 14.327L12.9142 14.328ZM20.8072 16.592L19.3762 15.162C20.0446 14.2093 20.5205 13.1352 20.7772 12C20.5054 10.8097 19.9944 9.68715 19.2753 8.7005C18.5562 7.71385 17.6439 6.88373 16.594 6.26061C15.5441 5.63749 14.3784 5.23437 13.1679 5.07577C11.9573 4.91717 10.7272 5.00638 9.55215 5.33801L7.97415 3.76001C9.22115 3.27001 10.5802 3.00001 12.0002 3.00001C17.3922 3.00001 21.8782 6.88001 22.8192 12C22.5127 13.6657 21.824 15.2376 20.8072 16.592ZM11.7232 7.50801C12.3597 7.46867 12.9973 7.56507 13.5937 7.79082C14.1901 8.01657 14.7318 8.36652 15.1827 8.81746C15.6336 9.2684 15.9836 9.81003 16.2093 10.4065C16.4351 11.0029 16.5315 11.6405 16.4922 12.277L11.7222 7.50801H11.7232Z" fill="#8083A3"/>
</symbol>



<symbol id='icon-lens' width="14" height="14" viewBox="0 0 14 14" fill="none" xmlns="http://www.w3.org/2000/svg">
<path d="M2.74609 7.52734C3.40234 8.18359 4.19922 8.51172 5.13672 8.51172C6.07422 8.51172 6.87109 8.18359 7.52734 7.52734C8.18359 6.87109 8.51172 6.07422 8.51172 5.13672C8.51172 4.19922 8.18359 3.40234 7.52734 2.74609C6.87109 2.08984 6.07422 1.76172 5.13672 1.76172C4.19922 1.76172 3.40234 2.08984 2.74609 2.74609C2.08984 3.40234 1.76172 4.19922 1.76172 5.13672C1.76172 6.07422 2.08984 6.87109 2.74609 7.52734ZM9.63672 8.51172L13.3633 12.2383L12.2383 13.3633L8.51172 9.63672V9.03906L8.30078 8.82812C7.41016 9.60156 6.35547 9.98828 5.13672 9.98828C3.77734 9.98828 2.61719 9.51953 1.65625 8.58203C0.71875 7.64453 0.25 6.49609 0.25 5.13672C0.25 3.77734 0.71875 2.62891 1.65625 1.69141C2.61719 0.730469 3.77734 0.25 5.13672 0.25C6.49609 0.25 7.64453 0.730469 8.58203 1.69141C9.51953 2.62891 9.98828 3.77734 9.98828 5.13672C9.98828 6.35547 9.60156 7.41016 8.82812 8.30078L9.03906 8.51172H9.63672Z" fill="#1D1D24"/>
</symbol>

<symbol id='icon-share' width="17" height="19" viewBox="0 0 17 19" fill="none" xmlns="http://www.w3.org/2000/svg">
<path d="M14.8203 16.5V4.82031H5.67969V16.5H14.8203ZM14.8203 3.17969C15.263 3.17969 15.6536 3.34896 15.9922 3.6875C16.3307 4 16.5 4.3776 16.5 4.82031V16.5C16.5 16.9427 16.3307 17.3333 15.9922 17.6719C15.6536 18.0104 15.263 18.1797 14.8203 18.1797H5.67969C5.23698 18.1797 4.84635 18.0104 4.50781 17.6719C4.16927 17.3333 4 16.9427 4 16.5V4.82031C4 4.3776 4.16927 4 4.50781 3.6875C4.84635 3.34896 5.23698 3.17969 5.67969 3.17969H14.8203ZM12.3203 -0.179688V1.5H2.32031V13.1797H0.679688V1.5C0.679688 1.05729 0.835938 0.666667 1.14844 0.328125C1.48698 -0.0104167 1.8776 -0.179688 2.32031 -0.179688H12.3203Z" fill="#1A1C1D"/>
</symbol>

<symbol id='icon-user-plus' width="18" height="14" viewBox="0 0 18 14" fill="none" xmlns="http://www.w3.org/2000/svg">
<path d="M7.27734 9.35547C8.66016 8.79297 9.98438 8.51172 11.25 8.51172C12.5156 8.51172 13.8281 8.79297 15.1875 9.35547C16.5703 9.89453 17.2617 10.6094 17.2617 11.5V13.0117H5.23828V11.5C5.23828 10.6094 5.91797 9.89453 7.27734 9.35547ZM4.5 5.48828H6.75V7H4.5V9.25H2.98828V7H0.738281V5.48828H2.98828V3.23828H4.5V5.48828ZM13.3594 6.12109C12.7734 6.70703 12.0703 7 11.25 7C10.4297 7 9.72656 6.70703 9.14062 6.12109C8.55469 5.53516 8.26172 4.83203 8.26172 4.01172C8.26172 3.19141 8.55469 2.48828 9.14062 1.90234C9.72656 1.29297 10.4297 0.988281 11.25 0.988281C12.0703 0.988281 12.7734 1.29297 13.3594 1.90234C13.9453 2.48828 14.2383 3.19141 14.2383 4.01172C14.2383 4.83203 13.9453 5.53516 13.3594 6.12109Z" fill="#4680FF"/>
</symbol>

<symbol id='icon-comment' width="16" height="16" viewBox="0 0 16 16" fill="none" xmlns="http://www.w3.org/2000/svg">
<path d="M12.5 5.01172V3.5H3.5V5.01172H12.5ZM9.51172 9.51172V8H3.5V9.51172H9.51172ZM3.5 5.75V7.26172H12.5V5.75H3.5ZM14.0117 0.511719C14.4102 0.511719 14.75 0.664062 15.0312 0.96875C15.3359 1.25 15.4883 1.58984 15.4883 1.98828V10.9883C15.4883 11.3867 15.3359 11.7383 15.0312 12.043C14.75 12.3477 14.4102 12.5 14.0117 12.5H3.5L0.511719 15.4883V1.98828C0.511719 1.58984 0.652344 1.25 0.933594 0.96875C1.23828 0.664062 1.58984 0.511719 1.98828 0.511719H14.0117Z" fill="#4680FF"/>
</symbol>

<symbol id='icon-bars' width="14" height="8" viewBox="0 0 14 8" fill="none" xmlns="http://www.w3.org/2000/svg">
<path d="M3.23828 0.238281H13.75V1.75H3.23828V0.238281ZM0.25 7.76172V6.25H10.7617V7.76172H0.25ZM1.76172 4.73828V3.26172H12.2383V4.73828H1.76172Z" fill="#4680FF"/>
</symbol>

<symbol id='icon-mic' width="12" height="15" viewBox="0 0 12 15" fill="none" xmlns="http://www.w3.org/2000/svg">
<path d="M9.97266 7.26172H11.2383C11.2383 8.52734 10.793 9.64062 9.90234 10.6016C9.03516 11.5391 7.98047 12.1016 6.73828 12.2891V14.75H5.26172V12.2891C4.01953 12.1016 2.95312 11.5391 2.0625 10.6016C1.19531 9.64062 0.761719 8.52734 0.761719 7.26172H2.02734C2.02734 8.36328 2.41406 9.27734 3.1875 10.0039C3.98438 10.707 4.92188 11.0586 6 11.0586C7.07812 11.0586 8.00391 10.707 8.77734 10.0039C9.57422 9.27734 9.97266 8.36328 9.97266 7.26172ZM7.58203 8.84375C7.13672 9.28906 6.60938 9.51172 6 9.51172C5.39062 9.51172 4.86328 9.28906 4.41797 8.84375C3.97266 8.39844 3.75 7.87109 3.75 7.26172V2.76172C3.75 2.15234 3.97266 1.625 4.41797 1.17969C4.86328 0.734375 5.39062 0.511719 6 0.511719C6.60938 0.511719 7.13672 0.734375 7.58203 1.17969C8.02734 1.625 8.25 2.15234 8.25 2.76172V7.26172C8.25 7.87109 8.02734 8.39844 7.58203 8.84375Z" fill="#4680FF"/>
</symbol>

<symbol id='icon-camera' width="14" height="10" viewBox="0 0 14 10" fill="none" xmlns="http://www.w3.org/2000/svg">
<path d="M10.7617 3.875L13.75 0.886719V9.11328L10.7617 6.125V8.76172C10.7617 8.97266 10.6797 9.14844 10.5156 9.28906C10.375 9.42969 10.1992 9.5 9.98828 9.5H0.988281C0.777344 9.5 0.601562 9.42969 0.460938 9.28906C0.320312 9.14844 0.25 8.97266 0.25 8.76172V1.23828C0.25 1.02734 0.320312 0.851562 0.460938 0.710938C0.601562 0.570312 0.777344 0.5 0.988281 0.5H9.98828C10.1992 0.5 10.375 0.570312 10.5156 0.710938C10.6797 0.851562 10.7617 1.02734 10.7617 1.23828V3.875Z" fill="#4680FF"/>
</symbol>

<symbol id='icon-phone-down' width="19" height="7" viewBox="0 0 19 7" fill="none" xmlns="http://www.w3.org/2000/svg">
<path d="M9.04395 1.75C7.8252 1.75 6.67676 1.92578 5.59863 2.27734V4.59766C5.59863 4.94922 5.45801 5.18359 5.17676 5.30078C4.42676 5.65234 3.75879 6.10938 3.17285 6.67188C3.03223 6.8125 2.85645 6.88281 2.64551 6.88281C2.43457 6.88281 2.25879 6.8125 2.11816 6.67188L0.254883 4.80859C0.114258 4.66797 0.0439453 4.49219 0.0439453 4.28125C0.0439453 4.07031 0.114258 3.89453 0.254883 3.75391C2.71582 1.41016 5.64551 0.238281 9.04395 0.238281C12.4424 0.238281 15.3721 1.41016 17.833 3.75391C17.9736 3.89453 18.0439 4.07031 18.0439 4.28125C18.0439 4.49219 17.9736 4.66797 17.833 4.80859L15.9697 6.67188C15.8291 6.8125 15.6533 6.88281 15.4424 6.88281C15.2314 6.88281 15.0557 6.8125 14.915 6.67188C14.3291 6.10938 13.6611 5.65234 12.9111 5.30078C12.6299 5.18359 12.4893 4.96094 12.4893 4.63281V2.3125C11.3174 1.9375 10.1689 1.75 9.04395 1.75Z" fill="#FAFBFF"/>
</symbol>

<symbol id='icon-settings-solid' width="16" height="16" viewBox="0 0 16 16" fill="none" xmlns="http://www.w3.org/2000/svg">
<path d="M6.13672 9.86328C6.65234 10.3789 7.27344 10.6367 8 10.6367C8.72656 10.6367 9.34766 10.3789 9.86328 9.86328C10.3789 9.34766 10.6367 8.72656 10.6367 8C10.6367 7.27344 10.3789 6.65234 9.86328 6.13672C9.34766 5.62109 8.72656 5.36328 8 5.36328C7.27344 5.36328 6.65234 5.62109 6.13672 6.13672C5.62109 6.65234 5.36328 7.27344 5.36328 8C5.36328 8.72656 5.62109 9.34766 6.13672 9.86328ZM13.5898 8.73828L15.1719 9.96875C15.3359 10.0859 15.3594 10.25 15.2422 10.4609L13.7305 13.0625C13.6367 13.2266 13.4844 13.2734 13.2734 13.2031L11.4102 12.4648C10.918 12.8164 10.4961 13.0625 10.1445 13.2031L9.86328 15.1719C9.81641 15.3828 9.69922 15.4883 9.51172 15.4883H6.48828C6.30078 15.4883 6.18359 15.3828 6.13672 15.1719L5.85547 13.2031C5.41016 13.0156 4.98828 12.7695 4.58984 12.4648L2.72656 13.2031C2.51562 13.2734 2.36328 13.2266 2.26953 13.0625L0.757812 10.4609C0.640625 10.25 0.664062 10.0859 0.828125 9.96875L2.41016 8.73828C2.38672 8.57422 2.375 8.32812 2.375 8C2.375 7.67188 2.38672 7.42578 2.41016 7.26172L0.828125 6.03125C0.664062 5.91406 0.640625 5.75 0.757812 5.53906L2.26953 2.9375C2.36328 2.77344 2.51562 2.72656 2.72656 2.79688L4.58984 3.53516C5.08203 3.18359 5.50391 2.9375 5.85547 2.79688L6.13672 0.828125C6.18359 0.617188 6.30078 0.511719 6.48828 0.511719H9.51172C9.69922 0.511719 9.81641 0.617188 9.86328 0.828125L10.1445 2.79688C10.5898 2.98437 11.0117 3.23047 11.4102 3.53516L13.2734 2.79688C13.4844 2.72656 13.6367 2.77344 13.7305 2.9375L15.2422 5.53906C15.3594 5.75 15.3359 5.91406 15.1719 6.03125L13.5898 7.26172C13.6133 7.42578 13.625 7.67188 13.625 8C13.625 8.32812 13.6133 8.57422 13.5898 8.73828Z" fill="#4680FF"/>
</symbol>

<symbol id='icon-comment-double' width="16" height="16" viewBox="0 0 16 16" fill="none" xmlns="http://www.w3.org/2000/svg">
<path d="M11.7617 8C11.7617 8.21094 11.6797 8.38672 11.5156 8.52734C11.375 8.66797 11.1992 8.73828 10.9883 8.73828H3.5L0.511719 11.7617V1.25C0.511719 1.03906 0.582031 0.863281 0.722656 0.722656C0.863281 0.582031 1.03906 0.511719 1.25 0.511719H10.9883C11.1992 0.511719 11.375 0.582031 11.5156 0.722656C11.6797 0.863281 11.7617 1.03906 11.7617 1.25V8ZM14.75 3.5C14.9609 3.5 15.1367 3.57031 15.2773 3.71094C15.418 3.85156 15.4883 4.02734 15.4883 4.23828V15.4883L12.5 12.5H4.23828C4.02734 12.5 3.85156 12.4297 3.71094 12.2891C3.57031 12.1484 3.5 11.9727 3.5 11.7617V10.25H13.2383V3.5H14.75Z" fill="#8083A3"/>
</symbol>

<symbol id='icon-phone-right' width="14" height="14" viewBox="0 0 14 14" fill="none" xmlns="http://www.w3.org/2000/svg">
<path d="M2.95703 6.08594C4.08203 8.26562 5.73438 9.91797 7.91406 11.043L9.56641 9.39062C9.80078 9.15625 10.0586 9.09766 10.3398 9.21484C11.1836 9.49609 12.0742 9.63672 13.0117 9.63672C13.2227 9.63672 13.3984 9.70703 13.5391 9.84766C13.6797 9.98828 13.75 10.1641 13.75 10.375V13.0117C13.75 13.2227 13.6797 13.3984 13.5391 13.5391C13.3984 13.6797 13.2227 13.75 13.0117 13.75C9.49609 13.75 6.48438 12.5078 3.97656 10.0234C1.49219 7.51562 0.25 4.50391 0.25 0.988281C0.25 0.777344 0.320312 0.601562 0.460938 0.460938C0.601562 0.320312 0.777344 0.25 0.988281 0.25H3.625C3.83594 0.25 4.01172 0.320312 4.15234 0.460938C4.29297 0.601562 4.36328 0.777344 4.36328 0.988281C4.36328 1.92578 4.50391 2.81641 4.78516 3.66016C4.87891 3.96484 4.82031 4.22266 4.60938 4.43359L2.95703 6.08594Z" fill="#8083A3"/>
</symbol>

<symbol id='icon-tri-dot' width="14" height="4" viewBox="0 0 14 4" fill="none" xmlns="http://www.w3.org/2000/svg">
<path d="M5.94531 0.945312C6.25 0.640625 6.60156 0.488281 7 0.488281C7.39844 0.488281 7.75 0.640625 8.05469 0.945312C8.35938 1.25 8.51172 1.60156 8.51172 2C8.51172 2.39844 8.35938 2.75 8.05469 3.05469C7.75 3.35938 7.39844 3.51172 7 3.51172C6.60156 3.51172 6.25 3.35938 5.94531 3.05469C5.64062 2.75 5.48828 2.39844 5.48828 2C5.48828 1.60156 5.64062 1.25 5.94531 0.945312ZM10.4453 0.945312C10.75 0.640625 11.1016 0.488281 11.5 0.488281C11.8984 0.488281 12.25 0.640625 12.5547 0.945312C12.8594 1.25 13.0117 1.60156 13.0117 2C13.0117 2.39844 12.8594 2.75 12.5547 3.05469C12.25 3.35938 11.8984 3.51172 11.5 3.51172C11.1016 3.51172 10.75 3.35938 10.4453 3.05469C10.1406 2.75 9.98828 2.39844 9.98828 2C9.98828 1.60156 10.1406 1.25 10.4453 0.945312ZM1.44531 0.945312C1.75 0.640625 2.10156 0.488281 2.5 0.488281C2.89844 0.488281 3.25 0.640625 3.55469 0.945312C3.85938 1.25 4.01172 1.60156 4.01172 2C4.01172 2.39844 3.85938 2.75 3.55469 3.05469C3.25 3.35938 2.89844 3.51172 2.5 3.51172C2.10156 3.51172 1.75 3.35938 1.44531 3.05469C1.14062 2.75 0.988281 2.39844 0.988281 2C0.988281 1.60156 1.14062 1.25 1.44531 0.945312Z" fill="#8083A3"/>
</symbol>

<symbol id='icon-link-2' width="15" height="8" viewBox="0 0 15 8" fill="none" xmlns="http://www.w3.org/2000/svg">
<path d="M11.2617 0.238281C12.293 0.238281 13.1719 0.613281 13.8984 1.36328C14.625 2.08984 14.9883 2.96875 14.9883 4C14.9883 5.03125 14.625 5.92188 13.8984 6.67188C13.1719 7.39844 12.293 7.76172 11.2617 7.76172H8.23828V6.32031H11.2617C11.8945 6.32031 12.4336 6.09766 12.8789 5.65234C13.3477 5.18359 13.582 4.63281 13.582 4C13.582 3.36719 13.3477 2.82813 12.8789 2.38281C12.4336 1.91406 11.8945 1.67969 11.2617 1.67969H8.23828V0.238281H11.2617ZM4.51172 4.73828V3.26172H10.4883V4.73828H4.51172ZM2.08594 2.38281C1.64062 2.82813 1.41797 3.36719 1.41797 4C1.41797 4.63281 1.64062 5.18359 2.08594 5.65234C2.55469 6.09766 3.10547 6.32031 3.73828 6.32031H6.76172V7.76172H3.73828C2.70703 7.76172 1.82812 7.39844 1.10156 6.67188C0.375 5.92188 0.0117188 5.03125 0.0117188 4C0.0117188 2.96875 0.375 2.08984 1.10156 1.36328C1.82812 0.613281 2.70703 0.238281 3.73828 0.238281H6.76172V1.67969H3.73828C3.10547 1.67969 2.55469 1.91406 2.08594 2.38281Z" fill="#8083A3"/>
</symbol>

<symbol id='icon-send' width="14" height="14" viewBox="0 0 14 14" fill="none" xmlns="http://www.w3.org/2000/svg">
<path d="M8.51172 0.25H13.75V5.48828H12.2383V2.81641L4.89062 10.1641L3.83594 9.10938L11.1836 1.76172H8.51172V0.25ZM12.2383 12.2383V7H13.75V12.2383C13.75 12.6367 13.5977 12.9883 13.293 13.293C12.9883 13.5977 12.6367 13.75 12.2383 13.75H1.76172C1.33984 13.75 0.976562 13.5977 0.671875 13.293C0.390625 12.9883 0.25 12.6367 0.25 12.2383V1.76172C0.25 1.36328 0.390625 1.01172 0.671875 0.707031C0.976562 0.402344 1.33984 0.25 1.76172 0.25H7V1.76172H1.76172V12.2383H12.2383Z" fill="#8083A3"/>
</symbol>

<symbol id='icon-share-arrow' width="17" height="15" viewBox="0 0 17 15" fill="none" xmlns="http://www.w3.org/2000/svg">
<path d="M0.90332 14.1875V8.94922L12.1533 7.4375L0.90332 5.92578V0.6875L16.6533 7.4375L0.90332 14.1875Z" fill="#FAFBFF"/>
</symbol>

<symbol id='icon-attach' width="19" height="19" viewBox="0 0 19 19" fill="none" xmlns="http://www.w3.org/2000/svg">
<path d="M8.08541 13.0358L6.6712 11.6216L9.14607 9.14668C9.73186 8.56089 9.73186 7.61114 9.14607 7.02536C8.56028 6.43957 7.61054 6.43957 7.02475 7.02536L3.48921 10.5609C2.12238 11.9277 2.12238 14.1438 3.48921 15.5106C4.85605 16.8775 7.07213 16.8775 8.43896 15.5106L15.51 8.43957C16.8769 7.07274 16.8769 4.85666 15.51 3.48982L15.1565 3.13627C13.9849 1.9647 12.0854 1.9647 10.9138 3.13627L9.49962 1.72206C11.4522 -0.230564 14.6181 -0.230564 16.5707 1.72206L16.9242 2.07561C19.0721 4.22349 19.0721 7.7059 16.9242 9.85379L9.85318 16.9249C7.70529 19.0727 4.22288 19.0727 2.075 16.9249C-0.0728823 14.777 -0.072883 11.2946 2.075 9.14668L5.61054 5.61114C6.97737 4.24431 9.19345 4.24431 10.5603 5.61114C11.9271 6.97798 11.9271 9.19406 10.5603 10.5609L8.08541 13.0358Z" fill="#8B90A0"/>
</symbol>

<symbol id='icon-docs' width="18" height="20" viewBox="0 0 18 20" fill="none" xmlns="http://www.w3.org/2000/svg">
<path fill-rule="evenodd" clip-rule="evenodd" d="M11.737 0.761719H5.08498C3.02498 0.761719 1.25098 2.43072 1.25098 4.49072V15.3397C1.25098 17.5157 2.90898 19.1147 5.08498 19.1147H13.073C15.133 19.1147 16.803 17.3997 16.803 15.3397V6.03772L11.737 0.761719Z" stroke="#8B90A0" stroke-width="1.5" stroke-linecap="round" stroke-linejoin="round"/>
<path d="M11.4746 0.75V3.659C11.4746 5.079 12.6236 6.231 14.0436 6.234C15.3596 6.237 16.7066 6.238 16.7976 6.232" stroke="#8B90A0" stroke-width="1.5" stroke-linecap="round" stroke-linejoin="round"/>
<path d="M11.2946 11.7471H6.39355" stroke="#8B90A0" stroke-width="1.5" stroke-linecap="round" stroke-linejoin="round"/>
</symbol>

<symbol id='icon-voice' width="18" height="20" viewBox="0 0 18 20" fill="none" xmlns="http://www.w3.org/2000/svg">
<path opacity="0.4" d="M16.5313 7.82568C15.9966 7.82568 15.5626 8.25331 15.5626 8.78233C15.5626 12.3554 12.6186 15.2627 9.00048 15.2627C5.38136 15.2627 2.43743 12.3554 2.43743 8.78233C2.43743 8.25331 2.00345 7.82568 1.46872 7.82568C0.933985 7.82568 0.5 8.25331 0.5 8.78233C0.5 13.0873 3.79945 16.6412 8.03177 17.1186V19.0434C8.03177 19.5714 8.46478 20 9.00048 20C9.53522 20 9.9692 19.5714 9.9692 19.0434V17.1186C14.2006 16.6412 17.5 13.0873 17.5 8.78233C17.5 8.25331 17.066 7.82568 16.5313 7.82568Z" fill="#8B90A0"/>
<path d="M8.82413 13.2171H9.1748C11.5772 13.2171 13.5263 11.2932 13.5263 8.92076V4.29727C13.5263 1.92287 11.5772 0 9.1748 0H8.82413C6.42171 0 4.47266 1.92287 4.47266 4.29727V8.92076C4.47266 11.2932 6.42171 13.2171 8.82413 13.2171Z" fill="#8B90A0"/>
</symbol>

<symbol id='icon-bars-hor' width="15" height="18" viewBox="0 0 15 18" fill="none" xmlns="http://www.w3.org/2000/svg">
<path fill-rule="evenodd" clip-rule="evenodd" d="M7.75 0.5C8.16421 0.5 8.5 0.835786 8.5 1.25V16.75C8.5 17.1642 8.16421 17.5 7.75 17.5C7.33579 17.5 7 17.1642 7 16.75V1.25C7 0.835786 7.33579 0.5 7.75 0.5ZM14.25 4.125C14.6642 4.125 15 4.46079 15 4.875V16.75C15 17.1642 14.6642 17.5 14.25 17.5C13.8358 17.5 13.5 17.1642 13.5 16.75V4.875C13.5 4.46079 13.8358 4.125 14.25 4.125ZM1.25 8C1.66421 8 2 8.33579 2 8.75V16.75C2 17.1642 1.66421 17.5 1.25 17.5C0.835786 17.5 0.5 17.1642 0.5 16.75V8.75C0.5 8.33579 0.835786 8 1.25 8Z" fill="#8B90A0"/>
</symbol>

<symbol id='icon-smiley' width="24" height="24" viewBox="0 0 24 24" fill="none" xmlns="http://www.w3.org/2000/svg">
<path d="M8.45625 14.4938C8.78603 14.2465 9.25323 14.3118 9.50267 14.6391C9.50961 14.6478 9.51678 14.6563 9.52403 14.6648C9.54482 14.689 9.58016 14.7285 9.62993 14.7783C9.72986 14.8782 9.88544 15.0171 10.0957 15.1573C10.5134 15.4357 11.1445 15.7188 12 15.7188C12.8555 15.7188 13.4866 15.4357 13.9043 15.1573C14.1146 15.0171 14.2701 14.8782 14.3701 14.7783C14.4198 14.7285 14.4552 14.689 14.476 14.6648C14.4832 14.6563 14.4904 14.6478 14.4973 14.6391C14.7468 14.3118 15.214 14.2465 15.5437 14.4938C15.8751 14.7423 15.9423 15.2124 15.6937 15.5438L15.6673 15.5778C15.6542 15.5942 15.6367 15.6155 15.6148 15.641C15.5712 15.6919 15.5098 15.7598 15.4307 15.839C15.2728 15.9969 15.0417 16.2018 14.7363 16.4053C14.1227 16.8144 13.207 17.2188 12 17.2188C10.793 17.2188 9.87726 16.8144 9.26366 16.4053C8.9583 16.2018 8.72716 15.9969 8.56927 15.839C8.45054 15.7202 8.37204 15.627 8.33268 15.5778C8.0744 15.2463 8.10967 14.7537 8.45625 14.4938Z" fill="#8B90A0"/>
<path fill-rule="evenodd" clip-rule="evenodd" d="M12 1C5.92487 1 1 5.92487 1 12C1 18.0751 5.92487 23 12 23C18.0751 23 23 18.0751 23 12C23 5.92487 18.0751 1 12 1ZM2.5 12C2.5 6.75329 6.75329 2.5 12 2.5C17.2467 2.5 21.5 6.75329 21.5 12C21.5 17.2467 17.2467 21.5 12 21.5C6.75329 21.5 2.5 17.2467 2.5 12Z" fill="#8B90A0"/>
<path d="M9 10.75C9 11.4404 8.44036 12 7.75 12C7.05964 12 6.5 11.4404 6.5 10.75C6.5 10.0596 7.05964 9.5 7.75 9.5C8.44036 9.5 9 10.0596 9 10.75Z" fill="#8B90A0"/>
<path d="M16.25 12C16.9404 12 17.5 11.4404 17.5 10.75C17.5 10.0596 16.9404 9.5 16.25 9.5C15.5596 9.5 15 10.0596 15 10.75C15 11.4404 15.5596 12 16.25 12Z" fill="#8B90A0"/>
</symbol>

<symbol id='icon-pen' width="14" height="14" viewBox="0 0 14 14" fill="none" xmlns="http://www.w3.org/2000/svg">
<path d="M13.5391 3.27344L12.168 4.64453L9.35547 1.83203L10.7266 0.460938C10.8672 0.320312 11.043 0.25 11.2539 0.25C11.4648 0.25 11.6406 0.320312 11.7812 0.460938L13.5391 2.21875C13.6797 2.35938 13.75 2.53516 13.75 2.74609C13.75 2.95703 13.6797 3.13281 13.5391 3.27344ZM0.25 10.9375L8.54688 2.64062L11.3594 5.45312L3.0625 13.75H0.25V10.9375Z" fill="#8083A3"/>
</symbol>

<symbol id='icon-bar-vertical' width="14" height="10" viewBox="0 0 14 10" fill="none" xmlns="http://www.w3.org/2000/svg">
<path d="M0.25 0.5H13.75V2.01172H0.25V0.5ZM0.25 5.73828V4.26172H13.75V5.73828H0.25ZM0.25 9.5V7.98828H13.75V9.5H0.25Z" fill="#8083A3"/>
</symbol>

<symbol id='icon-star' width="16" height="15" viewBox="0 0 16 15" fill="none" xmlns="http://www.w3.org/2000/svg">
<path d="M8 10.5664L10.8125 12.2539L10.0742 9.05469L12.5703 6.875L9.26562 6.59375L8 3.57031L6.73438 6.59375L3.42969 6.875L5.92578 9.05469L5.1875 12.2539L8 10.5664ZM15.4883 5.92578L11.4102 9.47656L12.6406 14.75L8 11.9375L3.35938 14.75L4.58984 9.47656L0.511719 5.92578L5.89062 5.46875L8 0.511719L10.1094 5.46875L15.4883 5.92578Z" fill="#8083A3"/>
</symbol>

<symbol id='icon-comment-2' width="18" height="18" viewBox="0 0 18 18" fill="none" xmlns="http://www.w3.org/2000/svg">
<path d="M14 5.67969V4H4V5.67969H14ZM10.6797 10.6797V9H4V10.6797H10.6797ZM4 6.5V8.17969H14V6.5H4ZM15.6797 0.679688C16.1224 0.679688 16.5 0.848958 16.8125 1.1875C17.151 1.5 17.3203 1.8776 17.3203 2.32031V12.3203C17.3203 12.763 17.151 13.1536 16.8125 13.4922C16.5 13.8307 16.1224 14 15.6797 14H4L0.679688 17.3203V2.32031C0.679688 1.8776 0.835938 1.5 1.14844 1.1875C1.48698 0.848958 1.8776 0.679688 2.32031 0.679688H15.6797Z" fill="#8083A3"/>
</symbol>

<symbol id='icon-agenda' width="15" height="18" viewBox="0 0 15 18" fill="none" xmlns="http://www.w3.org/2000/svg">
<path d="M8.32038 6.5H12.9298L8.32038 1.92969V6.5ZM10.8204 10.6797V9H4.17976V10.6797H10.8204ZM10.8204 14V12.3203H4.17976V14H10.8204ZM9.17976 0.679688L14.1798 5.67969V15.6797C14.1798 16.1224 14.0105 16.513 13.6719 16.8516C13.3334 17.1641 12.9428 17.3203 12.5001 17.3203H2.50007C2.05736 17.3203 1.66674 17.1641 1.32819 16.8516C0.989652 16.513 0.820381 16.1224 0.820381 15.6797L0.859444 2.32031C0.859444 1.8776 1.01569 1.5 1.32819 1.1875C1.66674 0.848958 2.05736 0.679688 2.50007 0.679688H9.17976Z" fill="#8083A3"/>
</symbol>

<symbol id='icon-folder' width="18" height="14" viewBox="0 0 18 14" fill="none" xmlns="http://www.w3.org/2000/svg">
<path d="M7.32031 0.320312L9 2H15.6797C16.1224 2 16.5 2.16927 16.8125 2.50781C17.151 2.84635 17.3203 3.23698 17.3203 3.67969V12C17.3203 12.4427 17.151 12.8333 16.8125 13.1719C16.5 13.5104 16.1224 13.6797 15.6797 13.6797H2.32031C1.8776 13.6797 1.48698 13.5104 1.14844 13.1719C0.835938 12.8333 0.679688 12.4427 0.679688 12V2C0.679688 1.55729 0.835938 1.16667 1.14844 0.828125C1.48698 0.489583 1.8776 0.320312 2.32031 0.320312H7.32031Z" fill="#8083A3"/>
</symbol>

<symbol id='icon-group' width="20" height="12" viewBox="0 0 20 12" fill="none" xmlns="http://www.w3.org/2000/svg">
<path d="M13.3203 6.82031C14.0495 6.82031 14.8438 6.92448 15.7031 7.13281C16.5625 7.34115 17.3568 7.67969 18.0859 8.14844C18.8151 8.61719 19.1797 9.15104 19.1797 9.75V11.8203H14.1797V9.75C14.1797 8.60417 13.6328 7.64062 12.5391 6.85938C12.7214 6.83333 12.9818 6.82031 13.3203 6.82031ZM4.29688 7.13281C5.15625 6.92448 5.95052 6.82031 6.67969 6.82031C7.40885 6.82031 8.20312 6.92448 9.0625 7.13281C9.92188 7.34115 10.7031 7.67969 11.4062 8.14844C12.1354 8.61719 12.5 9.15104 12.5 9.75V11.8203H0.820312V9.75C0.820312 9.15104 1.1849 8.61719 1.91406 8.14844C2.64323 7.67969 3.4375 7.34115 4.29688 7.13281ZM8.39844 4.4375C7.92969 4.93229 7.35677 5.17969 6.67969 5.17969C6.0026 5.17969 5.41667 4.93229 4.92188 4.4375C4.42708 3.94271 4.17969 3.35677 4.17969 2.67969C4.17969 2.0026 4.42708 1.41667 4.92188 0.921875C5.41667 0.427083 6.0026 0.179688 6.67969 0.179688C7.35677 0.179688 7.92969 0.427083 8.39844 0.921875C8.89323 1.41667 9.14062 2.0026 9.14062 2.67969C9.14062 3.35677 8.89323 3.94271 8.39844 4.4375ZM15.0781 4.4375C14.5833 4.93229 13.9974 5.17969 13.3203 5.17969C12.6432 5.17969 12.0573 4.93229 11.5625 4.4375C11.0677 3.94271 10.8203 3.35677 10.8203 2.67969C10.8203 2.0026 11.0677 1.41667 11.5625 0.921875C12.0573 0.427083 12.6432 0.179688 13.3203 0.179688C13.9974 0.179688 14.5833 0.427083 15.0781 0.921875C15.5729 1.41667 15.8203 2.0026 15.8203 2.67969C15.8203 3.35677 15.5729 3.94271 15.0781 4.4375Z" fill="#8083A3"/>
</symbol>

<symbol fill="none" xmlns="http://www.w3.org/2000/svg" width="14" height="17" viewBox="0 0 14 17" id="icon-eye">
<path xmlns="http://www.w3.org/2000/svg" fill="white" fill-opacity=".7" d="M20.8701 7.49999C20.2301 6.38999 16.7101 0.819994 10.7301 0.999994C5.20007 1.13999 2.00007 5.99999 1.13007 7.49999C1.0423 7.65201 0.996094 7.82446 0.996094 7.99999C0.996094 8.17553 1.0423 8.34797 1.13007 8.49999C1.76007 9.58999 5.13007 15 11.0201 15H11.2701C16.8001 14.86 20.0101 9.99999 20.8701 8.49999C20.9578 8.34797 21.004 8.17553 21.004 7.99999C21.004 7.82446 20.9578 7.65201 20.8701 7.49999V7.49999ZM11.2201 13C6.91007 13.1 4.10007 9.40999 3.22007 7.99999C4.22007 6.38999 6.83007 3.09999 10.8301 2.99999C15.1201 2.88999 17.9401 6.58999 18.8301 7.99999C17.8001 9.60999 15.2201 12.9 11.2201 13V13Z"/><path xmlns="http://www.w3.org/2000/svg" fill="white" fill-opacity=".7" d="M11 4.5C10.3078 4.5 9.63108 4.70527 9.05551 5.08986C8.47993 5.47444 8.03133 6.02107 7.76642 6.66061C7.50152 7.30015 7.4322 8.00388 7.56725 8.68282C7.7023 9.36175 8.03564 9.98539 8.52513 10.4749C9.01461 10.9644 9.63825 11.2977 10.3172 11.4327C10.9961 11.5678 11.6999 11.4985 12.3394 11.2336C12.9789 10.9687 13.5256 10.5201 13.9101 9.9445C14.2947 9.36892 14.5 8.69223 14.5 8C14.5 7.07174 14.1313 6.1815 13.4749 5.52513C12.8185 4.86875 11.9283 4.5 11 4.5V4.5ZM11 9.5C10.7033 9.5 10.4133 9.41203 10.1666 9.2472C9.91997 9.08238 9.72771 8.84811 9.61418 8.57403C9.50065 8.29994 9.47095 7.99834 9.52882 7.70736C9.5867 7.41639 9.72956 7.14912 9.93934 6.93934C10.1491 6.72956 10.4164 6.5867 10.7074 6.52882C10.9983 6.47094 11.2999 6.50065 11.574 6.61418C11.8481 6.72771 12.0824 6.91997 12.2472 7.16665C12.412 7.41332 12.5 7.70333 12.5 8C12.5 8.39782 12.342 8.77936 12.0607 9.06066C11.7794 9.34196 11.3978 9.5 11 9.5Z"/>
</symbol>
 
 <symbol id='icon-file-download' width="41" height="48" viewBox="0 0 41 48" fill="none" xmlns="http://www.w3.org/2000/svg">
<rect width="40.8" height="48" rx="8" fill="white"/>
<rect width="40.8" height="48" rx="8" fill="#F6933E" fill-opacity="0.15"/>
<path d="M29.1186 20.3808H23.3311L24.3379 15.6L29.1186 20.3808Z" fill="#F6933E"/>
<path d="M16.5845 20.3808H10.8018L15.5777 15.6L16.5845 20.3808Z" fill="#F6933E"/>
<path d="M24.3377 15.6L23.3309 20.3808H16.5844L15.5776 15.6H24.3377Z" fill="#F6933E"/>
<path d="M29.1164 20.379L19.9581 32.4L10.7998 20.379" fill="#F6933E"/>
</symbol>

<symbol id='icon-cloud' width="18" height="14" viewBox="0 0 18 14" fill="none" xmlns="http://www.w3.org/2000/svg">
<path d="M12.7617 7.73828H10.5117V4.75H7.48828V7.73828H5.23828L9 11.5L12.7617 7.73828ZM14.5195 5.52344C15.4805 5.59375 16.3008 5.99219 16.9805 6.71875C17.6602 7.42188 18 8.26562 18 9.25C18 10.2812 17.625 11.1719 16.875 11.9219C16.1484 12.6484 15.2695 13.0117 14.2383 13.0117H4.5C3.25781 13.0117 2.19141 12.5781 1.30078 11.7109C0.433594 10.8203 0 9.75391 0 8.51172C0 7.36328 0.386719 6.36719 1.16016 5.52344C1.93359 4.65625 2.88281 4.16406 4.00781 4.04688C4.5 3.13281 5.19141 2.39453 6.08203 1.83203C6.97266 1.26953 7.94531 0.988281 9 0.988281C10.3594 0.988281 11.5547 1.42187 12.5859 2.28906C13.6172 3.13281 14.2617 4.21094 14.5195 5.52344Z" fill="#8083A3"/>
</symbol>

<symbol id='icon-backward' width="18" height="13" viewBox="0 0 18 13" fill="none" xmlns="http://www.w3.org/2000/svg">
<path d="M9.73828 3.75C12.1758 4.10156 14.0508 5.03906 15.3633 6.5625C16.6992 8.0625 17.5781 9.87891 18 12.0117C16.1953 9.45703 13.4414 8.17969 9.73828 8.17969V11.2383L4.5 6L9.73828 0.761719V3.75ZM5.23828 3.01172L2.25 6L5.23828 8.98828V11.2383L0 6L5.23828 0.761719V3.01172Z" fill="#8083A3"/>
</symbol>

<symbol id='icon-plus' width="14" height="13" viewBox="0 0 14 13" fill="none" xmlns="http://www.w3.org/2000/svg">
<path d="M13.4023 7.33984H7.90234V12.8398H6.09766V7.33984H0.597656V5.53516H6.09766V0.0351562H7.90234V5.53516H13.4023V7.33984Z" fill="#8083A3"/>
</symbol>

<symbol id='icon-tri-dot-vertical' width="13" height="4" viewBox="0 0 13 4" fill="none" xmlns="http://www.w3.org/2000/svg">
<path d="M5.44531 0.945312C5.75 0.640625 6.10156 0.488281 6.5 0.488281C6.89844 0.488281 7.25 0.640625 7.55469 0.945312C7.85938 1.25 8.01172 1.60156 8.01172 2C8.01172 2.39844 7.85938 2.75 7.55469 3.05469C7.25 3.35938 6.89844 3.51172 6.5 3.51172C6.10156 3.51172 5.75 3.35938 5.44531 3.05469C5.14062 2.75 4.98828 2.39844 4.98828 2C4.98828 1.60156 5.14062 1.25 5.44531 0.945312ZM9.94531 0.945312C10.25 0.640625 10.6016 0.488281 11 0.488281C11.3984 0.488281 11.75 0.640625 12.0547 0.945312C12.3594 1.25 12.5117 1.60156 12.5117 2C12.5117 2.39844 12.3594 2.75 12.0547 3.05469C11.75 3.35938 11.3984 3.51172 11 3.51172C10.6016 3.51172 10.25 3.35938 9.94531 3.05469C9.64062 2.75 9.48828 2.39844 9.48828 2C9.48828 1.60156 9.64062 1.25 9.94531 0.945312ZM0.945312 0.945312C1.25 0.640625 1.60156 0.488281 2 0.488281C2.39844 0.488281 2.75 0.640625 3.05469 0.945312C3.35938 1.25 3.51172 1.60156 3.51172 2C3.51172 2.39844 3.35938 2.75 3.05469 3.05469C2.75 3.35938 2.39844 3.51172 2 3.51172C1.60156 3.51172 1.25 3.35938 0.945312 3.05469C0.640625 2.75 0.488281 2.39844 0.488281 2C0.488281 1.60156 0.640625 1.25 0.945312 0.945312Z" fill="#FAFBFF"/>
</symbol>

<symbol id='icon-cancel-arrow' width="18" height="15" viewBox="0 0 18 15" fill="none" xmlns="http://www.w3.org/2000/svg">
<path d="M14.2383 10.207L11.5664 7.5L14.2383 4.79297L13.1836 3.73828L10.5117 6.44531L7.80469 3.73828L6.75 4.79297L9.45703 7.5L6.75 10.207L7.80469 11.2617L10.5117 8.55469L13.1836 11.2617L14.2383 10.207ZM16.4883 0.75C16.8867 0.75 17.2383 0.902344 17.543 1.20703C17.8477 1.51172 18 1.86328 18 2.26172V12.7383C18 13.1367 17.8477 13.4883 17.543 13.793C17.2383 14.0977 16.8867 14.25 16.4883 14.25H5.23828C4.76953 14.25 4.37109 14.0273 4.04297 13.582L0 7.5L4.04297 1.41797C4.37109 0.972656 4.76953 0.75 5.23828 0.75H16.4883Z" fill="#8083A3"/>
</symbol>

<symbol id='icon-message-small' width="16" height="16" viewBox="0 0 16 16" fill="none" xmlns="http://www.w3.org/2000/svg">
<path d="M11.7617 8.08691C11.7617 8.29785 11.6797 8.47363 11.5156 8.61426C11.375 8.75488 11.1992 8.8252 10.9883 8.8252H3.5L0.511719 11.8486V1.33691C0.511719 1.12598 0.582031 0.950195 0.722656 0.80957C0.863281 0.668945 1.03906 0.598633 1.25 0.598633H10.9883C11.1992 0.598633 11.375 0.668945 11.5156 0.80957C11.6797 0.950195 11.7617 1.12598 11.7617 1.33691V8.08691ZM14.75 3.58691C14.9609 3.58691 15.1367 3.65723 15.2773 3.79785C15.418 3.93848 15.4883 4.11426 15.4883 4.3252V15.5752L12.5 12.5869H4.23828C4.02734 12.5869 3.85156 12.5166 3.71094 12.376C3.57031 12.2354 3.5 12.0596 3.5 11.8486V10.3369H13.2383V3.58691H14.75Z" fill="#FAFBFF"/>
</symbol>

<symbol id='icon-share-screen' width="14" height="14" viewBox="0 0 14 14" fill="none" xmlns="http://www.w3.org/2000/svg">
<path d="M7 5.48828L9.98828 8.51172H7.73828V13.0117H6.26172V8.51172H4.01172L7 5.48828ZM12.2383 0.988281C12.6602 0.988281 13.0117 1.14062 13.293 1.44531C13.5977 1.75 13.75 2.10156 13.75 2.5V11.5C13.75 11.8984 13.5977 12.25 13.293 12.5547C12.9883 12.8594 12.6367 13.0117 12.2383 13.0117H9.25V11.5H12.2383V4.01172H1.76172V11.5H4.75V13.0117H1.76172C1.33984 13.0117 0.976562 12.8594 0.671875 12.5547C0.390625 12.25 0.25 11.8984 0.25 11.5V2.5C0.25 2.10156 0.390625 1.75 0.671875 1.44531C0.976562 1.14062 1.33984 0.988281 1.76172 0.988281H12.2383Z" fill="#8083A3"/>
</symbol>

<symbol id='icon-facebook-sm' width="16" height="16" viewBox="0 0 16 16" fill="none" xmlns="http://www.w3.org/2000/svg">
<path d="M6.40624 16V8.84373H4V5.99999H6.40624V3.74999C6.40624 2.56249 6.73958 1.64062 7.40624 0.984373C8.07291 0.328124 8.95832 0 10.0625 0C10.9583 0 11.6875 0.0416664 12.25 0.125V2.65624H10.75C10.1875 2.65624 9.80207 2.78124 9.59374 3.03124C9.42707 3.23958 9.34374 3.57291 9.34374 4.03124V5.99999H12L11.625 8.84373H9.34374V16H6.40624Z" fill="#8083A3"/>
</symbol>

<symbol id='icon-pinterest' width="16" height="16" viewBox="0 0 16 16" fill="none" xmlns="http://www.w3.org/2000/svg">
<path d="M8.37498 0C9.35415 0.0208334 10.276 0.244791 11.1406 0.671873C12.0052 1.09896 12.6875 1.6875 13.1875 2.43749C13.7291 3.24999 14 4.16145 14 5.17186C14 6.18228 13.8333 7.1354 13.5 8.03123C13.125 9.0104 12.5937 9.78123 11.9062 10.3437C11.1354 10.9687 10.2291 11.2812 9.18748 11.2812C8.77082 11.2812 8.35415 11.1823 7.93749 10.9843C7.52082 10.7864 7.21874 10.5104 7.03124 10.1562L6.78124 11.1562C6.51041 12.2396 6.29166 12.9896 6.12499 13.4062C5.87499 13.9687 5.42708 14.6875 4.78124 15.5625L4.65624 15.625L4.56249 15.5312L4.53124 15.0625C4.46874 14.4791 4.43749 14.0416 4.43749 13.75C4.43749 13.125 4.54166 12.3125 4.74999 11.3125C4.87499 10.7291 5.08333 9.86456 5.37499 8.71873L5.74999 7.21873C5.54166 6.8229 5.43749 6.30207 5.43749 5.65624C5.43749 5.05207 5.59374 4.55207 5.90624 4.15624C6.17707 3.82291 6.51041 3.61457 6.90624 3.53124C7.30207 3.44791 7.64582 3.52083 7.93749 3.74999C8.22915 3.97916 8.37498 4.34374 8.37498 4.84374C8.37498 5.11457 8.33332 5.41665 8.24999 5.74999C8.20832 5.93749 8.11457 6.22915 7.96874 6.62498C7.8229 7.02082 7.72915 7.31248 7.68749 7.49998C7.60415 7.83331 7.56249 8.12498 7.56249 8.37498C7.56249 8.77081 7.70311 9.09894 7.98436 9.35935C8.26561 9.61977 8.60415 9.74998 8.99998 9.74998C9.66665 9.74998 10.2291 9.45831 10.6875 8.87498C11.0833 8.39581 11.375 7.74998 11.5625 6.93748C11.7291 6.27082 11.8125 5.61457 11.8125 4.96874C11.8125 3.88541 11.4739 3.04166 10.7969 2.43749C10.1198 1.83333 9.22915 1.53125 8.12499 1.53125C7.31249 1.53125 6.5677 1.71875 5.89062 2.09374C5.21353 2.46874 4.68749 2.97916 4.31249 3.62499C3.9375 4.27082 3.75 5.0104 3.75 5.84374C3.75 6.1979 3.8125 6.54165 3.9375 6.87498C4 7.06248 4.11458 7.29165 4.28124 7.56248C4.40624 7.77081 4.46874 7.90623 4.46874 7.96873C4.46874 8.1354 4.42708 8.34373 4.34374 8.59373C4.23958 8.90623 4.12499 9.06248 4 9.06248C3.72916 9.06248 3.4375 8.92185 3.125 8.6406C2.8125 8.35935 2.55208 7.97915 2.34375 7.49998C2.11458 6.93748 2 6.31249 2 5.62499C2 4.49999 2.3125 3.49999 2.9375 2.62499C3.52083 1.8125 4.30208 1.17187 5.28124 0.703123C6.26041 0.234374 7.29165 0 8.37498 0Z" fill="#8083A3"/>
</symbol>

<symbol id='icon-twitter-sm' width="16" height="16" viewBox="0 0 16 16" fill="none" xmlns="http://www.w3.org/2000/svg">
<path d="M14.3437 5.24999C14.3645 5.33333 14.375 5.46874 14.375 5.65624C14.375 7.15624 14.0104 8.60415 13.2812 9.99998C12.5312 11.4791 11.4791 12.6562 10.125 13.5312C8.64581 14.5104 6.9479 15 5.03124 15C3.19791 15 1.52083 14.5104 0 13.5312C0.229166 13.5521 0.489582 13.5625 0.781248 13.5625C2.30208 13.5625 3.66666 13.0937 4.87499 12.1562C4.14582 12.1562 3.5052 11.9427 2.95312 11.5156C2.40104 11.0885 2.02083 10.5521 1.8125 9.90623C2.02083 9.92706 2.21874 9.93748 2.40624 9.93748C2.69791 9.93748 2.98958 9.90623 3.28124 9.84373C2.53124 9.67707 1.90625 9.29165 1.40625 8.68748C0.906248 8.08332 0.656248 7.39582 0.656248 6.62499V6.56249C1.11458 6.83332 1.60416 6.97915 2.12499 6.99999C1.6875 6.68749 1.33333 6.29166 1.0625 5.81249C0.791665 5.33333 0.656248 4.80728 0.656248 4.23437C0.656248 3.66145 0.812498 3.11458 1.125 2.59375C1.9375 3.61458 2.93228 4.42708 4.10936 5.03124C5.28645 5.63541 6.54165 5.96874 7.87498 6.03124C7.83331 5.78124 7.81248 5.53124 7.81248 5.28124C7.81248 4.69791 7.95831 4.15104 8.24998 3.64062C8.54165 3.13021 8.93748 2.72916 9.43748 2.4375C9.93748 2.14583 10.4791 2 11.0625 2C11.5416 2 11.9843 2.09375 12.3906 2.28125C12.7968 2.46875 13.1562 2.71875 13.4687 3.03125C14.2187 2.88541 14.9166 2.625 15.5625 2.25C15.3125 3.02083 14.8333 3.625 14.125 4.06249C14.75 3.97916 15.375 3.80208 16 3.53125C15.5416 4.19791 14.9895 4.77083 14.3437 5.24999Z" fill="#8083A3"/>
</symbol>

<symbol id='icon-linkedin' width="16" height="16" viewBox="0 0 16 16" fill="none" xmlns="http://www.w3.org/2000/svg">
<path fill-rule="evenodd" clip-rule="evenodd" d="M2.6875 4.37499C2.22916 4.37499 1.83333 4.20833 1.5 3.87499C1.16667 3.54166 1 3.14583 1 2.6875C1 2.22916 1.16667 1.83333 1.5 1.5C1.83333 1.16667 2.22916 1 2.6875 1C3.14583 1 3.54166 1.16667 3.87499 1.5C4.20833 1.83333 4.37499 2.22916 4.37499 2.6875C4.37499 3.14583 4.20833 3.54166 3.87499 3.87499C3.54166 4.20833 3.14583 4.37499 2.6875 4.37499ZM4.12499 15H1.21875V5.65624H4.12499V15ZM12.0937 15H15V9.87498C15 8.43748 14.7916 7.37498 14.375 6.68749C13.8333 5.83332 12.8854 5.40624 11.5312 5.40624C10.8646 5.40624 10.2812 5.57291 9.78123 5.90624C9.3229 6.17707 8.98956 6.52082 8.78123 6.93749H8.74998V5.65624H5.96874V15H8.84373V10.375C8.84373 9.64581 8.9479 9.09373 9.15623 8.71873C9.42706 8.21873 9.89581 7.96873 10.5625 7.96873C11.2291 7.96873 11.6771 8.24998 11.9062 8.81248C12.0312 9.14581 12.0937 9.68748 12.0937 10.4375V15Z" fill="#8083A3"/>
</symbol>

<symbol id='icon-google-sm' width="16" height="16" viewBox="0 0 16 16" fill="none" xmlns="http://www.w3.org/2000/svg">
<path d="M8 14.75C9.26389 14.75 10.4387 14.434 11.5243 13.8021C12.5938 13.1863 13.4363 12.3438 14.0521 11.2743C14.684 10.1887 15 9.01389 15 7.75C15 7.28009 14.9514 6.81018 14.8542 6.34028L14.8299 6.19444H8V8.52778H12.6667C12.537 9.25694 12.2494 9.91724 11.8038 10.5087C11.3582 11.1001 10.8032 11.566 10.1389 11.9062C9.47454 12.2465 8.76157 12.4167 8 12.4167C7.15741 12.4167 6.37963 12.206 5.66667 11.7847C4.9537 11.3634 4.38657 10.7963 3.96528 10.0833C3.54398 9.37037 3.33333 8.59259 3.33333 7.75C3.33333 6.90741 3.54398 6.12963 3.96528 5.41667C4.38657 4.7037 4.9537 4.13657 5.66667 3.71528C6.37963 3.29398 7.15741 3.08333 8 3.08333C8.56713 3.08333 9.114 3.18461 9.64062 3.38715C10.1672 3.5897 10.6331 3.86921 11.0382 4.22569L12.7153 2.57292C12.0833 2.00579 11.3623 1.56019 10.5521 1.23611C9.7419 0.912037 8.8912 0.75 8 0.75C6.73611 0.75 5.56134 1.06597 4.47569 1.69792C3.40625 2.31366 2.56366 3.15625 1.94792 4.22569C1.31597 5.31134 1 6.48611 1 7.75C1 9.01389 1.31597 10.1887 1.94792 11.2743C2.56366 12.3438 3.40625 13.1863 4.47569 13.8021C5.56134 14.434 6.73611 14.75 8 14.75Z" fill="#8083A3"/>
</symbol>

<symbol id='icon-user-loud' width="18" height="15" viewBox="0 0 18 15" fill="none" xmlns="http://www.w3.org/2000/svg">
<path d="M15.0469 0.511719C16.5 2.03516 17.2266 3.80469 17.2266 5.82031C17.2266 7.8125 16.5 9.53516 15.0469 10.9883L13.8164 9.79297C14.8477 8.59766 15.3633 7.23828 15.3633 5.71484C15.3633 4.16797 14.8477 2.83203 13.8164 1.70703L15.0469 0.511719ZM12.5859 3.00781C13.3359 3.82812 13.7109 4.75391 13.7109 5.78516C13.7109 6.81641 13.3359 7.70703 12.5859 8.45703L11.3203 7.19141C11.6484 6.74609 11.8125 6.26563 11.8125 5.75C11.8125 5.21094 11.6484 4.71875 11.3203 4.27344L12.5859 3.00781ZM2.77734 11.0938C4.16016 10.5312 5.48438 10.25 6.75 10.25C8.01562 10.25 9.32812 10.5312 10.6875 11.0938C12.0703 11.6328 12.7617 12.3477 12.7617 13.2383V14.75H0.738281V13.2383C0.738281 12.3477 1.41797 11.6328 2.77734 11.0938ZM4.64062 7.85938C4.05469 7.27344 3.76172 6.57031 3.76172 5.75C3.76172 4.92969 4.05469 4.22656 4.64062 3.64062C5.22656 3.05469 5.92969 2.76172 6.75 2.76172C7.57031 2.76172 8.27344 3.05469 8.85938 3.64062C9.44531 4.22656 9.73828 4.92969 9.73828 5.75C9.73828 6.57031 9.44531 7.27344 8.85938 7.85938C8.27344 8.44531 7.57031 8.73828 6.75 8.73828C5.92969 8.73828 5.22656 8.44531 4.64062 7.85938Z" fill="#8083A3"/>
</symbol>

<symbol id='icon-map' width="12" height="16" viewBox="0 0 12 16" fill="none" xmlns="http://www.w3.org/2000/svg">
<path d="M4.66406 7.08594C5.03906 7.4375 5.48438 7.61328 6 7.61328C6.51562 7.61328 6.94922 7.4375 7.30078 7.08594C7.67578 6.71094 7.86328 6.26563 7.86328 5.75C7.86328 5.23437 7.67578 4.80078 7.30078 4.44922C6.94922 4.07422 6.51562 3.88672 6 3.88672C5.48438 3.88672 5.03906 4.07422 4.66406 4.44922C4.3125 4.80078 4.13672 5.23437 4.13672 5.75C4.13672 6.26563 4.3125 6.71094 4.66406 7.08594ZM2.27344 2.05859C3.30469 1.02734 4.54688 0.511719 6 0.511719C7.45312 0.511719 8.68359 1.02734 9.69141 2.05859C10.7227 3.06641 11.2383 4.29688 11.2383 5.75C11.2383 6.47656 11.0508 7.30859 10.6758 8.24609C10.3242 9.18359 9.89062 10.0625 9.375 10.8828C8.85938 11.7031 8.34375 12.4766 7.82812 13.2031C7.33594 13.9062 6.91406 14.4688 6.5625 14.8906L6 15.4883C5.85938 15.3242 5.67188 15.1133 5.4375 14.8555C5.20312 14.5742 4.78125 14.0352 4.17188 13.2383C3.5625 12.418 3.02344 11.6328 2.55469 10.8828C2.10938 10.1094 1.69922 9.24219 1.32422 8.28125C0.949219 7.32031 0.761719 6.47656 0.761719 5.75C0.761719 4.29688 1.26562 3.06641 2.27344 2.05859Z" fill="#8083A3"/>
</symbol>

<symbol id='icon-circle-plus' width="16" height="16" viewBox="0 0 16 16" fill="none" xmlns="http://www.w3.org/2000/svg">
<path d="M11.2837 8.73828V7.26172H8.26025V4.23828H6.78369V7.26172H3.76025V8.73828H6.78369V11.7617H8.26025V8.73828H11.2837ZM2.21338 2.72656C3.68994 1.25 5.45947 0.511719 7.52197 0.511719C9.58447 0.511719 11.3423 1.25 12.7954 2.72656C14.272 4.17969 15.0103 5.9375 15.0103 8C15.0103 10.0625 14.272 11.832 12.7954 13.3086C11.3423 14.7617 9.58447 15.4883 7.52197 15.4883C5.45947 15.4883 3.68994 14.7617 2.21338 13.3086C0.760254 11.832 0.0336914 10.0625 0.0336914 8C0.0336914 5.9375 0.760254 4.17969 2.21338 2.72656Z" fill="#8083A3"/>
</symbol>

<symbol id='icon-circle-minus' width="16" height="16" viewBox="0 0 512 512" fill="none" xmlns="http://www.w3.org/2000/svg">
<path fill="#8083A3" d="M256 8C119 8 8 119 8 256s111 248 248 248 248-111 248-248S393 8 256 8zM124 296c-6.6 0-12-5.4-12-12v-56c0-6.6 5.4-12 12-12h264c6.6 0 12 5.4 12 12v56c0 6.6-5.4 12-12 12H124z"></path>
</symbol>

<symbol id='icon-trash' width="16" height="14" viewBox="0 0 16 14" fill="none" xmlns="http://www.w3.org/2000/svg">
<path d="M9.51172 1.76172V3.23828H0.511719V1.76172H2.76172L3.5 0.988281H6.48828L7.26172 1.76172H9.51172ZM1.25 11.5V4.01172H8.73828V11.5C8.73828 11.8984 8.58594 12.25 8.28125 12.5547C8 12.8594 7.66016 13.0117 7.26172 13.0117H2.76172C2.36328 13.0117 2.01172 12.8594 1.70703 12.5547C1.40234 12.25 1.25 11.8984 1.25 11.5ZM10.25 7H14.75V8.51172H10.25V7ZM10.25 4.01172H15.4883V5.48828H10.25V4.01172ZM10.25 9.98828H13.2383V11.5H10.25V9.98828Z" fill="#8083A3"/>
</symbol>

<symbol id='icon-calender-dark' width="14" height="16" viewBox="0 0 14 16" fill="none" xmlns="http://www.w3.org/2000/svg">
<path d="M8.51172 10.5117V11.9883H3.23828V10.5117H8.51172ZM12.2383 14.2383V6.01172H1.76172V14.2383H12.2383ZM12.2383 2.25C12.6367 2.25 12.9883 2.40234 13.293 2.70703C13.5977 3.01172 13.75 3.36328 13.75 3.76172V14.2383C13.75 14.6367 13.5977 14.9883 13.293 15.293C12.9883 15.5977 12.6367 15.75 12.2383 15.75H1.76172C1.33984 15.75 0.976562 15.5977 0.671875 15.293C0.390625 14.9883 0.25 14.6367 0.25 14.2383V3.76172C0.25 3.36328 0.390625 3.01172 0.671875 2.70703C0.976562 2.40234 1.33984 2.25 1.76172 2.25H2.5V0.738281H4.01172V2.25H9.98828V0.738281H11.5V2.25H12.2383ZM10.7617 7.48828V9H3.23828V7.48828H10.7617Z" fill="#1D1D24"/>
</symbol>

<symbol id='icon-time-bold' width="16" height="16" viewBox="0 0 16 16" fill="none" xmlns="http://www.w3.org/2000/svg">
<path d="M8.38672 4.23828V8.17578L11.7617 10.1797L11.1992 11.1289L7.26172 8.73828V4.23828H8.38672ZM3.74609 12.2539C4.94141 13.4258 6.35938 14.0117 8 14.0117C9.64062 14.0117 11.0469 13.4258 12.2188 12.2539C13.4141 11.0586 14.0117 9.64062 14.0117 8C14.0117 6.35937 13.4141 4.95312 12.2188 3.78125C11.0469 2.58594 9.64062 1.98828 8 1.98828C6.35938 1.98828 4.94141 2.58594 3.74609 3.78125C2.57422 4.95312 1.98828 6.35937 1.98828 8C1.98828 9.64062 2.57422 11.0586 3.74609 12.2539ZM2.69141 2.72656C4.16797 1.25 5.9375 0.511719 8 0.511719C10.0625 0.511719 11.8203 1.25 13.2734 2.72656C14.75 4.17969 15.4883 5.9375 15.4883 8C15.4883 10.0625 14.75 11.832 13.2734 13.3086C11.8203 14.7617 10.0625 15.4883 8 15.4883C5.9375 15.4883 4.16797 14.7617 2.69141 13.3086C1.23828 11.832 0.511719 10.0625 0.511719 8C0.511719 5.9375 1.23828 4.17969 2.69141 2.72656Z" fill="#1D1D24"/>
</symbol>

<symbol id='icon-trash-sm' width="15" height="13" viewBox="0 0 15 13" fill="none" xmlns="http://www.w3.org/2000/svg">
<path d="M9.01172 1.67383V3.15039H0.0117188V1.67383H2.26172L3 0.900391H5.98828L6.76172 1.67383H9.01172ZM0.75 11.4121V3.92383H8.23828V11.4121C8.23828 11.8105 8.08594 12.1621 7.78125 12.4668C7.5 12.7715 7.16016 12.9238 6.76172 12.9238H2.26172C1.86328 12.9238 1.51172 12.7715 1.20703 12.4668C0.902344 12.1621 0.75 11.8105 0.75 11.4121ZM9.75 6.91211H14.25V8.42383H9.75V6.91211ZM9.75 3.92383H14.9883V5.40039H9.75V3.92383ZM9.75 9.90039H12.7383V11.4121H9.75V9.90039Z" fill="#8083A3"/>
</symbol>

<symbol id='icon-calender-sm' width="14" height="16" viewBox="0 0 14 16" fill="none" xmlns="http://www.w3.org/2000/svg">
<path d="M8.51172 10.0117V11.4883H3.23828V10.0117H8.51172ZM12.2383 13.7383V5.51172H1.76172V13.7383H12.2383ZM12.2383 1.75C12.6367 1.75 12.9883 1.90234 13.293 2.20703C13.5977 2.51172 13.75 2.86328 13.75 3.26172V13.7383C13.75 14.1367 13.5977 14.4883 13.293 14.793C12.9883 15.0977 12.6367 15.25 12.2383 15.25H1.76172C1.33984 15.25 0.976562 15.0977 0.671875 14.793C0.390625 14.4883 0.25 14.1367 0.25 13.7383V3.26172C0.25 2.86328 0.390625 2.51172 0.671875 2.20703C0.976562 1.90234 1.33984 1.75 1.76172 1.75H2.5V0.238281H4.01172V1.75H9.98828V0.238281H11.5V1.75H12.2383ZM10.7617 6.98828V8.5H3.23828V6.98828H10.7617Z" fill="#8083A3"/>
</symbol>

<symbol id='icon-video-calls' width="14" height="9" viewBox="0 0 14 9" fill="none" xmlns="http://www.w3.org/2000/svg">
<path d="M10.7617 3.375L13.75 0.386719V8.61328L10.7617 5.625V8.26172C10.7617 8.47266 10.6797 8.64844 10.5156 8.78906C10.375 8.92969 10.1992 9 9.98828 9H0.988281C0.777344 9 0.601562 8.92969 0.460938 8.78906C0.320312 8.64844 0.25 8.47266 0.25 8.26172V0.738281C0.25 0.527344 0.320312 0.351562 0.460938 0.210938C0.601562 0.0703125 0.777344 0 0.988281 0H9.98828C10.1992 0 10.375 0.0703125 10.5156 0.210938C10.6797 0.351562 10.7617 0.527344 10.7617 0.738281V3.375Z" fill="#8083A3"/>
</symbol>

<symbol id='icon-messages-2' width="11" height="10" viewBox="0 0 16 15" fill="none" xmlns="http://www.w3.org/2000/svg">
<path d="M12.5 4.51172V3H3.5V4.51172H12.5ZM9.51172 9.01172V7.5H3.5V9.01172H9.51172ZM3.5 5.25V6.76172H12.5V5.25H3.5ZM14.0117 0.0117188C14.4102 0.0117188 14.75 0.164062 15.0312 0.46875C15.3359 0.75 15.4883 1.08984 15.4883 1.48828V10.4883C15.4883 10.8867 15.3359 11.2383 15.0312 11.543C14.75 11.8477 14.4102 12 14.0117 12H3.5L0.511719 14.9883V1.48828C0.511719 1.08984 0.652344 0.75 0.933594 0.46875C1.23828 0.164062 1.58984 0.0117188 1.98828 0.0117188H14.0117Z" fill="#8083A3"/>
</symbol>

<symbol id='icon-arrow-right' width="10" height="16" viewBox="0 0 10 16" fill="none" xmlns="http://www.w3.org/2000/svg">
<path d="M1.5 1L8.5 8L1.5 15" stroke="#200E32" stroke-width="1.5" stroke-linecap="round" stroke-linejoin="round"/>
</symbol>

<symbol id='icon-arrow-left' xmlns="http://www.w3.org/2000/svg" width="8.5" height="15.5" fill="none" viewBox="0 0 8.5 15.5">
<path d="M8.5,15l-7-7,7-7" stroke="#200E32" stroke-width="1.5" stroke-linecap="round" stroke-linejoin="round" transform="translate(-0.8 -0.3)"/>
</symbol>

<symbol id='icon-plus-shadow' width="16" height="16" viewBox="0 0 16 16" fill="none" xmlns="http://www.w3.org/2000/svg">
<path d="M13.2383 7.26172V5.75H10.25V2.76172H8.73828V5.75H5.75V7.26172H8.73828V10.25H10.25V7.26172H13.2383ZM14.0117 0.511719C14.4102 0.511719 14.75 0.664062 15.0312 0.96875C15.3359 1.25 15.4883 1.58984 15.4883 1.98828V10.9883C15.4883 11.3867 15.3359 11.7383 15.0312 12.043C14.75 12.3477 14.4102 12.5 14.0117 12.5H5.01172C4.61328 12.5 4.26172 12.3477 3.95703 12.043C3.65234 11.7383 3.5 11.3867 3.5 10.9883V1.98828C3.5 1.58984 3.65234 1.25 3.95703 0.96875C4.26172 0.664062 4.61328 0.511719 5.01172 0.511719H14.0117ZM1.98828 3.5V14.0117H12.5V15.4883H1.98828C1.58984 15.4883 1.23828 15.3477 0.933594 15.0664C0.652344 14.7617 0.511719 14.4102 0.511719 14.0117V3.5H1.98828Z" fill="#8083A3"/>
</symbol>
<svg id='icon-backs' height="24" viewBox="0 0 48 48" width="24" xmlns="http://www.w3.org/2000/svg">
<path d="M0 0h48v48h-48z" fill="none"/>
<path d="M40 22h-24.34l11.17-11.17-2.83-2.83-16 16 16 16 2.83-2.83-11.17-11.17h24.34v-4z"/>
</svg>
<symbol id='icon-menu' width="24" height="24" viewBox="0 0 24 24" fill="none" xmlns="http://www.w3.org/2000/svg">
<path d="M19.5 11.9999H4.5" stroke="#999999" stroke-linecap="round" stroke-linejoin="round"/>
<path d="M19.5 5.49988H4.5" stroke="#999999" stroke-linecap="round" stroke-linejoin="round"/>
<path d="M19.5 18.4999H4.5" stroke="#999999" stroke-linecap="round" stroke-linejoin="round"/>
</symbol>

<symbol id='icon-notification' width="14" height="16" viewBox="0 0 14 16" fill="none" xmlns="http://www.w3.org/2000/svg">
<path d="M12.8271 7.484C12.2793 6.84422 12.0303 6.28979 12.0303 5.34787V5.0276C12.0303 3.80015 11.7478 3.0093 11.1336 2.21845C10.1869 0.990244 8.59328 0.25 7.03317 0.25H6.96683C5.43951 0.25 3.8958 0.956254 2.93275 2.1346C2.285 2.94132 1.96969 3.76616 1.96969 5.0276V5.34787C1.96969 6.28979 1.73713 6.84422 1.17287 7.484C0.757681 7.95534 0.625 8.56113 0.625 9.21678C0.625 9.87318 0.840419 10.4948 1.27275 11.0002C1.83701 11.606 2.63384 11.9927 3.44781 12.0599C4.62629 12.1944 5.80476 12.245 7.00037 12.245C8.19524 12.245 9.37371 12.1604 10.5529 12.0599C11.3662 11.9927 12.163 11.606 12.7273 11.0002C13.1588 10.4948 13.375 9.87318 13.375 9.21678C13.375 8.56113 13.2423 7.95534 12.8271 7.484Z" fill="#200E32"/>
<path opacity="0.4" d="M8.50651 13.1713C8.13157 13.0912 5.84693 13.0912 5.472 13.1713C5.15148 13.2453 4.80487 13.4175 4.80487 13.7952C4.82351 14.1555 5.03445 14.4735 5.32665 14.6752L5.3259 14.6759C5.70382 14.9705 6.14733 15.1578 6.61171 15.2251C6.85918 15.259 7.11113 15.2575 7.36754 15.2251C7.83118 15.1578 8.27469 14.9705 8.65261 14.6759L8.65186 14.6752C8.94406 14.4735 9.155 14.1555 9.17364 13.7952C9.17364 13.4175 8.82703 13.2453 8.50651 13.1713Z" fill="#200E32"/>
</symbol>

<symbol id='icon-location' width="14" height="16" viewBox="0 0 14 16" fill="none" xmlns="http://www.w3.org/2000/svg">
<path fill-rule="evenodd" clip-rule="evenodd" d="M1.17932 7.02896C1.19013 3.84852 3.77714 1.27902 6.95758 1.28983C10.138 1.30063 12.7075 3.88765 12.6967 7.06809V7.13331C12.6576 9.2007 11.5032 11.1116 10.088 12.605C9.27865 13.4455 8.37483 14.1896 7.39454 14.8224C7.13242 15.0492 6.74362 15.0492 6.4815 14.8224C5.02012 13.8712 3.73752 12.6703 2.69236 11.2746C1.76083 10.0575 1.23195 8.58028 1.17932 7.04852L1.17932 7.02896Z" stroke="#375471" stroke-width="1.5" stroke-linecap="round" stroke-linejoin="round"/>
<ellipse opacity="0.4" cx="6.93794" cy="7.13984" rx="1.84565" ry="1.84565" stroke="#375471" stroke-width="1.5" stroke-linecap="round" stroke-linejoin="round"/>
</symbol>

<symbol id='icon-solid-time' width="18" height="18" viewBox="0 0 18 18" fill="none" xmlns="http://www.w3.org/2000/svg">
<path fill-rule="evenodd" clip-rule="evenodd" d="M15.9373 9.23584C15.9373 13.0676 12.8315 16.1733 8.99976 16.1733C5.16801 16.1733 2.06226 13.0676 2.06226 9.23584C2.06226 5.40409 5.16801 2.29834 8.99976 2.29834C12.8315 2.29834 15.9373 5.40409 15.9373 9.23584Z" stroke="#375471" stroke-width="1.5" stroke-linecap="round" stroke-linejoin="round"/>
<path opacity="0.4" d="M11.5736 11.4427L8.74609 9.75592V6.12067" stroke="#375471" stroke-width="1.5" stroke-linecap="round" stroke-linejoin="round"/>
</symbol>

<symbol id='icon-circle' width="40" height="40" viewBox="0 0 40 40" fill="none" xmlns="http://www.w3.org/2000/svg">
<circle cx="20" cy="20" r="20" fill="white" fill-opacity="0.4"/>
</symbol>

<symbol id='icon-upload' width="12" height="12" viewBox="0 0 12 12" fill="none" xmlns="http://www.w3.org/2000/svg">
<g clip-path="url(#clip0)">
<path fill-rule="evenodd" clip-rule="evenodd" d="M0.375 7.42502C0.582107 7.42502 0.75 7.59291 0.75 7.80002V9.67502C0.75 10.0892 1.08579 10.425 1.5 10.425H10.5C10.9142 10.425 11.25 10.0892 11.25 9.67502V7.80002C11.25 7.59291 11.4179 7.42502 11.625 7.42502C11.8321 7.42502 12 7.59291 12 7.80002V9.67502C12 10.5034 11.3284 11.175 10.5 11.175H1.5C0.671573 11.175 0 10.5034 0 9.67502V7.80002C0 7.59291 0.167893 7.42502 0.375 7.42502Z" fill="white"/>
<path fill-rule="evenodd" clip-rule="evenodd" d="M5.73484 0.859835C5.88128 0.713388 6.11872 0.713388 6.26517 0.859835L8.51517 3.10984C8.66161 3.25628 8.66161 3.49372 8.51517 3.64016C8.36872 3.78661 8.13128 3.78661 7.98483 3.64016L6.375 2.03033V8.625C6.375 8.83211 6.20711 9 6 9C5.79289 9 5.625 8.83211 5.625 8.625V2.03033L4.01516 3.64016C3.86872 3.78661 3.63128 3.78661 3.48484 3.64016C3.33839 3.49372 3.33839 3.25628 3.48484 3.10984L5.73484 0.859835Z" fill="white"/>
</g>
<defs>
<clipPath id="clip0">
<rect width="12" height="12" fill="white"/>
</clipPath>
</defs>
</symbol>

<symbol id='icon-search-input' width="16" height="17" viewBox="0 0 16 17" fill="none" xmlns="http://www.w3.org/2000/svg">
<circle cx="7.32491" cy="7.82491" r="6.74142" stroke="#6E7191" stroke-width="1.125" stroke-linecap="round" stroke-linejoin="round"/>
<path d="M12.0137 12.8638L14.6568 15.5" stroke="#6E7191" stroke-width="1.125" stroke-linecap="round" stroke-linejoin="round"/>
</symbol>

<symbol id='icon-info-circle' width="16" height="17" viewBox="0 0 16 17" fill="none" xmlns="http://www.w3.org/2000/svg">
<path fill-rule="evenodd" clip-rule="evenodd" d="M7.9999 1.4621C11.8317 1.4621 14.9374 4.5686 14.9374 8.3996C14.9374 12.2306 11.8317 15.3371 7.9999 15.3371C4.1689 15.3371 1.0624 12.2306 1.0624 8.3996C1.0624 4.5686 4.1689 1.4621 7.9999 1.4621Z" stroke="#375471" stroke-width="1.5" stroke-linecap="round" stroke-linejoin="round"/>
<path opacity="0.4" d="M7.99622 5.55267V8.86692" stroke="#375471" stroke-width="1.5" stroke-linecap="round" stroke-linejoin="round"/>
<path opacity="0.4" d="M7.99625 11.2465H8.00375" stroke="#375471" stroke-width="1.5" stroke-linecap="round" stroke-linejoin="round"/>
</symbol>



<svg id='icon-delete' width="19" height="16" viewBox="0 0 19 16" fill="none" xmlns="http://www.w3.org/2000/svg">
<path d="M11.3477 1.59766V3.40234H0.347656V1.59766H3.09766L4 0.652344H7.65234L8.59766 1.59766H11.3477ZM1.25 13.5V4.34766H10.4023V13.5C10.4023 13.987 10.2161 14.4167 9.84375 14.7891C9.5 15.1615 9.08464 15.3477 8.59766 15.3477H3.09766C2.61068 15.3477 2.18099 15.1615 1.80859 14.7891C1.4362 14.4167 1.25 13.987 1.25 13.5ZM12.25 8H17.75V9.84766H12.25V8ZM12.25 4.34766H18.6523V6.15234H12.25V4.34766ZM12.25 11.6523H15.9023V13.5H12.25V11.6523Z" fill="#8083A3"/>
</svg>

<symbol id='icon-plus-white' width="21" height="21" viewBox="0 0 21 21" fill="none" xmlns="http://www.w3.org/2000/svg">
<path d="M10.9297 4.19702V15.8637" stroke="white" stroke-width="2" stroke-linecap="round" stroke-linejoin="round"/>
<path d="M5.09619 10.0303H16.7629" stroke="white" stroke-width="2" stroke-linecap="round" stroke-linejoin="round"/>
</symbol>

<symbol id='icon-plan-check' width="24" height="24" viewBox="0 0 24 24" fill="none" xmlns="http://www.w3.org/2000/svg">
<circle opacity="0.3" cx="12" cy="12" r="12" fill="#6FCF97"/>
<path d="M17.3333 8L9.99996 15.3333L6.66663 12" stroke="#219653" stroke-width="2" stroke-linecap="round" stroke-linejoin="round"/>
</symbol>

<symbol id='icon-futa' width="37" height="37" viewBox="0 0 37 37" fill="none" xmlns="http://www.w3.org/2000/svg">
<circle cx="18.5" cy="18.5" r="18.5" fill="#4680FF"/>
</symbol>

<symbol id='icon-share-screen-blue' width="14" height="14" viewBox="0 0 14 14" fill="none" xmlns="http://www.w3.org/2000/svg">
<path d="M7 5.48828L9.98828 8.51172H7.73828V13.0117H6.26172V8.51172H4.01172L7 5.48828ZM12.2383 0.988281C12.6602 0.988281 13.0117 1.14062 13.293 1.44531C13.5977 1.75 13.75 2.10156 13.75 2.5V11.5C13.75 11.8984 13.5977 12.25 13.293 12.5547C12.9883 12.8594 12.6367 13.0117 12.2383 13.0117H9.25V11.5H12.2383V4.01172H1.76172V11.5H4.75V13.0117H1.76172C1.33984 13.0117 0.976562 12.8594 0.671875 12.5547C0.390625 12.25 0.25 11.8984 0.25 11.5V2.5C0.25 2.10156 0.390625 1.75 0.671875 1.44531C0.976562 1.14062 1.33984 0.988281 1.76172 0.988281H12.2383Z" fill="#4680FF"/>
</symbol>

<symbol id='icon-participants' width="24" height="24" viewBox="0 0 24 24" fill="none" xmlns="http://www.w3.org/2000/svg">
<path d="M11.9491 14.54C8.49909 14.54 5.58813 15.1038 5.58813 17.2795C5.58813 19.4562 8.51789 20.0001 11.9491 20.0001C15.3991 20.0001 18.31 19.4364 18.31 17.2606C18.31 15.084 15.3803 14.54 11.9491 14.54Z" fill="#4680FF"/>
<path d="M11.949 12.467C14.2851 12.467 16.1583 10.5831 16.1583 8.23351C16.1583 5.88306 14.2851 4 11.949 4C9.61293 4 7.73975 5.88306 7.73975 8.23351C7.73975 10.5831 9.61293 12.467 11.949 12.467Z" fill="#4680FF"/>
<path d="M21.0881 9.21923C21.6925 6.84176 19.9205 4.70654 17.664 4.70654C17.4187 4.70654 17.1841 4.73356 16.9549 4.77949C16.9244 4.78669 16.8904 4.802 16.8725 4.82902C16.8519 4.86324 16.8671 4.90917 16.8895 4.93889C17.5673 5.89528 17.9568 7.0597 17.9568 8.30967C17.9568 9.50741 17.5996 10.6241 16.9728 11.5508C16.9083 11.6462 16.9656 11.775 17.0793 11.7948C17.2369 11.8227 17.3981 11.8371 17.5629 11.8416C19.2059 11.8849 20.6807 10.8213 21.0881 9.21923Z" fill="#4680FF"/>
<path d="M22.8092 14.817C22.5083 14.1722 21.7821 13.73 20.6781 13.513C20.157 13.3851 18.7467 13.205 17.435 13.2293C17.4153 13.232 17.4045 13.2455 17.4027 13.2545C17.4 13.2671 17.4054 13.2887 17.4314 13.3022C18.0376 13.6039 20.3808 14.916 20.0862 17.6834C20.0737 17.8032 20.1695 17.9068 20.2886 17.8888C20.8652 17.8059 22.3489 17.4853 22.8092 16.4866C23.0635 15.9589 23.0635 15.3456 22.8092 14.817Z" fill="#4680FF"/>
<path d="M7.04483 4.77973C6.8165 4.7329 6.58101 4.70679 6.33567 4.70679C4.07926 4.70679 2.30726 6.84201 2.91255 9.21947C3.31906 10.8216 4.79379 11.8851 6.43685 11.8419C6.60161 11.8374 6.76368 11.8221 6.92037 11.7951C7.03409 11.7753 7.09139 11.6465 7.02692 11.551C6.40014 10.6234 6.04288 9.50765 6.04288 8.30991C6.04288 7.05904 6.43327 5.89462 7.11109 4.93913C7.13258 4.90941 7.1487 4.86348 7.12721 4.82926C7.1093 4.80135 7.07617 4.78694 7.04483 4.77973Z" fill="#4680FF"/>
<path d="M3.32156 13.5127C2.21752 13.7297 1.49225 14.1719 1.19139 14.8167C0.936203 15.3453 0.936203 15.9586 1.19139 16.4872C1.65163 17.4851 3.13531 17.8066 3.71195 17.8885C3.83104 17.9065 3.92595 17.8038 3.91342 17.6832C3.61883 14.9167 5.9621 13.6046 6.56918 13.3029C6.59425 13.2885 6.59962 13.2677 6.59694 13.2542C6.59515 13.2452 6.5853 13.2317 6.5656 13.2299C5.25294 13.2047 3.84358 13.3848 3.32156 13.5127Z" fill="#4680FF"/>
</symbol>

<symbol id='icon-recording-down-caret' width="14" height="9" viewBox="0 0 14 9" fill="none" xmlns="http://www.w3.org/2000/svg">
<path fill-rule="evenodd" clip-rule="evenodd" d="M0.21967 0.71967C-0.0732233 1.01256 -0.0732233 1.48744 0.21967 1.78033L6.46967 8.03033C6.76256 8.32322 7.23744 8.32322 7.53033 8.03033L13.7803 1.78033C14.0732 1.48744 14.0732 1.01256 13.7803 0.71967C13.4874 0.426777 13.0126 0.426777 12.7197 0.71967L7 6.43934L1.28033 0.71967C0.987437 0.426777 0.512563 0.426777 0.21967 0.71967Z" fill="#505565"/>
</symbol>

<symbol id='icon-recording-circle' width="24" height="24" viewBox="0 0 24 24" fill="none" xmlns="http://www.w3.org/2000/svg">
<path fill-rule="evenodd" clip-rule="evenodd" d="M12 2.5C6.75329 2.5 2.5 6.75329 2.5 12C2.5 17.2467 6.75329 21.5 12 21.5C17.2467 21.5 21.5 17.2467 21.5 12C21.5 6.75329 17.2467 2.5 12 2.5ZM1 12C1 5.92487 5.92487 1 12 1C18.0751 1 23 5.92487 23 12C23 18.0751 18.0751 23 12 23C5.92487 23 1 18.0751 1 12Z" fill="#FF7648"/>
<circle cx="12" cy="12" r="6" fill="#FF7648"/>
</symbol>

<symbol id='icon-video-record-start' width="24" height="24" viewBox="0 0 24 24" fill="none" xmlns="http://www.w3.org/2000/svg">
<path opacity="0.4" d="M21.3309 7.44275C20.9119 7.17879 20.3969 7.15544 19.9579 7.37879L18.4759 8.12701C17.9279 8.40316 17.5879 8.96153 17.5879 9.58285V15.4164C17.5879 16.0377 17.9279 16.595 18.4759 16.8732L19.9569 17.6204C20.1579 17.724 20.3729 17.7737 20.5879 17.7737C20.8459 17.7737 21.1019 17.7006 21.3309 17.5575C21.7499 17.2945 21.9999 16.8387 21.9999 16.3392V8.66204C21.9999 8.16255 21.7499 7.70671 21.3309 7.44275Z" fill="#4680ff"/>
<path d="M11.9051 20H6.11304C3.69102 20 2 18.3299 2 15.9391V9.06091C2 6.66904 3.69102 5 6.11304 5H11.9051C14.3271 5 16.0181 6.66904 16.0181 9.06091V15.9391C16.0181 18.3299 14.3271 20 11.9051 20Z" fill="#4680ff"/>
</symbol>

<symbol id='icon-video-record-end' width="24" height="24" viewBox="0 0 24 24" fill="none" xmlns="http://www.w3.org/2000/svg">
<path opacity="0.4" d="M21.3309 7.44275C20.9119 7.17879 20.3969 7.15544 19.9579 7.37879L18.4759 8.12701C17.9279 8.40316 17.5879 8.96153 17.5879 9.58285V15.4164C17.5879 16.0377 17.9279 16.595 18.4759 16.8732L19.9569 17.6204C20.1579 17.724 20.3729 17.7737 20.5879 17.7737C20.8459 17.7737 21.1019 17.7006 21.3309 17.5575C21.7499 17.2945 21.9999 16.8387 21.9999 16.3392V8.66204C21.9999 8.16255 21.7499 7.70671 21.3309 7.44275Z" fill="#FF5F57"/>
<path d="M11.9051 20H6.11304C3.69102 20 2 18.3299 2 15.9391V9.06091C2 6.66904 3.69102 5 6.11304 5H11.9051C14.3271 5 16.0181 6.66904 16.0181 9.06091V15.9391C16.0181 18.3299 14.3271 20 11.9051 20Z" fill="#FF5F57"/>
</symbol>

<symbol id='icon-message-open' width="16" height="16" viewBox="0 0 16 16" fill="none" xmlns="http://www.w3.org/2000/svg">
<path d="M8 9.73828L14.1875 5.87109L8 2.25L1.8125 5.87109L8 9.73828ZM15.4883 6.01172V13.5C15.4883 13.8984 15.3359 14.25 15.0312 14.5547C14.75 14.8594 14.4102 15.0117 14.0117 15.0117H1.98828C1.58984 15.0117 1.23828 14.8594 0.933594 14.5547C0.652344 14.25 0.511719 13.8984 0.511719 13.5V6.01172C0.511719 5.42578 0.746094 4.99219 1.21484 4.71094L8 0.738281L14.7852 4.71094C15.2539 4.99219 15.4883 5.42578 15.4883 6.01172Z" fill="#8083A3"/>
</symbol>




<!-- Images -->
<symbol id='img-calls-empty-space' width="376" height="377" viewBox="0 0 376 377" fill="none" xmlns="http://www.w3.org/2000/svg">
<rect x="59" y="78" width="126" height="8" fill="#ECEEF5"/>
<rect y="16" width="200" height="8" fill="#ECEEF5"/>
<rect x="344" y="16" width="32" height="8" fill="#ECEEF5"/>
<rect x="59" y="93" width="72" height="5" fill="#ECEEF5"/>
<rect width="72" height="5" fill="#ECEEF5"/>
<rect x="289" y="84" width="87" height="8" fill="#ECEEF5"/>
<rect y="67" width="42" height="42" rx="4" fill="#ECEEF5"/>
<rect x="59" y="212" width="158" height="8" fill="#ECEEF5"/>
<rect x="59" y="227" width="90" height="5" fill="#ECEEF5"/>
<rect x="302" y="219" width="74" height="8" fill="#ECEEF5"/>
<rect y="201" width="42" height="42" rx="4" fill="#ECEEF5"/>
<rect x="59" y="346" width="146" height="8" fill="#ECEEF5"/>
<rect x="59" y="361" width="83" height="5" fill="#ECEEF5"/>
<rect x="289" y="353" width="87" height="8" fill="#ECEEF5"/>
<rect y="335" width="42" height="42" rx="4" fill="#ECEEF5"/>
<rect x="59" y="145" width="175" height="8" fill="#ECEEF5"/>
<rect x="59" y="160" width="100" height="5" fill="#ECEEF5"/>
<rect x="289" y="152" width="87" height="8" fill="#ECEEF5"/>
<rect y="134" width="42" height="42" rx="4" fill="#ECEEF5"/>
<rect x="59" y="279" width="123" height="8" fill="#ECEEF5"/>
<rect x="59" y="294" width="70" height="5" fill="#ECEEF5"/>
<rect x="289" y="286" width="87" height="8" fill="#ECEEF5"/>
<rect y="268" width="42" height="42" rx="4" fill="#ECEEF5"/>
</symbol>

<symbol id="check" width="36" height="36" viewBox="0 0 36 36" fill="none" xmlns="http://www.w3.org/2000/symbol">
<rect width="36" height="36" rx="10" fill="white"/>
<rect width="36" height="36" rx="10" fill="#28C345" fill-opacity="0.1"/>
<path d="M15.7065 21.1289L23.6519 13.1836L24.7065 14.2383L15.7065 23.2383L11.5229 19.0547L12.5776 18L15.7065 21.1289Z" fill="#28C345"/>
</symbol>

<symbol id="icon-deleteIcon" width="18" height="18" viewBox="0 0 18 18" fill="none" xmlns="http://www.w3.org/2000/svg">
<path d="M16.5735 3.24H13.6912V1.44C13.6912 0.64575 13.0449 0 12.25 0H5.04412C4.24922 0 3.60294 0.64575 3.60294 1.44V3.24H0.720588C0.322013 3.24 0 3.56175 0 3.96V4.68C0 4.779 0.0810662 4.86 0.180147 4.86H1.54026L2.09646 16.6275C2.13249 17.3948 2.76751 18 3.53539 18H13.7587C14.5289 18 15.1616 17.397 15.1977 16.6275L15.7539 4.86H17.114C17.2131 4.86 17.2941 4.779 17.2941 4.68V3.96C17.2941 3.56175 16.9721 3.24 16.5735 3.24ZM12.0699 3.24H5.22426V1.62H12.0699V3.24Z" fill="#8083A3"/>
</symbol>

</defs>
</svg>


