<svg width="42" height="52" viewBox="0 0 42 52" fill="none" xmlns="http://www.w3.org/2000/svg">
<g clip-path="url(#clip0)">
<path d="M38.7188 36.4H3.28125C2.8875 36.4 2.625 36.66 2.625 37.05C2.625 37.44 2.8875 37.7 3.28125 37.7H38.7188C39.1125 37.7 39.375 37.44 39.375 37.05C39.375 36.66 39.1125 36.4 38.7188 36.4Z" fill="#4680FF"/>
<path d="M26.9062 9.1C26.5125 9.1 26.25 9.36 26.25 9.75V33.15C26.25 33.54 26.5125 33.8 26.9062 33.8H33.4688C33.8625 33.8 34.125 33.54 34.125 33.15V9.75C34.125 9.36 33.8625 9.1 33.4688 9.1H26.9062ZM32.8125 32.5H27.5625V10.4H32.8125V32.5Z" fill="#4680FF"/>
<path d="M17.7188 14.95C17.325 14.95 17.0625 15.21 17.0625 15.6V33.15C17.0625 33.54 17.325 33.8 17.7188 33.8H24.2812C24.675 33.8 24.9375 33.54 24.9375 33.15V15.6C24.9375 15.21 24.675 14.95 24.2812 14.95H17.7188ZM23.625 32.5H18.375V16.25H23.625V32.5Z" fill="#4680FF"/>
<path d="M8.53125 23.4C8.1375 23.4 7.875 23.66 7.875 24.05V33.15C7.875 33.54 8.1375 33.8 8.53125 33.8H15.0938C15.4875 33.8 15.75 33.54 15.75 33.15V24.05C15.75 23.66 15.4875 23.4 15.0938 23.4H8.53125ZM14.4375 32.5H9.1875V24.7H14.4375V32.5Z" fill="#4680FF"/>
<path d="M4.79063 21.905C4.92188 22.035 5.05312 22.1 5.25 22.1C5.44687 22.1 5.57812 22.035 5.70937 21.905L15.3562 11.7H23.625C23.8219 11.7 24.0187 11.635 24.15 11.505L28.6125 6.50004L35.5688 5.20004C35.8969 5.13504 36.1594 4.81004 36.0938 4.48504C36.0281 4.16004 35.7 3.90004 35.3719 3.96504L28.1531 5.26504C28.0219 5.26504 27.8906 5.39504 27.7594 5.46004L23.2969 10.4H15.0938C14.8969 10.4 14.7656 10.465 14.6344 10.595L4.79063 20.995C4.52813 21.255 4.52813 21.71 4.79063 21.905Z" fill="#4680FF"/>
</g>
<defs>
<clipPath id="clip0">
<rect width="42" height="52" fill="white"/>
</clipPath>
</defs>
</svg>
