<svg width="63" height="27" viewBox="0 0 63 27" fill="none" xmlns="http://www.w3.org/2000/svg">
<path d="M4.42747 10.533C4.42747 9.8333 4.98746 9.56406 5.91511 9.56406C7.245 9.56406 8.92496 9.97688 10.255 10.7126V6.49565C8.80253 5.90354 7.36755 5.67025 5.91511 5.67025C2.3625 5.67025 0 7.57236 0 10.7485C0 15.7009 6.64995 14.9114 6.64995 17.0468C6.64995 17.8721 5.95005 18.1413 4.96999 18.1413C3.51754 18.1413 1.66249 17.5312 0.192445 16.7058V20.9765C1.81999 21.6942 3.465 21.9992 4.96999 21.9992C8.60996 21.9992 11.1125 20.1511 11.1125 16.9391C11.095 11.5918 4.42747 12.5428 4.42747 10.533ZM16.2574 2.08152L11.9875 3.01454L11.97 17.3876C11.97 20.0435 13.9125 21.9992 16.5026 21.9992C17.9375 21.9992 18.9875 21.7301 19.5649 21.4071V17.7645C19.0051 17.9978 16.24 18.8232 16.24 16.1674V9.79734H19.5649V5.97533H16.24L16.2574 2.08152ZM25.0076 7.30312L24.7275 5.97533H20.9475V21.6762H25.3226V11.0356C26.3549 9.65389 28.105 9.90509 28.6475 10.1024V5.97533C28.0875 5.75996 26.04 5.36518 25.0076 7.30312ZM29.715 5.97533H34.1075V21.6762H29.715V5.97533ZM29.715 4.61157L34.1075 3.6426V0L29.715 0.951056V4.61145V4.61157ZM43.2425 5.67025C41.5275 5.67025 40.425 6.49564 39.8126 7.06996L39.5849 5.95741H35.735V26.8799L40.11 25.929L40.1276 20.8508C40.7576 21.3174 41.685 21.9813 43.225 21.9813C46.3575 21.9813 49.21 19.3974 49.21 13.7092C49.1925 8.50538 46.305 5.67025 43.2425 5.67025ZM42.1925 18.0336C41.16 18.0336 40.5474 17.6569 40.1276 17.1903L40.11 10.533C40.565 10.0127 41.195 9.65389 42.1925 9.65389C43.785 9.65389 44.8875 11.4841 44.8875 13.8347C44.8875 16.2392 43.8025 18.0336 42.1925 18.0336ZM63 13.8886C63 9.29494 60.8299 5.67025 56.6825 5.67025C52.5174 5.67025 49.9974 9.29506 49.9974 13.8528C49.9974 19.2538 52.9725 21.9813 57.2424 21.9813C59.325 21.9813 60.9 21.4968 62.0899 20.815V17.2261C60.9001 17.8363 59.535 18.2131 57.8025 18.2131C56.1049 18.2131 54.6 17.603 54.4075 15.4856H62.9651C62.9651 15.2522 63 14.3192 63 13.8886ZM54.355 12.1839C54.355 10.1563 55.5626 9.31286 56.6651 9.31286C57.7325 9.31286 58.8701 10.1563 58.8701 12.1839H54.355Z" fill="#6772E5"/>
</svg>
