<svg width="21" height="18" viewBox="0 0 21 18" fill="none" xmlns="http://www.w3.org/2000/svg">
<path d="M20.6232 2.79997C19.8503 3.12606 19.0328 3.34163 18.1964 3.43997C19.0788 2.92729 19.7402 2.12075 20.0576 1.16997C19.2283 1.65003 18.3205 1.98826 17.3737 2.16997C16.7408 1.50254 15.898 1.05826 14.9775 0.906817C14.057 0.755372 13.1108 0.905324 12.2874 1.33315C11.4639 1.76099 10.8098 2.4425 10.4276 3.2708C10.0454 4.09911 9.95666 5.02736 10.1754 5.90997C8.49863 5.82749 6.85846 5.40292 5.36143 4.66383C3.86441 3.92474 2.54401 2.88766 1.48602 1.61997C1.11493 2.25013 0.919942 2.96379 0.920437 3.68997C0.919121 4.36435 1.08931 5.02858 1.41584 5.62353C1.74237 6.21848 2.21512 6.72568 2.79199 7.09997C2.1215 7.08222 1.46533 6.90726 0.879303 6.58997V6.63997C0.884329 7.58486 1.22482 8.49906 1.84317 9.22793C2.46153 9.9568 3.31979 10.4556 4.27279 10.64C3.90594 10.7485 3.52506 10.8058 3.14163 10.81C2.8762 10.807 2.61144 10.7835 2.34981 10.74C2.6212 11.5528 3.14638 12.2631 3.85228 12.7721C4.55818 13.2811 5.40968 13.5635 6.28831 13.58C4.80464 14.7152 2.97286 15.3348 1.08497 15.34C0.741235 15.3411 0.397774 15.321 0.0566406 15.28C1.98417 16.4902 4.23043 17.1327 6.52483 17.13C8.10814 17.146 9.67885 16.855 11.1452 16.274C12.6116 15.6931 13.9442 14.8338 15.0653 13.7465C16.1864 12.6591 17.0734 11.3654 17.6745 9.94087C18.2757 8.51639 18.5789 6.98969 18.5666 5.44997V4.91997C19.3735 4.33478 20.0694 3.61739 20.6232 2.79997Z" fill="#F4F4F4"/>
</svg>
