<svg xmlns="http://www.w3.org/2000/svg" xmlns:xlink="http://www.w3.org/1999/xlink" width="48" height="15" viewBox="0 0 48 15"><defs><style>.a{fill:url(#a);}</style><linearGradient id="a" x1="23.79" y1="0.65" x2="24.21" y2="16.06" gradientTransform="matrix(1, 0, 0, -1, 0, 16)" gradientUnits="userSpaceOnUse"><stop offset="0" stop-color="#222357"/><stop offset="1" stop-color="#254aa5"/></linearGradient></defs><path class="a" d="M24.8,4.8c0,2.1,1.9,3.3,3.4,3.9s2,1.2,2,1.8S29,12,27.9,12a9.1,9.1,0,0,1-4-.9l-.7,3.1a11.7,11.7,0,0,0,4.3.8c4.1,0,6.8-1.9,6.8-5s-5.5-4-5.4-5.7.5-1.1,1.6-1.2a6.6,6.6,0,0,1,3.8.6L35,.6A11.2,11.2,0,0,0,31.4,0C27.5,0,24.8,2,24.8,4.8ZM41.6.3a1.8,1.8,0,0,0-1.7,1L34.1,14.8h4.1l.8-2.2h4.9l.5,2.2H48L44.9.3Zm.5,3.9,1.2,5.4H40.1ZM19.9.3,16.7,14.8h3.9L23.8.3ZM14.2.3l-4.1,9.8L8.5,1.7A1.8,1.8,0,0,0,6.7.3H.1V.7A15.5,15.5,0,0,1,3.8,1.9a1.4,1.4,0,0,1,.9,1.3L7.8,14.8h4.1L18.2.3h-4"/></svg>