<svg width="23" height="16" viewBox="0 0 23 16" fill="none" xmlns="http://www.w3.org/2000/svg">
<path d="M22.9175 5.70998C22.9683 4.27864 22.6464 2.858 21.9817 1.57998C21.5307 1.05558 20.9047 0.701694 20.213 0.579984C17.3517 0.327509 14.4785 0.224028 11.6058 0.269984C8.74364 0.221942 5.88084 0.322084 3.02958 0.569984C2.46587 0.669701 1.94419 0.926826 1.52822 1.30998C0.602721 2.13998 0.499888 3.55998 0.397055 4.75998C0.247857 6.91755 0.247857 9.08242 0.397055 11.24C0.426805 11.9154 0.530217 12.5858 0.705554 13.24C0.829544 13.7451 1.0804 14.2123 1.43567 14.6C1.85447 15.0034 2.3883 15.2752 2.96788 15.38C5.18487 15.6461 7.41871 15.7564 9.65202 15.71C13.2512 15.76 16.4081 15.71 20.141 15.43C20.7348 15.3316 21.2836 15.0595 21.7143 14.65C22.0022 14.3699 22.2173 14.0271 22.3416 13.65C22.7094 12.5526 22.89 11.4041 22.8763 10.25C22.9175 9.68999 22.9175 6.30999 22.9175 5.70998ZM9.28182 10.85V4.65998L15.3695 7.76999C13.6625 8.68999 11.4105 9.72999 9.28182 10.85Z" fill="#F4F4F4"/>
</svg>
